<svg width="268" height="15" viewBox="0 0 268 15" fill="none" xmlns="http://www.w3.org/2000/svg">
<path d="M5.81 12.14C5.07267 12.14 4.382 12.0047 3.738 11.734C3.094 11.454 2.52467 11.0713 2.03 10.586C1.54467 10.1007 1.162 9.536 0.882 8.892C0.611333 8.23867 0.476 7.54333 0.476 6.806C0.476 6.06867 0.611333 5.378 0.882 4.734C1.162 4.09 1.54467 3.52533 2.03 3.04C2.52467 2.54533 3.094 2.16267 3.738 1.892C4.382 1.612 5.07267 1.472 5.81 1.472C6.54733 1.472 7.238 1.612 7.882 1.892C8.526 2.16267 9.09067 2.54533 9.576 3.04C10.0707 3.52533 10.4533 4.09 10.724 4.734C11.004 5.378 11.144 6.06867 11.144 6.806C11.144 7.54333 11.004 8.23867 10.724 8.892C10.4533 9.536 10.0707 10.1007 9.576 10.586C9.09067 11.0713 8.526 11.454 7.882 11.734C7.238 12.0047 6.54733 12.14 5.81 12.14ZM5.81 11.3C6.41667 11.3 6.986 11.1973 7.518 10.992C8.05933 10.7867 8.53533 10.488 8.946 10.096C9.35667 9.69467 9.67867 9.21867 9.912 8.668C10.1453 8.108 10.262 7.48733 10.262 6.806C10.262 6.134 10.1453 5.52267 9.912 4.972C9.67867 4.412 9.35667 3.93133 8.946 3.53C8.53533 3.12867 8.05933 2.82533 7.518 2.62C6.986 2.40533 6.41667 2.298 5.81 2.298C5.194 2.298 4.61533 2.40533 4.074 2.62C3.53267 2.82533 3.05667 3.12867 2.646 3.53C2.24467 3.93133 1.92733 4.412 1.694 4.972C1.47 5.52267 1.358 6.134 1.358 6.806C1.358 7.48733 1.47 8.108 1.694 8.668C1.92733 9.21867 2.24467 9.69467 2.646 10.096C3.05667 10.488 3.53267 10.7867 4.074 10.992C4.61533 11.1973 5.194 11.3 5.81 11.3ZM5.838 3.768C6.22067 3.768 6.55667 3.83333 6.846 3.964C7.13533 4.09467 7.38267 4.272 7.588 4.496C7.80267 4.71067 7.98467 4.944 8.134 5.196C8.15267 5.24267 8.15267 5.27533 8.134 5.294C8.12467 5.31267 8.106 5.32667 8.078 5.336L7.392 5.532C7.336 5.55067 7.28933 5.52267 7.252 5.448C7.084 5.168 6.888 4.94867 6.664 4.79C6.44933 4.622 6.19267 4.538 5.894 4.538C5.38067 4.538 4.96067 4.73867 4.634 5.14C4.31667 5.532 4.158 6.07333 4.158 6.764C4.158 7.45467 4.32133 8.00067 4.648 8.402C4.984 8.80333 5.40867 9.004 5.922 9.004C6.286 9.004 6.59867 8.906 6.86 8.71C7.12133 8.514 7.33133 8.26667 7.49 7.968C7.518 7.912 7.574 7.90267 7.658 7.94L8.134 8.122C8.19 8.14067 8.204 8.18733 8.176 8.262C8.07333 8.458 7.94733 8.64467 7.798 8.822C7.658 8.99933 7.49 9.16267 7.294 9.312C7.098 9.452 6.87867 9.564 6.636 9.648C6.39333 9.72267 6.12733 9.76 5.838 9.76C5.306 9.76 4.83467 9.63867 4.424 9.396C4.01333 9.144 3.69133 8.794 3.458 8.346C3.234 7.898 3.122 7.38 3.122 6.792C3.122 6.19467 3.23867 5.672 3.472 5.224C3.70533 4.76667 4.02733 4.412 4.438 4.16C4.84867 3.89867 5.31533 3.768 5.838 3.768ZM18.6612 7.646C19.0532 7.27267 19.3846 6.94133 19.6552 6.652C19.9259 6.35333 20.1406 6.078 20.2992 5.826C20.4672 5.56467 20.5886 5.31733 20.6632 5.084C20.7472 4.84133 20.7892 4.594 20.7892 4.342C20.7892 3.94067 20.6866 3.60467 20.4812 3.334C20.2759 3.06333 20.0146 2.86267 19.6972 2.732C19.3892 2.592 19.0626 2.522 18.7172 2.522C18.4466 2.522 18.1666 2.56867 17.8772 2.662C17.5879 2.746 17.3079 2.89067 17.0372 3.096C16.7759 3.30133 16.5379 3.572 16.3232 3.908C16.3046 3.94533 16.2672 3.96867 16.2112 3.978C16.1646 3.98733 16.1086 3.97333 16.0432 3.936L15.4272 3.572C15.3619 3.52533 15.3246 3.47867 15.3152 3.432C15.3152 3.376 15.3339 3.32 15.3712 3.264C15.8006 2.63867 16.3186 2.186 16.9252 1.906C17.5412 1.61667 18.1759 1.472 18.8292 1.472C19.4172 1.472 19.9586 1.57933 20.4532 1.794C20.9479 2.00867 21.3446 2.33067 21.6432 2.76C21.9419 3.18933 22.0912 3.73067 22.0912 4.384C22.0912 4.79467 22.0166 5.182 21.8672 5.546C21.7272 5.91 21.4892 6.288 21.1532 6.68C20.8266 7.072 20.3879 7.52933 19.8372 8.052L17.0232 10.698C16.9672 10.7353 16.9439 10.7727 16.9532 10.81C16.9719 10.8473 17.0232 10.866 17.1072 10.866H22.0212C22.1426 10.866 22.2032 10.9173 22.2032 11.02V11.832C22.2032 11.888 22.1892 11.93 22.1612 11.958C22.1426 11.986 22.0959 12 22.0212 12H15.5252C15.4412 12 15.3806 11.986 15.3432 11.958C15.3152 11.93 15.3012 11.8693 15.3012 11.776V11.202C15.3012 11.1367 15.3059 11.0807 15.3152 11.034C15.3339 10.978 15.3712 10.9173 15.4272 10.852C15.4832 10.7867 15.5672 10.7073 15.6792 10.614L18.6612 7.646ZM27.8261 1.472C28.3768 1.472 28.8854 1.58867 29.3521 1.822C29.8281 2.046 30.2388 2.38667 30.5841 2.844C30.9388 3.30133 31.2141 3.866 31.4101 4.538C31.6061 5.20067 31.7041 5.966 31.7041 6.834C31.7041 7.99133 31.5314 8.962 31.1861 9.746C30.8501 10.53 30.3881 11.1227 29.8001 11.524C29.2121 11.9253 28.5494 12.126 27.8121 12.126C27.0654 12.126 26.3981 11.9253 25.8101 11.524C25.2221 11.1227 24.7601 10.53 24.4241 9.746C24.0881 8.962 23.9201 7.996 23.9201 6.848C23.9201 5.98 24.0181 5.21467 24.2141 4.552C24.4101 3.88 24.6854 3.31533 25.0401 2.858C25.3948 2.39133 25.8101 2.046 26.2861 1.822C26.7621 1.58867 27.2754 1.472 27.8261 1.472ZM27.8261 11.104C28.3394 11.104 28.7828 10.9593 29.1561 10.67C29.5294 10.3807 29.8188 9.92333 30.0241 9.298C30.2294 8.66333 30.3321 7.842 30.3321 6.834C30.3321 5.80733 30.2248 4.97667 30.0101 4.342C29.8048 3.70733 29.5108 3.24067 29.1281 2.942C28.7548 2.64333 28.3161 2.494 27.8121 2.494C27.3081 2.494 26.8648 2.64333 26.4821 2.942C26.1088 3.24067 25.8148 3.712 25.6001 4.356C25.3948 4.99067 25.2921 5.81667 25.2921 6.834C25.2921 7.842 25.3948 8.66333 25.6001 9.298C25.8148 9.92333 26.1134 10.3807 26.4961 10.67C26.8788 10.9593 27.3221 11.104 27.8261 11.104ZM36.6808 7.646C37.0728 7.27267 37.4041 6.94133 37.6748 6.652C37.9454 6.35333 38.1601 6.078 38.3188 5.826C38.4868 5.56467 38.6081 5.31733 38.6828 5.084C38.7668 4.84133 38.8088 4.594 38.8088 4.342C38.8088 3.94067 38.7061 3.60467 38.5008 3.334C38.2954 3.06333 38.0341 2.86267 37.7168 2.732C37.4088 2.592 37.0821 2.522 36.7368 2.522C36.4661 2.522 36.1861 2.56867 35.8968 2.662C35.6074 2.746 35.3274 2.89067 35.0568 3.096C34.7954 3.30133 34.5574 3.572 34.3428 3.908C34.3241 3.94533 34.2868 3.96867 34.2308 3.978C34.1841 3.98733 34.1281 3.97333 34.0628 3.936L33.4468 3.572C33.3814 3.52533 33.3441 3.47867 33.3348 3.432C33.3348 3.376 33.3534 3.32 33.3908 3.264C33.8201 2.63867 34.3381 2.186 34.9448 1.906C35.5608 1.61667 36.1954 1.472 36.8488 1.472C37.4368 1.472 37.9781 1.57933 38.4728 1.794C38.9674 2.00867 39.3641 2.33067 39.6628 2.76C39.9614 3.18933 40.1108 3.73067 40.1108 4.384C40.1108 4.79467 40.0361 5.182 39.8868 5.546C39.7468 5.91 39.5088 6.288 39.1728 6.68C38.8461 7.072 38.4074 7.52933 37.8568 8.052L35.0428 10.698C34.9868 10.7353 34.9634 10.7727 34.9728 10.81C34.9914 10.8473 35.0428 10.866 35.1268 10.866H40.0408C40.1621 10.866 40.2228 10.9173 40.2228 11.02V11.832C40.2228 11.888 40.2088 11.93 40.1808 11.958C40.1621 11.986 40.1154 12 40.0408 12H33.5448C33.4608 12 33.4001 11.986 33.3628 11.958C33.3348 11.93 33.3208 11.8693 33.3208 11.776V11.202C33.3208 11.1367 33.3254 11.0807 33.3348 11.034C33.3534 10.978 33.3908 10.9173 33.4468 10.852C33.5028 10.7867 33.5868 10.7073 33.6988 10.614L36.6808 7.646ZM45.0616 7.646C45.4536 7.27267 45.785 6.94133 46.0556 6.652C46.3263 6.35333 46.541 6.078 46.6996 5.826C46.8676 5.56467 46.989 5.31733 47.0636 5.084C47.1476 4.84133 47.1896 4.594 47.1896 4.342C47.1896 3.94067 47.087 3.60467 46.8816 3.334C46.6763 3.06333 46.415 2.86267 46.0976 2.732C45.7896 2.592 45.463 2.522 45.1176 2.522C44.847 2.522 44.567 2.56867 44.2776 2.662C43.9883 2.746 43.7083 2.89067 43.4376 3.096C43.1763 3.30133 42.9383 3.572 42.7236 3.908C42.705 3.94533 42.6676 3.96867 42.6116 3.978C42.565 3.98733 42.509 3.97333 42.4436 3.936L41.8276 3.572C41.7623 3.52533 41.725 3.47867 41.7156 3.432C41.7156 3.376 41.7343 3.32 41.7716 3.264C42.201 2.63867 42.719 2.186 43.3256 1.906C43.9416 1.61667 44.5763 1.472 45.2296 1.472C45.8176 1.472 46.359 1.57933 46.8536 1.794C47.3483 2.00867 47.745 2.33067 48.0436 2.76C48.3423 3.18933 48.4916 3.73067 48.4916 4.384C48.4916 4.79467 48.417 5.182 48.2676 5.546C48.1276 5.91 47.8896 6.288 47.5536 6.68C47.227 7.072 46.7883 7.52933 46.2376 8.052L43.4236 10.698C43.3676 10.7353 43.3443 10.7727 43.3536 10.81C43.3723 10.8473 43.4236 10.866 43.5076 10.866H48.4216C48.543 10.866 48.6036 10.9173 48.6036 11.02V11.832C48.6036 11.888 48.5896 11.93 48.5616 11.958C48.543 11.986 48.4963 12 48.4216 12H41.9256C41.8416 12 41.781 11.986 41.7436 11.958C41.7156 11.93 41.7016 11.8693 41.7016 11.776V11.202C41.7016 11.1367 41.7063 11.0807 41.7156 11.034C41.7343 10.978 41.7716 10.9173 41.8276 10.852C41.8836 10.7867 41.9676 10.7073 42.0796 10.614L45.0616 7.646ZM61.4766 1.612C61.5793 1.612 61.6306 1.668 61.6306 1.78V11.832C61.6306 11.888 61.612 11.93 61.5746 11.958C61.5466 11.986 61.5046 12 61.4486 12H60.7626C60.7066 12 60.6553 11.9953 60.6086 11.986C60.562 11.9767 60.5153 11.944 60.4686 11.888L55.0646 4.034C55.018 3.96867 54.9806 3.94067 54.9526 3.95C54.9246 3.95933 54.9106 3.992 54.9106 4.048V11.818C54.9106 11.9393 54.8453 12 54.7146 12H53.9306C53.8093 12 53.7486 11.9393 53.7486 11.818V1.808C53.7486 1.67733 53.8093 1.612 53.9306 1.612H54.7286C54.8033 1.612 54.8593 1.62133 54.8966 1.64C54.934 1.64933 54.976 1.68667 55.0226 1.752L60.2726 9.438C60.3286 9.50333 60.3753 9.52667 60.4126 9.508C60.4593 9.48933 60.4826 9.452 60.4826 9.396V1.78C60.4826 1.668 60.5386 1.612 60.6506 1.612H61.4766ZM67.1723 12.14C66.4723 12.14 65.8517 11.9813 65.3103 11.664C64.7783 11.3373 64.363 10.8893 64.0643 10.32C63.775 9.74133 63.6303 9.07867 63.6303 8.332C63.6303 7.55733 63.7797 6.88067 64.0783 6.302C64.3863 5.714 64.8063 5.25667 65.3383 4.93C65.8703 4.60333 66.4863 4.44 67.1863 4.44C67.8957 4.44 68.5117 4.608 69.0343 4.944C69.5663 5.27067 69.977 5.728 70.2663 6.316C70.565 6.89467 70.7143 7.562 70.7143 8.318C70.7143 9.06467 70.565 9.72733 70.2663 10.306C69.9677 10.8753 69.5523 11.3233 69.0203 11.65C68.4977 11.9767 67.8817 12.14 67.1723 12.14ZM67.2003 11.258C67.6857 11.258 68.101 11.1413 68.4463 10.908C68.7917 10.6653 69.053 10.3247 69.2303 9.886C69.417 9.438 69.5103 8.906 69.5103 8.29C69.5103 7.674 69.417 7.14667 69.2303 6.708C69.0437 6.26 68.7777 5.91467 68.4323 5.672C68.087 5.42933 67.6717 5.308 67.1863 5.308C66.7103 5.308 66.295 5.42933 65.9403 5.672C65.5857 5.91467 65.3103 6.26 65.1143 6.708C64.9277 7.14667 64.8343 7.674 64.8343 8.29C64.8343 8.89667 64.9277 9.424 65.1143 9.872C65.3103 10.32 65.5857 10.6653 65.9403 10.908C66.295 11.1413 66.715 11.258 67.2003 11.258ZM74.2275 5.462C74.1528 5.462 74.1155 5.49933 74.1155 5.574V10.012C74.1155 10.4507 74.1901 10.7447 74.3395 10.894C74.4888 11.0433 74.7128 11.118 75.0115 11.118H75.9775C76.0241 11.118 76.0615 11.132 76.0895 11.16C76.1175 11.1787 76.1315 11.216 76.1315 11.272L76.1175 11.748C76.1175 11.8413 76.0615 11.902 75.9495 11.93C75.8561 11.9487 75.7208 11.9627 75.5435 11.972C75.3755 11.9813 75.2075 11.9907 75.0395 12C74.8808 12 74.7455 12 74.6335 12C74.0455 12 73.6161 11.8647 73.3455 11.594C73.0748 11.314 72.9395 10.8753 72.9395 10.278V5.602C72.9395 5.50867 72.8928 5.462 72.7995 5.462H71.6795C71.5768 5.462 71.5255 5.41067 71.5255 5.308V4.72C71.5255 4.62667 71.5721 4.58 71.6655 4.58H72.8555C72.9208 4.58 72.9535 4.54267 72.9535 4.468L73.1075 2.242C73.1168 2.12067 73.1681 2.06 73.2615 2.06H73.9615C74.0735 2.06 74.1295 2.12533 74.1295 2.256V4.468C74.1295 4.54267 74.1668 4.58 74.2415 4.58H76.0055C76.1081 4.58 76.1595 4.622 76.1595 4.706V5.308C76.1595 5.41067 76.1081 5.462 76.0055 5.462H74.2275ZM78.2878 8.752C78.2878 9.20933 78.3951 9.62933 78.6098 10.012C78.8338 10.3853 79.1278 10.684 79.4918 10.908C79.8651 11.132 80.2804 11.244 80.7378 11.244C81.2044 11.244 81.6198 11.1507 81.9838 10.964C82.3478 10.768 82.6604 10.474 82.9218 10.082C82.9591 10.0447 82.9871 10.026 83.0058 10.026C83.0338 10.0167 83.0711 10.0213 83.1178 10.04L83.7058 10.334C83.7898 10.3807 83.7991 10.446 83.7338 10.53C83.4818 10.9033 83.2018 11.2113 82.8938 11.454C82.5951 11.6873 82.2591 11.86 81.8858 11.972C81.5124 12.084 81.0924 12.14 80.6258 12.14C79.9351 12.14 79.3238 11.9813 78.7918 11.664C78.2598 11.3467 77.8398 10.9033 77.5318 10.334C77.2238 9.76467 77.0698 9.10667 77.0698 8.36C77.0698 7.548 77.2238 6.85267 77.5318 6.274C77.8491 5.686 78.2738 5.23333 78.8058 4.916C79.3471 4.59867 79.9491 4.44 80.6118 4.44C81.2931 4.44 81.8858 4.58933 82.3898 4.888C82.8938 5.18667 83.2858 5.62067 83.5658 6.19C83.8458 6.75933 83.9858 7.44533 83.9858 8.248C83.9858 8.31333 83.9764 8.37867 83.9578 8.444C83.9484 8.50933 83.8878 8.542 83.7758 8.542H78.4138C78.3764 8.542 78.3438 8.56533 78.3158 8.612C78.2971 8.64933 78.2878 8.696 78.2878 8.752ZM82.5718 7.772C82.6744 7.772 82.7398 7.76267 82.7678 7.744C82.7958 7.716 82.8098 7.66 82.8098 7.576C82.8098 7.17467 82.7211 6.80133 82.5438 6.456C82.3758 6.10133 82.1284 5.81667 81.8018 5.602C81.4844 5.38733 81.0971 5.28 80.6398 5.28C80.1358 5.28 79.7111 5.40133 79.3658 5.644C79.0204 5.87733 78.7591 6.18533 78.5818 6.568C78.4044 6.95067 78.3158 7.352 78.3158 7.772H82.5718ZM90.0905 6.218C89.9039 5.938 89.6425 5.70933 89.3065 5.532C88.9705 5.35467 88.5692 5.266 88.1025 5.266C87.5985 5.266 87.1785 5.37333 86.8425 5.588C86.5159 5.80267 86.3525 6.092 86.3525 6.456C86.3525 6.652 86.4272 6.83867 86.5765 7.016C86.7259 7.184 87.0292 7.34267 87.4865 7.492L89.2645 8.024C89.9085 8.20133 90.3705 8.458 90.6505 8.794C90.9399 9.13 91.0845 9.51733 91.0845 9.956C91.0845 10.3947 90.9539 10.7773 90.6925 11.104C90.4312 11.4307 90.0719 11.6873 89.6145 11.874C89.1572 12.0513 88.6392 12.14 88.0605 12.14C87.3232 12.14 86.6792 11.9953 86.1285 11.706C85.5779 11.4073 85.1859 11.0387 84.9525 10.6C84.9245 10.5533 84.9105 10.5113 84.9105 10.474C84.9105 10.4367 84.9339 10.404 84.9805 10.376L85.5265 10.068C85.5732 10.04 85.6152 10.0307 85.6525 10.04C85.6899 10.04 85.7179 10.054 85.7365 10.082C85.8952 10.3247 86.0772 10.5347 86.2825 10.712C86.4972 10.8893 86.7492 11.0293 87.0385 11.132C87.3372 11.2347 87.6825 11.286 88.0745 11.286C88.4292 11.2767 88.7512 11.2253 89.0405 11.132C89.3299 11.0387 89.5585 10.9033 89.7265 10.726C89.8945 10.5393 89.9785 10.3247 89.9785 10.082C89.9785 9.83 89.8759 9.61533 89.6705 9.438C89.4652 9.25133 89.1105 9.088 88.6065 8.948L87.1645 8.542C86.4645 8.35533 85.9699 8.10333 85.6805 7.786C85.4005 7.46867 85.2559 7.09533 85.2465 6.666C85.2465 6.218 85.3679 5.83067 85.6105 5.504C85.8532 5.168 86.1892 4.90667 86.6185 4.72C87.0572 4.53333 87.5565 4.44 88.1165 4.44C88.7419 4.44 89.2972 4.56133 89.7825 4.804C90.2772 5.03733 90.6505 5.35 90.9025 5.742C90.9305 5.77933 90.9445 5.81667 90.9445 5.854C90.9445 5.882 90.9259 5.91 90.8885 5.938L90.3005 6.26C90.2632 6.27867 90.2259 6.288 90.1885 6.288C90.1605 6.27867 90.1279 6.25533 90.0905 6.218ZM96.1906 8.57C96.1906 8.70067 96.1113 8.766 95.9526 8.766H92.7746C92.7093 8.766 92.6626 8.75667 92.6346 8.738C92.6066 8.71 92.5926 8.66333 92.5926 8.598V7.982C92.5926 7.87933 92.6346 7.828 92.7186 7.828L96.0506 7.814C96.1439 7.814 96.1906 7.86067 96.1906 7.954V8.57ZM106.255 11.804C106.283 11.86 106.287 11.9067 106.269 11.944C106.259 11.9813 106.227 12 106.171 12H105.023C104.892 12 104.808 11.958 104.771 11.874L101.677 6.708C101.621 6.624 101.551 6.62867 101.467 6.722L99.8566 8.556C99.7913 8.63067 99.7586 8.71467 99.7586 8.808V11.79C99.7586 11.93 99.6793 12 99.5206 12H98.6246C98.55 12 98.494 11.986 98.4566 11.958C98.4286 11.93 98.4146 11.8833 98.4146 11.818V1.78C98.4146 1.668 98.466 1.612 98.5686 1.612H99.6046C99.7073 1.612 99.7586 1.668 99.7586 1.78V6.918C99.7586 6.974 99.768 7.00667 99.7866 7.016C99.8053 7.016 99.838 6.99267 99.8846 6.946L104.477 1.738C104.514 1.69133 104.551 1.65867 104.589 1.64C104.626 1.62133 104.682 1.612 104.757 1.612H105.723C105.807 1.612 105.858 1.63533 105.877 1.682C105.895 1.71933 105.881 1.76133 105.835 1.808L102.573 5.448C102.535 5.504 102.535 5.56467 102.573 5.63L106.255 11.804ZM111.838 11.104C111.493 11.44 111.115 11.6967 110.704 11.874C110.303 12.0513 109.85 12.14 109.346 12.14C108.618 12.14 108.044 11.9533 107.624 11.58C107.214 11.2067 107.008 10.7167 107.008 10.11C107.008 9.61533 107.148 9.19067 107.428 8.836C107.708 8.472 108.124 8.18733 108.674 7.982C109.225 7.76733 109.902 7.63667 110.704 7.59L111.796 7.506C111.852 7.49667 111.904 7.478 111.95 7.45C111.997 7.422 112.02 7.37067 112.02 7.296V6.918C112.02 6.414 111.862 6.01733 111.544 5.728C111.236 5.42933 110.816 5.28 110.284 5.28C109.874 5.28 109.5 5.37333 109.164 5.56C108.838 5.74667 108.544 6.02667 108.282 6.4C108.245 6.44667 108.212 6.47933 108.184 6.498C108.166 6.50733 108.128 6.50267 108.072 6.484L107.316 6.232C107.288 6.21333 107.265 6.19 107.246 6.162C107.237 6.134 107.251 6.08267 107.288 6.008C107.568 5.52267 107.96 5.14 108.464 4.86C108.978 4.58 109.603 4.44 110.34 4.44C110.966 4.44 111.484 4.538 111.894 4.734C112.314 4.92067 112.627 5.196 112.832 5.56C113.047 5.91467 113.154 6.33933 113.154 6.834V11.79C113.154 11.874 113.14 11.93 113.112 11.958C113.084 11.986 113.038 12 112.972 12H112.258C112.193 12 112.146 11.9813 112.118 11.944C112.09 11.8973 112.072 11.8413 112.062 11.776L112.048 11.132C112.02 11.0013 111.95 10.992 111.838 11.104ZM112.02 8.444C112.02 8.28533 111.955 8.21067 111.824 8.22L110.9 8.304C110.471 8.32267 110.088 8.37867 109.752 8.472C109.416 8.556 109.132 8.668 108.898 8.808C108.665 8.948 108.488 9.116 108.366 9.312C108.245 9.49867 108.184 9.718 108.184 9.97C108.184 10.3807 108.324 10.7027 108.604 10.936C108.894 11.16 109.281 11.272 109.766 11.272C110.065 11.272 110.35 11.2207 110.62 11.118C110.9 11.006 111.143 10.866 111.348 10.698C111.563 10.5207 111.726 10.3387 111.838 10.152C111.96 9.96533 112.02 9.78333 112.02 9.606V8.444ZM115.434 12C115.369 12 115.317 11.986 115.28 11.958C115.252 11.9207 115.238 11.874 115.238 11.818V4.762C115.238 4.64067 115.289 4.58 115.392 4.58H116.204C116.307 4.58 116.358 4.63133 116.358 4.734V5.644C116.358 5.7 116.372 5.73267 116.4 5.742C116.428 5.75133 116.465 5.73267 116.512 5.686C116.755 5.39667 116.993 5.16333 117.226 4.986C117.469 4.79933 117.711 4.664 117.954 4.58C118.197 4.48667 118.439 4.44 118.682 4.44C119.009 4.44 119.172 4.50067 119.172 4.622V5.462C119.172 5.55533 119.13 5.59267 119.046 5.574C118.962 5.56467 118.864 5.55533 118.752 5.546C118.649 5.53667 118.537 5.532 118.416 5.532C118.211 5.532 117.991 5.57867 117.758 5.672C117.525 5.756 117.305 5.87733 117.1 6.036C116.904 6.19467 116.741 6.372 116.61 6.568C116.479 6.764 116.414 6.96 116.414 7.156V11.79C116.414 11.93 116.344 12 116.204 12H115.434ZM122.558 5.462C122.483 5.462 122.446 5.49933 122.446 5.574V10.012C122.446 10.4507 122.52 10.7447 122.67 10.894C122.819 11.0433 123.043 11.118 123.342 11.118H124.308C124.354 11.118 124.392 11.132 124.42 11.16C124.448 11.1787 124.462 11.216 124.462 11.272L124.448 11.748C124.448 11.8413 124.392 11.902 124.28 11.93C124.186 11.9487 124.051 11.9627 123.874 11.972C123.706 11.9813 123.538 11.9907 123.37 12C123.211 12 123.076 12 122.964 12C122.376 12 121.946 11.8647 121.676 11.594C121.405 11.314 121.27 10.8753 121.27 10.278V5.602C121.27 5.50867 121.223 5.462 121.13 5.462H120.01C119.907 5.462 119.856 5.41067 119.856 5.308V4.72C119.856 4.62667 119.902 4.58 119.996 4.58H121.186C121.251 4.58 121.284 4.54267 121.284 4.468L121.438 2.242C121.447 2.12067 121.498 2.06 121.592 2.06H122.292C122.404 2.06 122.46 2.12533 122.46 2.256V4.468C122.46 4.54267 122.497 4.58 122.572 4.58H124.336C124.438 4.58 124.49 4.622 124.49 4.706V5.308C124.49 5.41067 124.438 5.462 124.336 5.462H122.558ZM129.468 14.31C129.356 14.31 129.3 14.2493 129.3 14.128L129.286 0.309999C129.286 0.254 129.295 0.212 129.314 0.183999C129.342 0.155999 129.384 0.141999 129.44 0.141999H130.056C130.168 0.141999 130.224 0.197999 130.224 0.309999V14.156C130.224 14.2587 130.172 14.31 130.07 14.31H129.468ZM135.342 12C135.286 12 135.244 11.9813 135.216 11.944C135.198 11.8973 135.198 11.8367 135.216 11.762L138.842 1.808C138.87 1.74267 138.903 1.696 138.94 1.668C138.978 1.63067 139.038 1.612 139.122 1.612H140.214C140.382 1.612 140.49 1.682 140.536 1.822L144.12 11.762C144.139 11.818 144.134 11.874 144.106 11.93C144.088 11.9767 144.046 12 143.98 12H142.986C142.874 12 142.8 11.9533 142.762 11.86L141.796 9.144C141.778 9.10667 141.759 9.07867 141.74 9.06C141.722 9.04133 141.684 9.032 141.628 9.032H137.554C137.47 9.032 137.414 9.06933 137.386 9.144L136.392 11.874C136.383 11.9113 136.36 11.944 136.322 11.972C136.294 11.9907 136.248 12 136.182 12H135.342ZM141.264 7.968C141.376 7.968 141.414 7.90733 141.376 7.786L139.696 3.18C139.659 3.096 139.622 3.054 139.584 3.054C139.556 3.054 139.528 3.096 139.5 3.18L137.792 7.814C137.746 7.91667 137.774 7.968 137.876 7.968H141.264ZM147.012 11.762C147.012 11.8553 146.993 11.9207 146.956 11.958C146.919 11.986 146.853 12 146.76 12H146.032C145.892 12 145.822 11.9347 145.822 11.804L145.836 1.808C145.836 1.67733 145.892 1.612 146.004 1.612H146.844C146.956 1.612 147.012 1.67267 147.012 1.794V11.762ZM150.362 11.762C150.362 11.8553 150.343 11.9207 150.306 11.958C150.268 11.986 150.203 12 150.11 12H149.382C149.242 12 149.172 11.9347 149.172 11.804L149.186 1.808C149.186 1.67733 149.242 1.612 149.354 1.612H150.194C150.306 1.612 150.362 1.67267 150.362 1.794V11.762ZM163.216 11.734C163.244 11.7993 163.239 11.86 163.202 11.916C163.174 11.972 163.127 12 163.062 12H162.04C161.937 12 161.862 11.944 161.816 11.832L160.01 7.422C159.963 7.31933 159.851 7.268 159.674 7.268H157.308C157.242 7.268 157.196 7.282 157.168 7.31C157.149 7.338 157.14 7.37533 157.14 7.422V11.776C157.14 11.9253 157.06 12 156.902 12H155.992C155.917 12 155.866 11.986 155.838 11.958C155.81 11.9207 155.796 11.874 155.796 11.818V1.808C155.796 1.67733 155.852 1.612 155.964 1.612H159.87C160.971 1.612 161.825 1.84067 162.432 2.298C163.048 2.746 163.356 3.41333 163.356 4.3C163.356 4.832 163.253 5.28467 163.048 5.658C162.842 6.022 162.581 6.316 162.264 6.54C161.956 6.75467 161.638 6.91333 161.312 7.016C161.237 7.02533 161.218 7.072 161.256 7.156L163.216 11.734ZM159.478 6.288C160.299 6.288 160.915 6.13867 161.326 5.84C161.746 5.54133 161.956 5.07 161.956 4.426C161.956 3.80067 161.769 3.33867 161.396 3.04C161.032 2.74133 160.5 2.592 159.8 2.592H157.336C157.205 2.592 157.14 2.64333 157.14 2.746V6.106C157.14 6.22733 157.182 6.288 157.266 6.288H159.478ZM166.44 11.762C166.44 11.8553 166.421 11.9207 166.384 11.958C166.356 11.986 166.29 12 166.188 12H165.474C165.39 12 165.334 11.986 165.306 11.958C165.278 11.93 165.264 11.8787 165.264 11.804V4.776C165.264 4.64533 165.32 4.58 165.432 4.58H166.286C166.388 4.58 166.44 4.64067 166.44 4.762V11.762ZM166.496 2.984C166.496 3.16133 166.412 3.25 166.244 3.25H165.432C165.348 3.25 165.292 3.23133 165.264 3.194C165.236 3.14733 165.222 3.08667 165.222 3.012V1.836C165.222 1.68667 165.287 1.612 165.418 1.612H166.3C166.43 1.612 166.496 1.682 166.496 1.822V2.984ZM175.319 4.454C175.412 4.454 175.478 4.47267 175.515 4.51C175.562 4.54733 175.585 4.60333 175.585 4.678V5.168C175.585 5.252 175.562 5.31733 175.515 5.364C175.478 5.41067 175.408 5.42933 175.305 5.42C175.156 5.42 175.025 5.42933 174.913 5.448C174.801 5.46667 174.689 5.49933 174.577 5.546C174.353 5.63 174.26 5.73733 174.297 5.868C174.344 5.97067 174.395 6.09667 174.451 6.246C174.507 6.386 174.535 6.57733 174.535 6.82C174.535 7.23067 174.428 7.60867 174.213 7.954C173.998 8.29 173.662 8.56067 173.205 8.766C172.757 8.97133 172.188 9.074 171.497 9.074C171.021 9.074 170.648 9.102 170.377 9.158C170.106 9.214 169.915 9.28867 169.803 9.382C169.691 9.47533 169.635 9.57333 169.635 9.676C169.635 9.82533 169.733 9.93267 169.929 9.998C170.134 10.0633 170.461 10.11 170.909 10.138L172.715 10.236C173.536 10.2827 174.138 10.4787 174.521 10.824C174.904 11.1693 175.095 11.622 175.095 12.182C175.095 12.882 174.782 13.4327 174.157 13.834C173.541 14.2447 172.659 14.45 171.511 14.45C170.326 14.45 169.42 14.2773 168.795 13.932C168.179 13.596 167.871 13.1107 167.871 12.476C167.871 12.1493 167.983 11.8553 168.207 11.594C168.44 11.3327 168.767 11.0993 169.187 10.894C169.29 10.8473 169.29 10.796 169.187 10.74C168.982 10.6467 168.823 10.5347 168.711 10.404C168.599 10.264 168.543 10.1007 168.543 9.914C168.543 9.78333 168.585 9.65267 168.669 9.522C168.753 9.39133 168.874 9.27 169.033 9.158C169.201 9.046 169.402 8.948 169.635 8.864C169.691 8.84533 169.719 8.822 169.719 8.794C169.719 8.766 169.696 8.73333 169.649 8.696C169.238 8.49067 168.935 8.234 168.739 7.926C168.543 7.618 168.445 7.24933 168.445 6.82C168.445 6.092 168.72 5.518 169.271 5.098C169.822 4.678 170.601 4.468 171.609 4.468C172.094 4.468 172.505 4.524 172.841 4.636C173.186 4.748 173.476 4.902 173.709 5.098C173.765 5.14467 173.816 5.168 173.863 5.168C173.91 5.168 173.956 5.14467 174.003 5.098C174.115 4.99533 174.241 4.89733 174.381 4.804C174.521 4.70133 174.67 4.61733 174.829 4.552C174.997 4.48667 175.16 4.454 175.319 4.454ZM171.497 8.332C172.15 8.332 172.636 8.20133 172.953 7.94C173.27 7.66933 173.429 7.29133 173.429 6.806C173.429 6.31133 173.27 5.924 172.953 5.644C172.636 5.35467 172.15 5.21 171.497 5.21C170.872 5.21 170.386 5.35467 170.041 5.644C169.705 5.924 169.537 6.31133 169.537 6.806C169.537 7.29133 169.705 7.66933 170.041 7.94C170.386 8.20133 170.872 8.332 171.497 8.332ZM170.265 11.09C170.097 11.0807 169.91 11.132 169.705 11.244C169.5 11.3467 169.318 11.4913 169.159 11.678C169 11.8647 168.921 12.084 168.921 12.336C168.921 12.6253 169.019 12.8727 169.215 13.078C169.42 13.2927 169.724 13.4513 170.125 13.554C170.536 13.666 171.04 13.722 171.637 13.722C172.412 13.722 173 13.6053 173.401 13.372C173.802 13.148 174.003 12.798 174.003 12.322C174.003 12.014 173.896 11.762 173.681 11.566C173.476 11.37 173.116 11.258 172.603 11.23L170.265 11.09ZM177.231 12C177.11 12 177.049 11.9393 177.049 11.818V1.794C177.049 1.67267 177.1 1.612 177.203 1.612H178.029C178.132 1.612 178.183 1.668 178.183 1.78V5.518C178.183 5.56467 178.192 5.59267 178.211 5.602C178.23 5.61133 178.262 5.59733 178.309 5.56C178.636 5.308 178.934 5.098 179.205 4.93C179.485 4.762 179.756 4.64067 180.017 4.566C180.288 4.482 180.582 4.44 180.899 4.44C181.627 4.44 182.182 4.636 182.565 5.028C182.948 5.41067 183.139 5.924 183.139 6.568V11.776C183.139 11.9253 183.069 12 182.929 12H182.145C182.08 12 182.033 11.986 182.005 11.958C181.977 11.9207 181.963 11.874 181.963 11.818V6.82C181.963 6.36267 181.846 6.008 181.613 5.756C181.38 5.49467 181.011 5.364 180.507 5.364C180.236 5.364 179.98 5.41067 179.737 5.504C179.504 5.588 179.266 5.714 179.023 5.882C178.78 6.04067 178.514 6.246 178.225 6.498V11.79C178.225 11.93 178.15 12 178.001 12H177.231ZM186.993 5.462C186.918 5.462 186.881 5.49933 186.881 5.574V10.012C186.881 10.4507 186.956 10.7447 187.105 10.894C187.254 11.0433 187.478 11.118 187.777 11.118H188.743C188.79 11.118 188.827 11.132 188.855 11.16C188.883 11.1787 188.897 11.216 188.897 11.272L188.883 11.748C188.883 11.8413 188.827 11.902 188.715 11.93C188.622 11.9487 188.486 11.9627 188.309 11.972C188.141 11.9813 187.973 11.9907 187.805 12C187.646 12 187.511 12 187.399 12C186.811 12 186.382 11.8647 186.111 11.594C185.84 11.314 185.705 10.8753 185.705 10.278V5.602C185.705 5.50867 185.658 5.462 185.565 5.462H184.445C184.342 5.462 184.291 5.41067 184.291 5.308V4.72C184.291 4.62667 184.338 4.58 184.431 4.58H185.621C185.686 4.58 185.719 4.54267 185.719 4.468L185.873 2.242C185.882 2.12067 185.934 2.06 186.027 2.06H186.727C186.839 2.06 186.895 2.12533 186.895 2.256V4.468C186.895 4.54267 186.932 4.58 187.007 4.58H188.771C188.874 4.58 188.925 4.622 188.925 4.706V5.308C188.925 5.41067 188.874 5.462 188.771 5.462H186.993ZM194.899 6.218C194.712 5.938 194.451 5.70933 194.115 5.532C193.779 5.35467 193.378 5.266 192.911 5.266C192.407 5.266 191.987 5.37333 191.651 5.588C191.324 5.80267 191.161 6.092 191.161 6.456C191.161 6.652 191.236 6.83867 191.385 7.016C191.534 7.184 191.838 7.34267 192.295 7.492L194.073 8.024C194.717 8.20133 195.179 8.458 195.459 8.794C195.748 9.13 195.893 9.51733 195.893 9.956C195.893 10.3947 195.762 10.7773 195.501 11.104C195.24 11.4307 194.88 11.6873 194.423 11.874C193.966 12.0513 193.448 12.14 192.869 12.14C192.132 12.14 191.488 11.9953 190.937 11.706C190.386 11.4073 189.994 11.0387 189.761 10.6C189.733 10.5533 189.719 10.5113 189.719 10.474C189.719 10.4367 189.742 10.404 189.789 10.376L190.335 10.068C190.382 10.04 190.424 10.0307 190.461 10.04C190.498 10.04 190.526 10.054 190.545 10.082C190.704 10.3247 190.886 10.5347 191.091 10.712C191.306 10.8893 191.558 11.0293 191.847 11.132C192.146 11.2347 192.491 11.286 192.883 11.286C193.238 11.2767 193.56 11.2253 193.849 11.132C194.138 11.0387 194.367 10.9033 194.535 10.726C194.703 10.5393 194.787 10.3247 194.787 10.082C194.787 9.83 194.684 9.61533 194.479 9.438C194.274 9.25133 193.919 9.088 193.415 8.948L191.973 8.542C191.273 8.35533 190.778 8.10333 190.489 7.786C190.209 7.46867 190.064 7.09533 190.055 6.666C190.055 6.218 190.176 5.83067 190.419 5.504C190.662 5.168 190.998 4.90667 191.427 4.72C191.866 4.53333 192.365 4.44 192.925 4.44C193.55 4.44 194.106 4.56133 194.591 4.804C195.086 5.03733 195.459 5.35 195.711 5.742C195.739 5.77933 195.753 5.81667 195.753 5.854C195.753 5.882 195.734 5.91 195.697 5.938L195.109 6.26C195.072 6.27867 195.034 6.288 194.997 6.288C194.969 6.27867 194.936 6.25533 194.899 6.218ZM208.305 11.734C208.333 11.7993 208.329 11.86 208.291 11.916C208.263 11.972 208.217 12 208.151 12H207.129C207.027 12 206.952 11.944 206.905 11.832L205.099 7.422C205.053 7.31933 204.941 7.268 204.763 7.268H202.397C202.332 7.268 202.285 7.282 202.257 7.31C202.239 7.338 202.229 7.37533 202.229 7.422V11.776C202.229 11.9253 202.15 12 201.991 12H201.081C201.007 12 200.955 11.986 200.927 11.958C200.899 11.9207 200.885 11.874 200.885 11.818V1.808C200.885 1.67733 200.941 1.612 201.053 1.612H204.959C206.061 1.612 206.915 1.84067 207.521 2.298C208.137 2.746 208.445 3.41333 208.445 4.3C208.445 4.832 208.343 5.28467 208.137 5.658C207.932 6.022 207.671 6.316 207.353 6.54C207.045 6.75467 206.728 6.91333 206.401 7.016C206.327 7.02533 206.308 7.072 206.345 7.156L208.305 11.734ZM204.567 6.288C205.389 6.288 206.005 6.13867 206.415 5.84C206.835 5.54133 207.045 5.07 207.045 4.426C207.045 3.80067 206.859 3.33867 206.485 3.04C206.121 2.74133 205.589 2.592 204.889 2.592H202.425C202.295 2.592 202.229 2.64333 202.229 2.746V6.106C202.229 6.22733 202.271 6.288 202.355 6.288H204.567ZM210.618 8.752C210.618 9.20933 210.725 9.62933 210.94 10.012C211.164 10.3853 211.458 10.684 211.822 10.908C212.195 11.132 212.611 11.244 213.068 11.244C213.535 11.244 213.95 11.1507 214.314 10.964C214.678 10.768 214.991 10.474 215.252 10.082C215.289 10.0447 215.317 10.026 215.336 10.026C215.364 10.0167 215.401 10.0213 215.448 10.04L216.036 10.334C216.12 10.3807 216.129 10.446 216.064 10.53C215.812 10.9033 215.532 11.2113 215.224 11.454C214.925 11.6873 214.589 11.86 214.216 11.972C213.843 12.084 213.423 12.14 212.956 12.14C212.265 12.14 211.654 11.9813 211.122 11.664C210.59 11.3467 210.17 10.9033 209.862 10.334C209.554 9.76467 209.4 9.10667 209.4 8.36C209.4 7.548 209.554 6.85267 209.862 6.274C210.179 5.686 210.604 5.23333 211.136 4.916C211.677 4.59867 212.279 4.44 212.942 4.44C213.623 4.44 214.216 4.58933 214.72 4.888C215.224 5.18667 215.616 5.62067 215.896 6.19C216.176 6.75933 216.316 7.44533 216.316 8.248C216.316 8.31333 216.307 8.37867 216.288 8.444C216.279 8.50933 216.218 8.542 216.106 8.542H210.744C210.707 8.542 210.674 8.56533 210.646 8.612C210.627 8.64933 210.618 8.696 210.618 8.752ZM214.902 7.772C215.005 7.772 215.07 7.76267 215.098 7.744C215.126 7.716 215.14 7.66 215.14 7.576C215.14 7.17467 215.051 6.80133 214.874 6.456C214.706 6.10133 214.459 5.81667 214.132 5.602C213.815 5.38733 213.427 5.28 212.97 5.28C212.466 5.28 212.041 5.40133 211.696 5.644C211.351 5.87733 211.089 6.18533 210.912 6.568C210.735 6.95067 210.646 7.352 210.646 7.772H214.902ZM222.421 6.218C222.234 5.938 221.973 5.70933 221.637 5.532C221.301 5.35467 220.899 5.266 220.433 5.266C219.929 5.266 219.509 5.37333 219.173 5.588C218.846 5.80267 218.683 6.092 218.683 6.456C218.683 6.652 218.757 6.83867 218.907 7.016C219.056 7.184 219.359 7.34267 219.817 7.492L221.595 8.024C222.239 8.20133 222.701 8.458 222.981 8.794C223.27 9.13 223.415 9.51733 223.415 9.956C223.415 10.3947 223.284 10.7773 223.023 11.104C222.761 11.4307 222.402 11.6873 221.945 11.874C221.487 12.0513 220.969 12.14 220.391 12.14C219.653 12.14 219.009 11.9953 218.459 11.706C217.908 11.4073 217.516 11.0387 217.283 10.6C217.255 10.5533 217.241 10.5113 217.241 10.474C217.241 10.4367 217.264 10.404 217.311 10.376L217.857 10.068C217.903 10.04 217.945 10.0307 217.983 10.04C218.02 10.04 218.048 10.054 218.067 10.082C218.225 10.3247 218.407 10.5347 218.613 10.712C218.827 10.8893 219.079 11.0293 219.369 11.132C219.667 11.2347 220.013 11.286 220.405 11.286C220.759 11.2767 221.081 11.2253 221.371 11.132C221.66 11.0387 221.889 10.9033 222.057 10.726C222.225 10.5393 222.309 10.3247 222.309 10.082C222.309 9.83 222.206 9.61533 222.001 9.438C221.795 9.25133 221.441 9.088 220.937 8.948L219.495 8.542C218.795 8.35533 218.3 8.10333 218.011 7.786C217.731 7.46867 217.586 7.09533 217.577 6.666C217.577 6.218 217.698 5.83067 217.941 5.504C218.183 5.168 218.519 4.90667 218.949 4.72C219.387 4.53333 219.887 4.44 220.447 4.44C221.072 4.44 221.627 4.56133 222.113 4.804C222.607 5.03733 222.981 5.35 223.233 5.742C223.261 5.77933 223.275 5.81667 223.275 5.854C223.275 5.882 223.256 5.91 223.219 5.938L222.631 6.26C222.593 6.27867 222.556 6.288 222.519 6.288C222.491 6.27867 222.458 6.25533 222.421 6.218ZM225.917 8.752C225.917 9.20933 226.024 9.62933 226.239 10.012C226.463 10.3853 226.757 10.684 227.121 10.908C227.494 11.132 227.909 11.244 228.367 11.244C228.833 11.244 229.249 11.1507 229.613 10.964C229.977 10.768 230.289 10.474 230.551 10.082C230.588 10.0447 230.616 10.026 230.635 10.026C230.663 10.0167 230.7 10.0213 230.747 10.04L231.335 10.334C231.419 10.3807 231.428 10.446 231.363 10.53C231.111 10.9033 230.831 11.2113 230.523 11.454C230.224 11.6873 229.888 11.86 229.515 11.972C229.141 12.084 228.721 12.14 228.255 12.14C227.564 12.14 226.953 11.9813 226.421 11.664C225.889 11.3467 225.469 10.9033 225.161 10.334C224.853 9.76467 224.699 9.10667 224.699 8.36C224.699 7.548 224.853 6.85267 225.161 6.274C225.478 5.686 225.903 5.23333 226.435 4.916C226.976 4.59867 227.578 4.44 228.241 4.44C228.922 4.44 229.515 4.58933 230.019 4.888C230.523 5.18667 230.915 5.62067 231.195 6.19C231.475 6.75933 231.615 7.44533 231.615 8.248C231.615 8.31333 231.605 8.37867 231.587 8.444C231.577 8.50933 231.517 8.542 231.405 8.542H226.043C226.005 8.542 225.973 8.56533 225.945 8.612C225.926 8.64933 225.917 8.696 225.917 8.752ZM230.201 7.772C230.303 7.772 230.369 7.76267 230.397 7.744C230.425 7.716 230.439 7.66 230.439 7.576C230.439 7.17467 230.35 6.80133 230.173 6.456C230.005 6.10133 229.757 5.81667 229.431 5.602C229.113 5.38733 228.726 5.28 228.269 5.28C227.765 5.28 227.34 5.40133 226.995 5.644C226.649 5.87733 226.388 6.18533 226.211 6.568C226.033 6.95067 225.945 7.352 225.945 7.772H230.201ZM237.537 11.104C237.192 11.44 236.814 11.6967 236.403 11.874C236.002 12.0513 235.549 12.14 235.045 12.14C234.317 12.14 233.743 11.9533 233.323 11.58C232.913 11.2067 232.707 10.7167 232.707 10.11C232.707 9.61533 232.847 9.19067 233.127 8.836C233.407 8.472 233.823 8.18733 234.373 7.982C234.924 7.76733 235.601 7.63667 236.403 7.59L237.495 7.506C237.551 7.49667 237.603 7.478 237.649 7.45C237.696 7.422 237.719 7.37067 237.719 7.296V6.918C237.719 6.414 237.561 6.01733 237.243 5.728C236.935 5.42933 236.515 5.28 235.983 5.28C235.573 5.28 235.199 5.37333 234.863 5.56C234.537 5.74667 234.243 6.02667 233.981 6.4C233.944 6.44667 233.911 6.47933 233.883 6.498C233.865 6.50733 233.827 6.50267 233.771 6.484L233.015 6.232C232.987 6.21333 232.964 6.19 232.945 6.162C232.936 6.134 232.95 6.08267 232.987 6.008C233.267 5.52267 233.659 5.14 234.163 4.86C234.677 4.58 235.302 4.44 236.039 4.44C236.665 4.44 237.183 4.538 237.593 4.734C238.013 4.92067 238.326 5.196 238.531 5.56C238.746 5.91467 238.853 6.33933 238.853 6.834V11.79C238.853 11.874 238.839 11.93 238.811 11.958C238.783 11.986 238.737 12 238.671 12H237.957C237.892 12 237.845 11.9813 237.817 11.944C237.789 11.8973 237.771 11.8413 237.761 11.776L237.747 11.132C237.719 11.0013 237.649 10.992 237.537 11.104ZM237.719 8.444C237.719 8.28533 237.654 8.21067 237.523 8.22L236.599 8.304C236.17 8.32267 235.787 8.37867 235.451 8.472C235.115 8.556 234.831 8.668 234.597 8.808C234.364 8.948 234.187 9.116 234.065 9.312C233.944 9.49867 233.883 9.718 233.883 9.97C233.883 10.3807 234.023 10.7027 234.303 10.936C234.593 11.16 234.98 11.272 235.465 11.272C235.764 11.272 236.049 11.2207 236.319 11.118C236.599 11.006 236.842 10.866 237.047 10.698C237.262 10.5207 237.425 10.3387 237.537 10.152C237.659 9.96533 237.719 9.78333 237.719 9.606V8.444ZM241.133 12C241.068 12 241.017 11.986 240.979 11.958C240.951 11.9207 240.937 11.874 240.937 11.818V4.762C240.937 4.64067 240.989 4.58 241.091 4.58H241.903C242.006 4.58 242.057 4.63133 242.057 4.734V5.644C242.057 5.7 242.071 5.73267 242.099 5.742C242.127 5.75133 242.165 5.73267 242.211 5.686C242.454 5.39667 242.692 5.16333 242.925 4.986C243.168 4.79933 243.411 4.664 243.653 4.58C243.896 4.48667 244.139 4.44 244.381 4.44C244.708 4.44 244.871 4.50067 244.871 4.622V5.462C244.871 5.55533 244.829 5.59267 244.745 5.574C244.661 5.56467 244.563 5.55533 244.451 5.546C244.349 5.53667 244.237 5.532 244.115 5.532C243.91 5.532 243.691 5.57867 243.457 5.672C243.224 5.756 243.005 5.87733 242.799 6.036C242.603 6.19467 242.44 6.372 242.309 6.568C242.179 6.764 242.113 6.96 242.113 7.156V11.79C242.113 11.93 242.043 12 241.903 12H241.133ZM252.331 4.58C252.396 4.58 252.443 4.60333 252.471 4.65C252.499 4.68733 252.499 4.734 252.471 4.79L249.629 11.79C249.582 11.93 249.475 12 249.307 12H248.803C248.625 12 248.509 11.9347 248.453 11.804L245.625 4.79C245.606 4.734 245.611 4.68733 245.639 4.65C245.667 4.60333 245.713 4.58 245.779 4.58H246.647C246.703 4.58 246.749 4.594 246.787 4.622C246.824 4.64067 246.852 4.678 246.871 4.734L249.069 10.236C249.134 10.4133 249.209 10.4087 249.293 10.222L251.477 4.734C251.495 4.678 251.519 4.64067 251.547 4.622C251.584 4.594 251.631 4.58 251.687 4.58H252.331ZM254.382 8.752C254.382 9.20933 254.489 9.62933 254.704 10.012C254.928 10.3853 255.222 10.684 255.586 10.908C255.959 11.132 256.374 11.244 256.832 11.244C257.298 11.244 257.714 11.1507 258.078 10.964C258.442 10.768 258.754 10.474 259.016 10.082C259.053 10.0447 259.081 10.026 259.1 10.026C259.128 10.0167 259.165 10.0213 259.212 10.04L259.8 10.334C259.884 10.3807 259.893 10.446 259.828 10.53C259.576 10.9033 259.296 11.2113 258.988 11.454C258.689 11.6873 258.353 11.86 257.98 11.972C257.606 12.084 257.186 12.14 256.72 12.14C256.029 12.14 255.418 11.9813 254.886 11.664C254.354 11.3467 253.934 10.9033 253.626 10.334C253.318 9.76467 253.164 9.10667 253.164 8.36C253.164 7.548 253.318 6.85267 253.626 6.274C253.943 5.686 254.368 5.23333 254.9 4.916C255.441 4.59867 256.043 4.44 256.706 4.44C257.387 4.44 257.98 4.58933 258.484 4.888C258.988 5.18667 259.38 5.62067 259.66 6.19C259.94 6.75933 260.08 7.44533 260.08 8.248C260.08 8.31333 260.07 8.37867 260.052 8.444C260.042 8.50933 259.982 8.542 259.87 8.542H254.508C254.47 8.542 254.438 8.56533 254.41 8.612C254.391 8.64933 254.382 8.696 254.382 8.752ZM258.666 7.772C258.768 7.772 258.834 7.76267 258.862 7.744C258.89 7.716 258.904 7.66 258.904 7.576C258.904 7.17467 258.815 6.80133 258.638 6.456C258.47 6.10133 258.222 5.81667 257.896 5.602C257.578 5.38733 257.191 5.28 256.734 5.28C256.23 5.28 255.805 5.40133 255.46 5.644C255.114 5.87733 254.853 6.18533 254.676 6.568C254.498 6.95067 254.41 7.352 254.41 7.772H258.666ZM267.01 12C266.945 12 266.894 11.986 266.856 11.958C266.828 11.9207 266.814 11.8693 266.814 11.804V11.216C266.814 11.1413 266.796 11.0993 266.758 11.09C266.73 11.0807 266.688 11.104 266.632 11.16C266.53 11.2533 266.38 11.3793 266.184 11.538C265.998 11.6967 265.76 11.8367 265.47 11.958C265.181 12.0793 264.836 12.14 264.434 12.14C263.846 12.14 263.319 12 262.852 11.72C262.386 11.44 262.012 11.0247 261.732 10.474C261.462 9.914 261.326 9.22333 261.326 8.402C261.326 7.60867 261.462 6.918 261.732 6.33C262.012 5.73267 262.4 5.27067 262.894 4.944C263.398 4.608 263.968 4.44 264.602 4.44C265.06 4.44 265.442 4.51467 265.75 4.664C266.058 4.81333 266.329 4.986 266.562 5.182C266.646 5.24733 266.702 5.27533 266.73 5.266C266.768 5.24733 266.786 5.18667 266.786 5.084V1.794C266.786 1.67267 266.838 1.612 266.94 1.612H267.794C267.897 1.612 267.948 1.67267 267.948 1.794V11.776C267.948 11.86 267.934 11.9207 267.906 11.958C267.878 11.986 267.818 12 267.724 12H267.01ZM266.772 6.218C266.483 5.92867 266.189 5.70467 265.89 5.546C265.592 5.38733 265.256 5.308 264.882 5.308C264.434 5.308 264.028 5.42467 263.664 5.658C263.31 5.882 263.03 6.22267 262.824 6.68C262.628 7.13733 262.53 7.69733 262.53 8.36C262.53 9.04133 262.633 9.60133 262.838 10.04C263.044 10.4693 263.319 10.7867 263.664 10.992C264.01 11.188 264.388 11.286 264.798 11.286C265.181 11.286 265.517 11.1973 265.806 11.02C266.105 10.8427 266.338 10.6233 266.506 10.362C266.684 10.1007 266.772 9.844 266.772 9.592V6.218Z" fill="white"/>
</svg>
