<svg width="612" height="446" viewBox="0 0 612 446" fill="none" xmlns="http://www.w3.org/2000/svg">
<g clip-path="url(#clip0_368_616)">
<path d="M483.276 37.326C482.588 36.9347 481.893 36.5636 481.205 36.1857C461.323 25.3332 440.013 16.5168 417.715 9.91852L412.544 70.7926H379.768V1.03233C377.704 0.667981 375.625 0.32387 373.546 0V70.7926H334.595C313.152 70.7926 292.587 63.5225 277.425 50.5816C262.262 37.6408 253.744 20.0892 253.744 1.78811V1.78804C251.657 2.17263 249.586 2.58422 247.514 3.02279V70.7926H215.789L210.864 12.7456C187.949 20.2461 166.195 30.1096 146.085 42.1166C145.737 42.319 145.389 42.5282 145.049 42.7306C143.302 43.7764 141.579 44.8425 139.863 45.9221V278.157H233.363L231.711 258.624L222.619 151.376H405.706L396.615 258.624L394.962 278.157H487.427V39.6741C486.051 38.8779 484.668 38.0952 483.276 37.326ZM247.514 133.664H221.117L216.24 76.1094H247.514V133.664ZM373.546 133.664H329.211V132.524C329.211 131.975 329.085 131.433 328.839 130.926C328.593 130.42 328.232 129.96 327.777 129.573C327.323 129.185 326.783 128.878 326.19 128.669C325.596 128.46 324.96 128.353 324.318 128.354H305.044C304.402 128.353 303.767 128.461 303.174 128.671C302.581 128.88 302.042 129.187 301.588 129.575C301.135 129.962 300.775 130.422 300.529 130.928C300.284 131.434 300.158 131.976 300.158 132.524V133.664H253.744V76.1094H373.546V133.664ZM379.768 133.664V76.1094H412.094L407.216 133.664H379.768Z" fill="#F2F2F2"/>
<path d="M584.819 422.076L585.437 410.217C591.879 407.278 599.064 405.726 606.369 405.695C596.315 412.71 597.572 426.232 590.756 435.666C588.604 438.594 585.707 441.071 582.28 442.914C578.854 444.757 574.985 445.919 570.961 446.312L562.548 450.708C561.394 445.216 561.649 439.575 563.295 434.174C564.94 428.774 567.939 423.742 572.082 419.425C574.435 417.023 577.133 414.884 580.112 413.058C582.127 417.592 584.819 422.076 584.819 422.076Z" fill="#F2F2F2"/>
<path d="M133.446 409.081L113.144 403.835C110.481 394.602 110.499 384.955 113.197 375.729C121.557 391.052 145.446 394.56 159.213 406.71C163.473 410.528 166.672 415.115 168.572 420.131C170.473 425.147 171.027 430.464 170.192 435.687L174.636 447.954C164.691 447.342 155.019 444.896 146.287 440.786C137.556 436.676 129.972 430.999 124.058 424.147C120.786 420.275 118.097 416.066 116.057 411.62C124.667 410.787 133.446 409.081 133.446 409.081Z" fill="#F2F2F2"/>
<path d="M569.022 448.769C569.019 449.128 568.851 449.472 568.555 449.727C568.409 449.852 568.235 449.95 568.044 450.018C567.852 450.085 567.648 450.119 567.441 450.118H561.085C560.877 450.119 560.671 450.085 560.479 450.017C560.286 449.949 560.112 449.85 559.965 449.724C559.818 449.599 559.701 449.45 559.622 449.286C559.543 449.122 559.503 448.946 559.503 448.769V284.715C559.503 281.099 558.08 278.164 556.333 278.157H80.0266C78.2715 278.164 76.8564 281.099 76.8485 284.715V447.764C76.8472 448.099 76.7002 448.422 76.4358 448.67C76.1714 448.918 75.8086 449.074 75.4176 449.106C74.1369 449.214 72.8562 449.309 71.5834 449.396C71.5518 449.396 71.5201 449.403 71.4885 449.403C70.7928 449.457 70.0971 449.498 69.4014 449.545H69.3935C69.0299 448.985 68.682 448.411 68.3263 447.838C68.2122 447.643 68.1527 447.428 68.1523 447.21V276.207C68.1523 275.208 68.1998 274.203 68.2788 273.211C68.3916 271.849 68.5896 270.493 68.8718 269.149C70.2078 262.881 73.2278 258.637 76.6588 258.624H559.693C560.194 258.626 560.689 258.716 561.148 258.887C561.822 259.141 562.432 259.506 562.942 259.959C563.636 260.575 564.229 261.267 564.705 262.017C566.397 264.561 567.607 268.353 568.034 272.766C568.034 272.806 568.041 272.847 568.041 272.887C568.152 273.98 568.208 275.094 568.2 276.207L568.31 290.666L568.381 299.289L568.595 326.346L568.674 335.954L569.022 448.769Z" fill="#E6E6E6"/>
<path d="M340.471 210.692H301.862C301.315 210.693 300.792 210.878 300.406 211.208C300.02 211.539 299.804 211.986 299.805 212.452V264.507H342.534V212.452C342.534 212.221 342.48 211.992 342.377 211.778C342.273 211.565 342.121 211.371 341.93 211.207C341.738 211.044 341.511 210.914 341.261 210.826C341.01 210.737 340.742 210.692 340.471 210.692ZM321.296 240.269C320.089 240.264 318.932 239.853 318.079 239.124C317.225 238.395 316.743 237.408 316.737 236.378V230.374C316.737 229.342 317.218 228.352 318.073 227.622C318.928 226.893 320.087 226.483 321.296 226.483C322.506 226.483 323.665 226.893 324.52 227.622C325.375 228.352 325.856 229.342 325.856 230.374V236.378C325.85 237.408 325.368 238.395 324.514 239.124C323.66 239.853 322.504 240.264 321.296 240.269V240.269Z" fill="#2F2E41"/>
<path d="M404.404 129.454H239.363C237.945 129.456 236.586 129.937 235.583 130.793C234.58 131.649 234.016 132.809 234.014 134.019V229.071C234.015 230.282 234.579 231.442 235.582 232.298C236.585 233.154 237.944 233.635 239.363 233.637H404.404C405.822 233.635 407.182 233.154 408.185 232.298C409.188 231.442 409.752 230.282 409.753 229.071V134.019C409.751 132.809 409.187 131.649 408.184 130.793C407.181 129.937 405.822 129.456 404.404 129.454V129.454Z" fill="#3F3D56"/>
<path d="M403.024 132.75H240.74C239.98 132.751 239.253 133.01 238.717 133.468C238.18 133.927 237.879 134.549 237.879 135.197V227.893C237.88 228.54 238.182 229.161 238.718 229.618C239.254 230.076 239.981 230.333 240.74 230.335H403.024C403.783 230.333 404.51 230.076 405.046 229.618C405.582 229.161 405.884 228.54 405.885 227.893V135.197C405.885 134.549 405.584 133.927 405.048 133.468C404.511 133.01 403.784 132.751 403.024 132.75V132.75Z" fill="white"/>
<path d="M299.672 262.842V267.865C299.673 268.125 299.794 268.374 300.009 268.558C300.225 268.742 300.517 268.846 300.822 268.846H341.515C341.82 268.845 342.112 268.741 342.327 268.557C342.543 268.374 342.664 268.125 342.666 267.865V262.842H299.672Z" fill="#3F3D56"/>
<path d="M371.417 270.594H274.866C274.602 270.594 274.341 270.543 274.102 270.446C273.864 270.349 273.653 270.208 273.487 270.033C273.32 269.858 273.202 269.653 273.14 269.434C273.077 269.215 273.074 268.986 273.128 268.766L274.626 262.693C274.711 262.353 274.93 262.048 275.246 261.83C275.562 261.611 275.957 261.491 276.364 261.489H369.919C370.326 261.491 370.72 261.611 371.036 261.83C371.352 262.048 371.571 262.353 371.656 262.693L373.155 268.766C373.209 268.986 373.205 269.215 373.143 269.434C373.081 269.653 372.962 269.858 372.796 270.033C372.629 270.208 372.419 270.349 372.18 270.446C371.942 270.543 371.681 270.594 371.417 270.594V270.594Z" fill="#2F2E41"/>
<path d="M279.637 262.583H277.435C277.222 262.583 277.049 262.73 277.049 262.912V263.776C277.049 263.958 277.222 264.106 277.435 264.106H279.637C279.85 264.106 280.023 263.958 280.023 263.776V262.912C280.023 262.73 279.85 262.583 279.637 262.583Z" fill="#3F3D56"/>
<path d="M285.584 262.583H283.382C283.169 262.583 282.996 262.73 282.996 262.912V263.776C282.996 263.958 283.169 264.106 283.382 264.106H285.584C285.797 264.106 285.97 263.958 285.97 263.776V262.912C285.97 262.73 285.797 262.583 285.584 262.583Z" fill="#3F3D56"/>
<path d="M291.531 262.583H289.329C289.116 262.583 288.943 262.73 288.943 262.912V263.776C288.943 263.958 289.116 264.106 289.329 264.106H291.531C291.744 264.106 291.917 263.958 291.917 263.776V262.912C291.917 262.73 291.744 262.583 291.531 262.583Z" fill="#3F3D56"/>
<path d="M297.478 262.583H295.277C295.063 262.583 294.891 262.73 294.891 262.912V263.776C294.891 263.958 295.063 264.106 295.277 264.106H297.478C297.691 264.106 297.864 263.958 297.864 263.776V262.912C297.864 262.73 297.691 262.583 297.478 262.583Z" fill="#3F3D56"/>
<path d="M303.428 262.583H301.226C301.013 262.583 300.84 262.73 300.84 262.912V263.776C300.84 263.958 301.013 264.106 301.226 264.106H303.428C303.641 264.106 303.814 263.958 303.814 263.776V262.912C303.814 262.73 303.641 262.583 303.428 262.583Z" fill="#3F3D56"/>
<path d="M309.375 262.583H307.173C306.96 262.583 306.787 262.73 306.787 262.912V263.776C306.787 263.958 306.96 264.106 307.173 264.106H309.375C309.588 264.106 309.761 263.958 309.761 263.776V262.912C309.761 262.73 309.588 262.583 309.375 262.583Z" fill="#3F3D56"/>
<path d="M315.322 262.583H313.12C312.907 262.583 312.734 262.73 312.734 262.912V263.776C312.734 263.958 312.907 264.106 313.12 264.106H315.322C315.535 264.106 315.708 263.958 315.708 263.776V262.912C315.708 262.73 315.535 262.583 315.322 262.583Z" fill="#3F3D56"/>
<path d="M321.269 262.583H319.068C318.854 262.583 318.682 262.73 318.682 262.912V263.776C318.682 263.958 318.854 264.106 319.068 264.106H321.269C321.483 264.106 321.655 263.958 321.655 263.776V262.912C321.655 262.73 321.483 262.583 321.269 262.583Z" fill="#3F3D56"/>
<path d="M327.217 262.583H325.015C324.802 262.583 324.629 262.73 324.629 262.912V263.776C324.629 263.958 324.802 264.106 325.015 264.106H327.217C327.43 264.106 327.603 263.958 327.603 263.776V262.912C327.603 262.73 327.43 262.583 327.217 262.583Z" fill="#3F3D56"/>
<path d="M333.164 262.583H330.962C330.749 262.583 330.576 262.73 330.576 262.912V263.776C330.576 263.958 330.749 264.106 330.962 264.106H333.164C333.377 264.106 333.55 263.958 333.55 263.776V262.912C333.55 262.73 333.377 262.583 333.164 262.583Z" fill="#3F3D56"/>
<path d="M339.111 262.583H336.909C336.696 262.583 336.523 262.73 336.523 262.912V263.776C336.523 263.958 336.696 264.106 336.909 264.106H339.111C339.324 264.106 339.497 263.958 339.497 263.776V262.912C339.497 262.73 339.324 262.583 339.111 262.583Z" fill="#3F3D56"/>
<path d="M345.058 262.583H342.857C342.643 262.583 342.471 262.73 342.471 262.912V263.776C342.471 263.958 342.643 264.106 342.857 264.106H345.058C345.272 264.106 345.444 263.958 345.444 263.776V262.912C345.444 262.73 345.272 262.583 345.058 262.583Z" fill="#3F3D56"/>
<path d="M351.006 262.583H348.804C348.591 262.583 348.418 262.73 348.418 262.912V263.776C348.418 263.958 348.591 264.106 348.804 264.106H351.006C351.219 264.106 351.392 263.958 351.392 263.776V262.912C351.392 262.73 351.219 262.583 351.006 262.583Z" fill="#3F3D56"/>
<path d="M356.953 262.583H354.751C354.538 262.583 354.365 262.73 354.365 262.912V263.776C354.365 263.958 354.538 264.106 354.751 264.106H356.953C357.166 264.106 357.339 263.958 357.339 263.776V262.912C357.339 262.73 357.166 262.583 356.953 262.583Z" fill="#3F3D56"/>
<path d="M362.9 262.583H360.698C360.485 262.583 360.312 262.73 360.312 262.912V263.776C360.312 263.958 360.485 264.106 360.698 264.106H362.9C363.113 264.106 363.286 263.958 363.286 263.776V262.912C363.286 262.73 363.113 262.583 362.9 262.583Z" fill="#3F3D56"/>
<path d="M368.847 262.583H366.646C366.433 262.583 366.26 262.73 366.26 262.912V263.776C366.26 263.958 366.433 264.106 366.646 264.106H368.847C369.061 264.106 369.233 263.958 369.233 263.776V262.912C369.233 262.73 369.061 262.583 368.847 262.583Z" fill="#3F3D56"/>
<path d="M279.566 265.121H277.364C277.151 265.121 276.979 265.269 276.979 265.45V266.314C276.979 266.496 277.151 266.644 277.364 266.644H279.566C279.779 266.644 279.952 266.496 279.952 266.314V265.45C279.952 265.269 279.779 265.121 279.566 265.121Z" fill="#3F3D56"/>
<path d="M285.513 265.121H283.312C283.099 265.121 282.926 265.269 282.926 265.45V266.314C282.926 266.496 283.099 266.644 283.312 266.644H285.513C285.727 266.644 285.899 266.496 285.899 266.314V265.45C285.899 265.269 285.727 265.121 285.513 265.121Z" fill="#3F3D56"/>
<path d="M291.461 265.121H289.259C289.046 265.121 288.873 265.269 288.873 265.45V266.314C288.873 266.496 289.046 266.644 289.259 266.644H291.461C291.674 266.644 291.847 266.496 291.847 266.314V265.45C291.847 265.269 291.674 265.121 291.461 265.121Z" fill="#3F3D56"/>
<path d="M297.408 265.121H295.206C294.993 265.121 294.82 265.269 294.82 265.45V266.314C294.82 266.496 294.993 266.644 295.206 266.644H297.408C297.621 266.644 297.794 266.496 297.794 266.314V265.45C297.794 265.269 297.621 265.121 297.408 265.121Z" fill="#3F3D56"/>
<path d="M303.357 265.121H301.155C300.942 265.121 300.77 265.269 300.77 265.45V266.314C300.77 266.496 300.942 266.644 301.155 266.644H303.357C303.57 266.644 303.743 266.496 303.743 266.314V265.45C303.743 265.269 303.57 265.121 303.357 265.121Z" fill="#3F3D56"/>
<path d="M309.305 265.121H307.103C306.89 265.121 306.717 265.269 306.717 265.45V266.314C306.717 266.496 306.89 266.644 307.103 266.644H309.305C309.518 266.644 309.69 266.496 309.69 266.314V265.45C309.69 265.269 309.518 265.121 309.305 265.121Z" fill="#3F3D56"/>
<path d="M315.252 265.121H313.05C312.837 265.121 312.664 265.269 312.664 265.45V266.314C312.664 266.496 312.837 266.644 313.05 266.644H315.252C315.465 266.644 315.638 266.496 315.638 266.314V265.45C315.638 265.269 315.465 265.121 315.252 265.121Z" fill="#3F3D56"/>
<path d="M321.199 265.121H318.997C318.784 265.121 318.611 265.269 318.611 265.45V266.314C318.611 266.496 318.784 266.644 318.997 266.644H321.199C321.412 266.644 321.585 266.496 321.585 266.314V265.45C321.585 265.269 321.412 265.121 321.199 265.121Z" fill="#3F3D56"/>
<path d="M327.146 265.121H324.945C324.731 265.121 324.559 265.269 324.559 265.45V266.314C324.559 266.496 324.731 266.644 324.945 266.644H327.146C327.359 266.644 327.532 266.496 327.532 266.314V265.45C327.532 265.269 327.359 265.121 327.146 265.121Z" fill="#3F3D56"/>
<path d="M333.094 265.121H330.892C330.679 265.121 330.506 265.269 330.506 265.45V266.314C330.506 266.496 330.679 266.644 330.892 266.644H333.094C333.307 266.644 333.48 266.496 333.48 266.314V265.45C333.48 265.269 333.307 265.121 333.094 265.121Z" fill="#3F3D56"/>
<path d="M339.041 265.121H336.839C336.626 265.121 336.453 265.269 336.453 265.45V266.314C336.453 266.496 336.626 266.644 336.839 266.644H339.041C339.254 266.644 339.427 266.496 339.427 266.314V265.45C339.427 265.269 339.254 265.121 339.041 265.121Z" fill="#3F3D56"/>
<path d="M344.988 265.121H342.786C342.573 265.121 342.4 265.269 342.4 265.45V266.314C342.4 266.496 342.573 266.644 342.786 266.644H344.988C345.201 266.644 345.374 266.496 345.374 266.314V265.45C345.374 265.269 345.201 265.121 344.988 265.121Z" fill="#3F3D56"/>
<path d="M350.935 265.121H348.734C348.52 265.121 348.348 265.269 348.348 265.45V266.314C348.348 266.496 348.52 266.644 348.734 266.644H350.935C351.149 266.644 351.321 266.496 351.321 266.314V265.45C351.321 265.269 351.149 265.121 350.935 265.121Z" fill="#3F3D56"/>
<path d="M356.883 265.121H354.681C354.468 265.121 354.295 265.269 354.295 265.45V266.314C354.295 266.496 354.468 266.644 354.681 266.644H356.883C357.096 266.644 357.269 266.496 357.269 266.314V265.45C357.269 265.269 357.096 265.121 356.883 265.121Z" fill="#3F3D56"/>
<path d="M362.83 265.121H360.628C360.415 265.121 360.242 265.269 360.242 265.45V266.314C360.242 266.496 360.415 266.644 360.628 266.644H362.83C363.043 266.644 363.216 266.496 363.216 266.314V265.45C363.216 265.269 363.043 265.121 362.83 265.121Z" fill="#3F3D56"/>
<path d="M368.777 265.121H366.575C366.362 265.121 366.189 265.269 366.189 265.45V266.314C366.189 266.496 366.362 266.644 366.575 266.644H368.777C368.99 266.644 369.163 266.496 369.163 266.314V265.45C369.163 265.269 368.99 265.121 368.777 265.121Z" fill="#3F3D56"/>
<path d="M328.931 268.167H305.913C305.7 268.167 305.527 268.314 305.527 268.496V269.36C305.527 269.542 305.7 269.689 305.913 269.689H328.931C329.144 269.689 329.317 269.542 329.317 269.36V268.496C329.317 268.314 329.144 268.167 328.931 268.167Z" fill="#3F3D56"/>
<path d="M394.869 145.522H243.019C242.861 145.52 242.711 145.464 242.6 145.368C242.49 145.271 242.428 145.142 242.428 145.007C242.428 144.872 242.49 144.743 242.6 144.646C242.711 144.55 242.861 144.495 243.019 144.492H394.869C395.027 144.495 395.177 144.55 395.287 144.646C395.398 144.743 395.46 144.872 395.46 145.007C395.46 145.142 395.398 145.271 395.287 145.368C395.177 145.464 395.027 145.52 394.869 145.522V145.522Z" fill="#CACACA"/>
<path d="M253.357 141.86C255.312 141.86 256.896 140.478 256.896 138.773C256.896 137.067 255.312 135.685 253.357 135.685C251.403 135.685 249.818 137.067 249.818 138.773C249.818 140.478 251.403 141.86 253.357 141.86Z" fill="#3F3D56"/>
<path d="M265.582 141.86C267.536 141.86 269.121 140.478 269.121 138.773C269.121 137.067 267.536 135.685 265.582 135.685C263.627 135.685 262.043 137.067 262.043 138.773C262.043 140.478 263.627 141.86 265.582 141.86Z" fill="#3F3D56"/>
<path d="M277.806 141.86C279.761 141.86 281.345 140.478 281.345 138.773C281.345 137.067 279.761 135.685 277.806 135.685C275.852 135.685 274.268 137.067 274.268 138.773C274.268 140.478 275.852 141.86 277.806 141.86Z" fill="#3F3D56"/>
<path d="M387.509 136.45H378.824C378.652 136.453 378.488 136.514 378.368 136.618C378.247 136.723 378.18 136.864 378.18 137.011C378.18 137.158 378.247 137.299 378.368 137.404C378.488 137.509 378.652 137.57 378.824 137.573H387.509C387.681 137.57 387.845 137.509 387.965 137.404C388.086 137.299 388.153 137.158 388.153 137.011C388.153 136.864 388.086 136.723 387.965 136.618C387.845 136.514 387.681 136.453 387.509 136.45V136.45Z" fill="#3F3D56"/>
<path d="M387.509 138.557H378.824C378.652 138.56 378.488 138.62 378.368 138.725C378.247 138.83 378.18 138.971 378.18 139.118C378.18 139.265 378.247 139.406 378.368 139.511C378.488 139.616 378.652 139.676 378.824 139.679H387.509C387.681 139.676 387.845 139.616 387.965 139.511C388.086 139.406 388.153 139.265 388.153 139.118C388.153 138.971 388.086 138.83 387.965 138.725C387.845 138.62 387.681 138.56 387.509 138.557V138.557Z" fill="#3F3D56"/>
<path d="M387.509 140.661H378.824C378.652 140.664 378.488 140.724 378.368 140.829C378.247 140.934 378.18 141.075 378.18 141.222C378.18 141.369 378.247 141.51 378.368 141.615C378.488 141.72 378.652 141.78 378.824 141.783H387.509C387.681 141.78 387.845 141.72 387.965 141.615C388.086 141.51 388.153 141.369 388.153 141.222C388.153 141.075 388.086 140.934 387.965 140.829C387.845 140.724 387.681 140.664 387.509 140.661V140.661Z" fill="#3F3D56"/>
<path d="M331.074 175.632H312.1C310.675 175.632 309.52 176.618 309.52 177.834V177.834C309.52 179.051 310.675 180.037 312.1 180.037H331.074C332.5 180.037 333.655 179.051 333.655 177.834V177.834C333.655 176.618 332.5 175.632 331.074 175.632Z" fill="#3F3D56"/>
<path d="M343.332 184.441H299.842C298.417 184.441 297.262 185.427 297.262 186.644V186.644C297.262 187.86 298.417 188.846 299.842 188.846H343.332C344.757 188.846 345.912 187.86 345.912 186.644C345.912 185.427 344.757 184.441 343.332 184.441Z" fill="#E6E6E6"/>
<path d="M343.332 193.251H299.842C298.417 193.251 297.262 194.237 297.262 195.453C297.262 196.67 298.417 197.656 299.842 197.656H343.332C344.757 197.656 345.912 196.67 345.912 195.453C345.912 194.237 344.757 193.251 343.332 193.251Z" fill="#E6E6E6"/>
<path d="M244.502 277.219H197.069C195.391 277.219 193.783 277.788 192.597 278.8C191.41 279.813 190.744 281.185 190.744 282.617C190.744 284.049 191.41 285.422 192.597 286.434C193.783 287.446 195.391 288.015 197.069 288.015H214.461V329.848H227.11V288.015H244.502C246.18 288.015 247.788 287.446 248.975 286.434C250.161 285.422 250.827 284.049 250.827 282.617C250.827 281.185 250.161 279.813 248.975 278.8C247.788 277.788 246.18 277.219 244.502 277.219Z" fill="#3F3D56"/>
<path d="M275.811 353.016H148.939C136.639 352.978 124.766 349.164 115.489 342.272C106.211 335.38 100.149 325.869 98.4086 315.477L93.9176 301.378C84.6223 272.162 70.4636 244.235 51.8744 218.452C43.378 206.675 39.0049 195.275 48.9376 184.3C49.0222 184.207 49.1053 184.114 49.1871 184.024C57.1537 175.174 96.8062 173.258 109.733 172.885C110.243 172.871 110.756 172.863 111.271 172.863H190.184C190.699 172.863 191.211 172.871 191.721 172.885C198.69 173.059 205.473 174.839 211.352 178.037C217.231 181.235 221.986 185.732 225.112 191.05C228.448 196.479 229.999 202.578 229.602 208.7C229.204 214.821 226.872 220.737 222.854 225.818C195.134 261.357 186.647 283.641 195.336 298.072C203.741 312.03 229.504 319.167 276.415 320.53C289.022 320.897 294.807 329.275 294.848 336.904C294.887 344.335 289.325 352.541 277.018 352.994C276.619 353.009 276.216 353.016 275.811 353.016Z" fill="#3F3D56"/>
<path d="M170.491 449.165H217.924C219.602 449.165 221.21 448.596 222.396 447.584C223.583 446.572 224.249 445.199 224.249 443.767C224.249 442.335 223.583 440.962 222.396 439.95C221.21 438.938 219.602 438.369 217.924 438.369H200.532V347.281H187.883V438.369H170.491C168.813 438.369 167.204 438.938 166.018 439.95C164.832 440.962 164.166 442.335 164.166 443.767C164.166 445.199 164.832 446.572 166.018 447.584C167.204 448.596 168.813 449.165 170.491 449.165Z" fill="#3F3D56"/>
<path d="M166.703 176.244L167.697 181.401C168.168 183.902 169.871 201.566 168.609 203.674C168.498 199.739 159.913 193.553 154.35 194.965L145.621 196.621L140.202 197.649L135.793 198.475L122.978 200.864C122.956 200.737 122.94 200.602 122.917 200.475C122.887 200.315 122.857 200.155 122.819 199.997C122.58 198.971 122.145 197.986 121.531 197.081C121.466 198.293 121.046 199.472 120.311 200.51C120.291 200.537 120.274 200.566 120.259 200.595C120.031 200.91 119.78 201.211 119.507 201.498C119.494 201.505 119.483 201.514 119.473 201.524C119.473 201.524 116.84 165.703 117.116 165.373C117.318 165.138 117.521 164.909 117.734 164.686C117.945 164.456 118.15 164.235 118.371 164.01C118.399 163.989 118.423 163.964 118.442 163.936C119.059 163.312 119.714 162.715 120.402 162.147C120.604 161.981 120.814 161.813 121.024 161.646C124.23 159.114 128.06 157.229 132.233 156.128C132.703 156.004 133.193 155.891 133.69 155.777C134.181 155.671 134.681 155.569 135.184 155.481L135.355 155.452C135.595 155.41 135.844 155.373 136.086 155.338C136.39 155.292 136.695 155.252 136.994 155.221C140.876 154.743 144.831 154.933 148.627 155.779C148.634 155.777 148.636 155.784 148.644 155.782C151.812 156.489 154.823 157.634 157.558 159.171C162.288 161.836 164.129 166.184 165.437 171.066C165.895 172.742 166.281 174.486 166.703 176.244Z" fill="#2F2E41"/>
<path d="M213.424 412.442L221.595 416.231L243.226 390.705L231.166 385.114L213.424 412.442Z" fill="#FFB6B6"/>
<path d="M217.356 403.347L232.19 407.311L229.829 412.615L240.001 425.216C240.503 425.838 240.759 426.581 240.732 427.336C240.705 428.092 240.395 428.82 239.849 429.414C239.302 430.009 238.547 430.439 237.694 430.641C236.841 430.844 235.934 430.808 235.106 430.54L217.837 424.94L217.196 418.729L213.699 423.598L207.188 421.487L217.356 403.347Z" fill="#2F2E41"/>
<path d="M259.707 298.271C258.403 298.542 257.045 298.565 255.729 298.34C254.413 298.115 253.171 297.646 252.09 296.966C251.009 296.287 250.116 295.414 249.473 294.408C248.831 293.402 248.455 292.288 248.371 291.145L178.674 269.745L191.465 260.245L257.617 282.725C259.877 282.732 262.056 283.447 263.739 284.733C265.423 286.02 266.495 287.789 266.753 289.705C267.011 291.622 266.436 293.552 265.137 295.131C263.839 296.709 261.907 297.827 259.707 298.271V298.271Z" fill="#FFB6B6"/>
<path d="M159.204 216.729C159.204 216.729 147.465 216.95 146.422 228.388C145.378 239.826 170.992 268.117 174.96 272.783C178.928 277.448 223.008 283.191 223.008 283.191L237.992 273.907C222.247 265.199 207.878 258.523 198.234 258.823L159.204 216.729Z" fill="#3F3D56"/>
<path d="M144.807 267.198L147.667 277.687C147.667 277.687 147.695 287.359 149.702 289.143C151.695 290.918 195.52 287.354 195.52 287.354C195.52 287.354 190.873 271.768 190.935 259.974L144.807 267.198Z" fill="#FFB6B6"/>
<path d="M146.98 194.713C157.591 192.86 164.432 184.017 162.261 174.961C160.09 165.905 149.729 160.066 139.118 161.919C128.508 163.772 121.666 172.616 123.837 181.671C126.008 190.727 136.37 196.566 146.98 194.713Z" fill="#FFB6B6"/>
<path d="M138.439 200.789L156.512 199.878C157.274 199.84 158.031 200.005 158.678 200.351C159.324 200.698 159.828 201.208 160.12 201.81L165.227 212.377L186.454 227.351C186.454 227.351 194.858 236.479 194.878 248.267C194.897 260.055 197.859 287.34 197.859 287.34C197.859 287.34 185.594 272.605 178.023 276.524C176.735 277.191 176.282 278.555 174.933 279.244C174.26 279.587 172.705 279.253 172.026 279.598C161.594 284.883 150.714 290.047 149.697 289.141C147.701 287.364 145.28 278.28 145.28 278.28L128.737 226.402C127.84 223.672 127.662 220.807 128.215 218.012C128.769 215.217 130.04 212.56 131.938 210.234C133.094 208.845 134.305 207.812 135.43 207.641C137.957 207.182 136.613 202.349 138.439 200.789Z" fill="#D1C8B4"/>
<path d="M292.178 434.418L299.807 429.891L282.525 402.062L271.266 408.744L292.178 434.418Z" fill="#FFB6B6"/>
<path d="M237.388 401.369L221.577 393.947C221.276 376.388 233.651 352.624 248.329 327.734C215.503 332.553 184.534 334.096 157.747 328.267C153.35 327.276 149.586 324.848 147.269 321.508C144.952 318.167 144.268 314.183 145.365 310.416C145.469 310.046 145.59 309.68 145.726 309.318C148.932 300.97 141.744 295.737 148.355 286.555C165.745 281.486 182.264 280.055 197.37 284.531L206.835 302.392L253.749 297.211C256.016 296.979 258.314 297.133 260.51 297.663C262.707 298.194 264.759 299.09 266.548 300.3C268.337 301.51 269.828 303.01 270.934 304.714C272.04 306.418 272.741 308.292 272.995 310.229C273.058 310.663 273.099 311.1 273.118 311.538C263.632 349.493 252.995 383.645 237.388 401.369Z" fill="#0A3C5F"/>
<path d="M293.332 415.745L281.376 424.866C262.365 406.786 247.992 381.43 235.813 352.635C203.901 344.658 179.836 331.793 158.826 316.519C151.699 311.372 146.356 304.759 152.435 298.489C152.719 298.196 153.016 297.913 153.325 297.639C160.502 291.344 178.703 292.543 189.363 286.776L213.176 308.5L211.678 314.324L256.406 327.255C258.558 327.899 260.539 328.9 262.236 330.2C263.932 331.501 265.31 333.075 266.291 334.833C267.271 336.59 267.833 338.496 267.946 340.44C268.059 342.384 267.72 344.327 266.948 346.159C266.781 346.573 266.593 346.98 266.384 347.381L293.332 415.745Z" fill="#0A3C5F"/>
<path d="M287.73 432.583L299.943 424.375L303.737 429.033L321.666 428.987C322.551 428.984 323.414 429.224 324.129 429.67C324.844 430.116 325.373 430.745 325.639 431.466C325.906 432.187 325.895 432.961 325.609 433.676C325.323 434.391 324.776 435.01 324.049 435.441L308.88 444.44L302.512 441.383L305.245 446.597L299.526 449.99L287.73 432.583Z" fill="#2F2E41"/>
<path d="M165.126 331.53C163.89 331.082 162.784 330.409 161.887 329.557C160.989 328.705 160.321 327.696 159.93 326.6C159.539 325.504 159.434 324.348 159.622 323.214C159.811 322.08 160.289 320.995 161.022 320.035L120.107 267.338L137.015 266.241L174.331 317.997C176.138 319.155 177.385 320.839 177.835 322.729C178.284 324.62 177.906 326.585 176.771 328.253C175.637 329.921 173.824 331.176 171.678 331.78C169.532 332.384 167.2 332.295 165.126 331.53Z" fill="#FFB6B6"/>
<path d="M141.601 214.895C141.601 214.895 132.033 209.087 123.19 217.727C114.347 226.368 115.085 262.115 115.002 267.88C114.976 269.685 118.03 273.581 122.238 278.08C124.127 280.1 126.249 282.241 128.429 284.37C129.69 285.602 128.603 288.167 129.87 289.364C131.13 290.555 134.743 290.379 135.941 291.485C141.629 296.731 146.249 300.724 146.249 300.724L164.765 300.919C164.973 289.172 155.548 278.686 143.438 268.552L141.601 214.895Z" fill="#3F3D56"/>
<path d="M167.559 170.186C166.833 170.492 166.129 170.787 165.438 171.066C162.663 172.23 159.795 173.226 156.856 174.046C156.367 172.91 155.621 171.868 154.66 170.979C154.906 172.207 154.781 173.469 154.296 174.644C149.847 175.585 145.177 175.431 140.827 174.2C143.672 178.697 145.774 188.171 145.621 196.621C145.554 201.088 144.846 205.269 143.299 208.273L141.311 203.111C141.126 201.266 140.756 199.439 140.203 197.65C138.87 192.628 137.625 195.985 135.793 198.475L122.979 200.864C122.957 200.737 122.94 200.602 122.918 200.475C122.888 200.315 122.857 200.155 122.819 199.997C122.581 198.971 122.146 197.986 121.531 197.081C121.466 198.293 121.047 199.472 120.312 200.51C120.292 200.538 120.274 200.566 120.26 200.595C120.032 200.91 119.781 201.211 119.508 201.498C119.495 201.506 119.484 201.515 119.474 201.525C111.201 202.469 105.401 166.057 117.118 165.379C117.459 165.36 117.523 164.916 117.735 164.686C117.946 164.456 118.151 164.235 118.372 164.01C118.4 163.989 118.424 163.964 118.442 163.936C119.069 163.317 119.717 162.722 120.402 162.147C120.604 161.981 120.814 161.814 121.024 161.646C124.24 159.127 128.068 157.245 132.235 156.135C132.706 156.011 133.193 155.891 133.69 155.777C134.181 155.671 134.682 155.57 135.185 155.482L135.355 155.452C135.596 155.41 135.845 155.373 136.087 155.338C136.39 155.292 136.696 155.252 136.995 155.221C138.118 155.704 139.078 156.422 139.787 157.309L147.974 155.879C148.19 155.841 148.409 155.81 148.629 155.785L148.644 155.783C158.865 154.321 165.437 161.335 167.559 170.186Z" fill="#2F2E41"/>
<path d="M122.939 163.748C121.187 164.828 119.342 165.941 117.203 166.208C115.064 166.476 112.56 165.593 111.968 163.819C111.245 161.649 113.54 159.673 115.604 158.263L122.146 153.792C123.344 152.885 124.697 152.139 126.158 151.578C126.891 151.303 127.688 151.172 128.489 151.194C129.29 151.217 130.075 151.394 130.786 151.71C131.489 152.116 132.059 152.668 132.441 153.314C132.824 153.961 133.006 154.68 132.97 155.404C132.877 156.854 132.316 158.254 131.35 159.449C130.135 161.065 128.55 162.454 126.69 163.533C124.83 164.612 122.733 165.359 120.526 165.729" fill="#2F2E41"/>
<path d="M172.561 279.918H125.127C123.45 279.918 121.841 280.487 120.655 281.499C119.469 282.511 118.803 283.884 118.803 285.316C118.803 286.747 119.469 288.12 120.655 289.133C121.841 290.145 123.45 290.714 125.127 290.714H142.52V332.547H155.169V290.714H172.561C174.238 290.714 175.847 290.145 177.033 289.133C178.219 288.12 178.886 286.747 178.886 285.316C178.886 283.884 178.219 282.511 177.033 281.499C175.847 280.487 174.238 279.918 172.561 279.918Z" fill="#3F3D56"/>
<path d="M448.74 361.504L456.462 368.686L492.594 346.684L481.197 336.084L448.74 361.504Z" fill="#A0616A"/>
<path d="M464.722 371.668V371.661L463.939 364.489L463.583 364.347L461.504 363.503L451.693 359.543L451.488 359.354L449.519 357.519L438.617 366.061L453.385 379.798L463.512 389.217L463.852 388.947C465.24 387.862 466.363 386.554 467.158 385.098C467.953 383.642 468.404 382.066 468.485 380.461C468.565 378.856 468.275 377.254 467.629 375.745C466.983 374.236 465.995 372.85 464.722 371.668H464.722Z" fill="#2F2E41"/>
<path d="M408.736 433.149L419.664 435.982L437.668 401.357L421.54 397.175L408.736 433.149Z" fill="#A0616A"/>
<path d="M437.029 440.901C436.148 439.482 434.945 438.225 433.49 437.206C432.035 436.187 430.357 435.425 428.554 434.964L423.597 429.127L423.21 429.154L410.11 430.18L409.818 430.106L407.035 429.384L402.734 441.468L437.97 450.604L438.104 450.219C438.654 448.683 438.842 447.068 438.657 445.469C438.473 443.87 437.92 442.317 437.029 440.901V440.901Z" fill="#2F2E41"/>
<path d="M498.843 251.854C498.843 251.854 568.611 309.346 524.505 327.142H510.873C510.873 327.142 506.776 314.72 497.397 304.245C496.109 302.806 491.284 303.099 489.944 301.697C481.762 293.136 472.892 285.785 466.766 286.076L468.232 325.8L470.603 339.969C471.849 347.294 436.702 411.249 436.702 411.249L414.611 403.839C414.611 403.839 437.627 351.162 437.897 343.568L419.452 260.068L498.843 251.854Z" fill="#3F3D56"/>
<path d="M527.855 323.727L524.126 327.749C524.126 327.749 489.828 348.228 488.651 350.142L483.23 354.519L470.115 342.554L476.936 335.258C482.394 329.419 489.445 324.811 497.474 321.838V321.838L507.926 313.923L527.855 323.727Z" fill="#DC9E1C"/>
<path d="M506.062 266.248L499.817 214.652L498.168 193.416L515.649 190.718C515.649 190.718 514.957 205.902 517.247 214.469C519.507 222.923 517.547 265.116 517.407 266.244C518.691 267.224 519.596 268.513 520.002 269.941C520.409 271.37 520.298 272.87 519.684 274.243C519.07 275.616 517.982 276.798 516.564 277.632C515.145 278.466 513.464 278.913 511.742 278.914C510.019 278.915 508.337 278.469 506.918 277.636C505.499 276.803 504.41 275.622 503.794 274.25C503.179 272.877 503.066 271.377 503.471 269.948C503.876 268.519 504.779 267.229 506.062 266.248V266.248Z" fill="#A0616A"/>
<path d="M404.313 268.273L410.559 216.676L412.208 195.441L394.726 192.743C394.726 192.743 395.419 207.927 393.129 216.494C390.869 224.948 392.829 267.14 392.969 268.268C391.685 269.248 390.78 270.537 390.373 271.966C389.967 273.394 390.078 274.894 390.692 276.267C391.306 277.641 392.394 278.823 393.812 279.657C395.23 280.491 396.912 280.938 398.634 280.938C400.356 280.939 402.038 280.493 403.457 279.661C404.876 278.828 405.966 277.647 406.581 276.274C407.197 274.901 407.31 273.401 406.905 271.972C406.5 270.544 405.596 269.254 404.313 268.273V268.273Z" fill="#A0616A"/>
<path d="M504.662 254.69C504.307 255.123 503.842 255.482 503.303 255.742C502.414 256.171 501.45 256.476 500.449 256.646C484.74 259.689 433.425 265.998 420.104 262.989C418.467 262.625 417.4 262.112 417.052 261.437C415.937 259.305 416.08 250.297 416.736 239.421C416.854 237.383 419.487 235.177 419.645 233.044C419.756 231.445 417.392 229.941 417.519 228.315C418.388 217.316 419.511 206.109 420.262 199.025C420.736 194.47 421.06 191.623 421.06 191.623L412.957 148.015L413.336 147.482L413.763 147.3L439.891 136.261L441.315 133.158C441.727 132.264 442.444 131.496 443.372 130.954C444.301 130.411 445.399 130.119 446.524 130.115L463.735 130.054C464.628 130.05 465.509 130.227 466.305 130.572C467.101 130.917 467.789 131.42 468.312 132.037L472.977 137.55L503.809 154.418L503.69 154.729L489.223 192.304L489.152 195.233V195.239L488.614 218.787L490.108 221.979L488.424 227.215C488.424 227.215 489.199 233.334 493.349 237.882C497.113 242.012 501.903 246.316 504.069 249.811V249.818C505.271 251.748 505.674 253.421 504.662 254.69Z" fill="#A79696"/>
<path d="M523.115 225.344L500.645 229.313L498.68 222.628L496.39 220.554L491.814 200.094L485.248 188.109L486.955 147.124L503.631 154.672L503.651 154.685C506.202 157.048 507.959 160.43 510.882 163.824C520.092 174.518 521.114 200.502 520.835 214.735C520.83 214.969 521.106 215.215 521.436 215.475C523.005 216.704 524.028 218.356 524.334 220.154C524.64 221.952 524.209 223.785 523.115 225.344V225.344Z" fill="#A79696"/>
<path d="M425.131 190.132L420.261 199.025L418.561 202.122L413.984 222.58L411.699 224.651L409.731 231.338L408.806 231.176L392.125 228.227L387.263 227.37C386.167 225.812 385.735 223.979 386.041 222.18C386.346 220.381 387.37 218.728 388.939 217.499C389.271 217.243 389.548 216.993 389.54 216.757C389.263 202.527 390.283 176.543 399.493 165.849C402.418 162.455 404.173 159.074 406.727 156.713C406.735 156.706 406.735 156.699 406.742 156.699L412.956 148.015L413.336 147.482L413.763 147.3L425.131 190.132Z" fill="#A79696"/>
<path d="M454.632 125.872C467.278 125.872 477.531 117.122 477.531 106.328C477.531 95.5343 467.278 86.7842 454.632 86.7842C441.985 86.7842 431.732 95.5343 431.732 106.328C431.732 117.122 441.985 125.872 454.632 125.872Z" fill="#A0616A"/>
<path d="M480.376 97.7548C480.297 94.4216 479.854 90.1573 477.119 86.7567C474.81 83.8959 470.154 81.6288 465.814 82.7623C465.862 82.0216 465.669 81.2839 465.256 80.6311C464.843 79.9784 464.226 79.4362 463.474 79.0648C461.829 78.2079 459.853 78.0527 458.106 77.911C453.702 77.5602 449.141 77.1958 444.682 77.9178C439.678 78.7274 435.582 80.927 433.456 83.9566L433.408 84.051L432.974 85.8458C432.916 86.0865 432.797 86.3137 432.627 86.5117C432.456 86.7097 432.237 86.8738 431.985 86.9929C431.733 87.1136 431.453 87.1853 431.165 87.2028C430.876 87.2203 430.587 87.1832 430.317 87.0941C430.022 86.9996 429.703 86.9726 429.392 87.0155C429.081 87.0584 428.789 87.1699 428.544 87.3389C428.298 87.5079 428.109 87.7286 427.995 87.9791C427.88 88.2297 427.844 88.5014 427.89 88.7674L428.009 89.4826L426.752 89.2802C426.436 89.2281 426.11 89.2488 425.807 89.3402C425.504 89.4315 425.235 89.5903 425.028 89.8001C424.821 90.0099 424.683 90.263 424.629 90.5334C424.575 90.8038 424.606 91.0816 424.72 91.3381L425.068 92.1546C424.808 92.1575 424.552 92.205 424.314 92.2943C424.077 92.3835 423.862 92.5127 423.684 92.6741C423.431 92.9093 423.271 93.2073 423.228 93.525C423.186 93.8427 423.262 94.1638 423.447 94.4419C424.856 96.4944 426.853 98.2078 429.25 99.4214C430.328 99.9756 431.491 100.4 432.705 100.683C432.958 100.744 433.219 100.798 433.487 100.845C443.194 102.63 453.201 102.887 463.015 101.601C462.437 103.253 462.215 104.982 462.359 106.702C462.675 108.854 464.153 110.629 466.13 111.222C466.577 111.352 467.038 111.447 467.505 111.506C467.953 111.568 468.395 111.66 468.826 111.782C469.461 111.981 470.024 112.32 470.458 112.764C470.891 113.208 471.179 113.742 471.293 114.312C471.407 114.881 471.343 115.467 471.107 116.008C470.87 116.55 470.471 117.029 469.948 117.396C469.948 117.396 472.02 118.86 472.28 118.786C473.299 118.402 474.15 117.756 474.715 116.937C478.66 112.093 480.566 105.642 480.376 97.7548Z" fill="#2F2E41"/>
</g>
<defs>
<clipPath id="clip0_368_616">
<rect width="612" height="452" fill="white"/>
</clipPath>
</defs>
</svg>
