<svg width="576" height="630" viewBox="0 0 576 630" fill="none" xmlns="http://www.w3.org/2000/svg">
<g id="Group 1000002912">
<path id="Vector" d="M134.254 629.212C152.051 629.212 166.478 605.73 166.478 576.763C166.478 547.797 152.051 524.315 134.254 524.315C116.457 524.315 102.029 547.797 102.029 576.763C102.029 605.73 116.457 629.212 134.254 629.212Z" fill="#3F3D56"/>
<path id="Vector_2" d="M564.149 511.055H165.447V512.825H564.149V511.055Z" fill="#3F3D56"/>
<path id="Vector_3" d="M371.939 131.357H230.424V126.609H166.256V131.357H24.1583C22.9013 131.357 21.6565 131.76 20.4951 132.543C19.3338 133.326 18.2785 134.473 17.3896 135.92C16.5007 137.367 15.7956 139.084 15.3146 140.974C14.8335 142.865 14.5859 144.891 14.5859 146.937V462.328C14.5859 466.46 15.5944 470.423 17.3896 473.344C19.1848 476.266 21.6196 477.908 24.1583 477.908H371.939C374.478 477.908 376.912 476.266 378.708 473.344C380.503 470.423 381.511 466.46 381.511 462.328V146.937C381.511 144.891 381.264 142.865 380.783 140.974C380.302 139.084 379.597 137.367 378.708 135.92C377.819 134.473 376.764 133.326 375.602 132.543C374.441 131.76 373.196 131.357 371.939 131.357Z" fill="#3F3D56"/>
<path id="Vector_4" d="M368.674 158.891H27.416V472.211H368.674V158.891Z" fill="#027990"/>
<path id="Vector_5" d="M197.756 150.346C199.689 150.346 201.256 147.795 201.256 144.649C201.256 141.503 199.689 138.952 197.756 138.952C195.823 138.952 194.256 141.503 194.256 144.649C194.256 147.795 195.823 150.346 197.756 150.346Z" fill="#6C63FF"/>
<path id="Vector_6" opacity="0.1" d="M271.08 472.212H27.416V158.891L271.08 472.212Z" fill="#0A688F"/>
<path id="Vector_7" d="M80.8125 448.765C98.929 448.765 113.615 424.861 113.615 395.375C113.615 365.889 98.929 341.985 80.8125 341.985C62.6961 341.985 48.0098 365.889 48.0098 395.375C48.0098 424.861 62.6961 448.765 80.8125 448.765Z" fill="#F2F2F2"/>
<path id="Vector_8" d="M309.256 327.867H277.379V338.708H309.256V327.867Z" fill="#3F3D56"/>
<path id="Vector_9" d="M347.795 243.459H238.842V248.106H347.795V243.459Z" fill="#3F3D56"/>
<path id="Vector_10" d="M347.795 258.173H238.842V262.819H347.795V258.173Z" fill="#3F3D56"/>
<path id="Vector_11" d="M347.795 272.886H238.842V277.532H347.795V272.886Z" fill="#3F3D56"/>
<path id="Vector_12" d="M347.795 287.599H238.842V292.245H347.795V287.599Z" fill="#3F3D56"/>
<path id="Vector_13" d="M347.795 302.312H238.842V306.958H347.795V302.312Z" fill="#3F3D56"/>
<path id="Vector_14" d="M347.793 165.247H334.471V186.93H347.793V165.247Z" fill="#F2F2F2"/>
<path id="Vector_15" d="M353.981 196.997H337.805V170.668H353.981V196.997ZM338.508 195.852H353.278V171.813H338.508V195.852Z" fill="#3F3D56"/>
<path id="Vector_16" d="M391.091 466.514H357.786V462.609C357.786 462.507 357.774 462.406 357.75 462.313C357.726 462.219 357.691 462.133 357.647 462.061C357.603 461.989 357.55 461.932 357.493 461.893C357.435 461.855 357.373 461.834 357.311 461.834H345.892C345.829 461.834 345.767 461.855 345.71 461.893C345.652 461.932 345.6 461.989 345.555 462.061C345.511 462.133 345.476 462.219 345.452 462.313C345.428 462.406 345.416 462.507 345.416 462.609V466.514H338.279V462.609C338.279 462.507 338.267 462.406 338.243 462.313C338.219 462.219 338.184 462.133 338.14 462.061C338.096 461.989 338.043 461.932 337.986 461.893C337.928 461.855 337.866 461.834 337.804 461.834H326.385C326.322 461.834 326.26 461.855 326.203 461.893C326.145 461.932 326.093 461.989 326.048 462.061C326.004 462.133 325.969 462.219 325.945 462.313C325.921 462.406 325.909 462.507 325.909 462.609V466.514H318.772V462.609C318.772 462.507 318.76 462.406 318.736 462.313C318.712 462.219 318.677 462.133 318.633 462.061C318.589 461.989 318.536 461.932 318.479 461.893C318.421 461.855 318.359 461.834 318.297 461.834H306.878C306.815 461.834 306.754 461.855 306.696 461.893C306.638 461.932 306.586 461.989 306.541 462.061C306.497 462.133 306.462 462.219 306.438 462.313C306.414 462.406 306.402 462.507 306.402 462.609V466.514H299.265V462.609C299.265 462.507 299.253 462.406 299.229 462.313C299.205 462.219 299.17 462.133 299.126 462.061C299.082 461.989 299.029 461.932 298.972 461.893C298.914 461.855 298.852 461.834 298.79 461.834H287.371C287.308 461.834 287.247 461.855 287.189 461.893C287.131 461.932 287.079 461.989 287.034 462.061C286.99 462.133 286.955 462.219 286.931 462.313C286.907 462.406 286.895 462.507 286.895 462.609V466.514H279.758V462.609C279.758 462.507 279.746 462.406 279.722 462.313C279.698 462.219 279.663 462.133 279.619 462.061C279.575 461.989 279.522 461.932 279.465 461.893C279.407 461.855 279.345 461.834 279.283 461.834H267.864C267.801 461.834 267.74 461.855 267.682 461.893C267.624 461.932 267.572 461.989 267.528 462.061C267.483 462.133 267.448 462.219 267.424 462.313C267.4 462.406 267.388 462.507 267.388 462.609V466.514H260.251V462.609C260.251 462.507 260.239 462.406 260.215 462.313C260.191 462.219 260.156 462.133 260.112 462.061C260.068 461.989 260.015 461.932 259.958 461.893C259.9 461.855 259.838 461.834 259.776 461.834H248.357C248.294 461.834 248.233 461.855 248.175 461.893C248.117 461.932 248.065 461.989 248.021 462.061C247.976 462.133 247.941 462.219 247.917 462.313C247.893 462.406 247.881 462.507 247.881 462.609V466.514H240.744V462.609C240.744 462.507 240.732 462.406 240.708 462.313C240.684 462.219 240.649 462.133 240.605 462.061C240.561 461.989 240.508 461.932 240.451 461.893C240.393 461.855 240.331 461.834 240.269 461.834H150.822C150.76 461.834 150.698 461.855 150.64 461.893C150.582 461.932 150.53 461.989 150.486 462.061C150.442 462.133 150.406 462.219 150.383 462.313C150.359 462.406 150.346 462.507 150.346 462.609V466.514H143.21V462.609C143.21 462.507 143.197 462.406 143.173 462.313C143.15 462.219 143.115 462.133 143.07 462.061C143.026 461.989 142.974 461.932 142.916 461.893C142.858 461.855 142.796 461.834 142.734 461.834H131.315C131.253 461.834 131.191 461.855 131.133 461.893C131.075 461.932 131.023 461.989 130.979 462.061C130.935 462.133 130.9 462.219 130.876 462.313C130.852 462.406 130.839 462.507 130.839 462.609V466.514H123.703V462.609C123.703 462.507 123.69 462.406 123.666 462.313C123.643 462.219 123.608 462.133 123.563 462.061C123.519 461.989 123.467 461.932 123.409 461.893C123.351 461.855 123.289 461.834 123.227 461.834H111.808C111.746 461.834 111.684 461.855 111.626 461.893C111.568 461.932 111.516 461.989 111.472 462.061C111.428 462.133 111.393 462.219 111.369 462.313C111.345 462.406 111.332 462.507 111.332 462.609V466.514H104.196V462.609C104.196 462.507 104.183 462.406 104.16 462.313C104.136 462.219 104.101 462.133 104.056 462.061C104.012 461.989 103.96 461.932 103.902 461.893C103.844 461.855 103.782 461.834 103.72 461.834H92.3012C92.2388 461.834 92.1769 461.855 92.1192 461.893C92.0614 461.932 92.009 461.989 91.9648 462.061C91.9206 462.133 91.8856 462.219 91.8617 462.313C91.8378 462.406 91.8255 462.507 91.8255 462.609V466.514H84.6888V462.609C84.6888 462.507 84.6765 462.406 84.6526 462.313C84.6287 462.219 84.5936 462.133 84.5494 462.061C84.5053 461.989 84.4528 461.932 84.3951 461.893C84.3374 461.855 84.2755 461.834 84.213 461.834H72.7943C72.7318 461.834 72.6699 461.855 72.6122 461.893C72.5545 461.932 72.502 461.989 72.4578 462.061C72.4137 462.133 72.3786 462.219 72.3547 462.313C72.3308 462.406 72.3185 462.507 72.3185 462.609V466.514H65.1818V462.609C65.1818 462.507 65.1695 462.406 65.1456 462.313C65.1217 462.219 65.0866 462.133 65.0425 462.061C64.9983 461.989 64.9458 461.932 64.8881 461.893C64.8304 461.855 64.7685 461.834 64.706 461.834H53.2873C53.2248 461.834 53.163 461.855 53.1052 461.893C53.0475 461.932 52.9951 461.989 52.9509 462.061C52.9067 462.133 52.8717 462.219 52.8478 462.313C52.8238 462.406 52.8115 462.507 52.8115 462.609V466.514H45.6748V462.609C45.6748 462.507 45.6625 462.406 45.6386 462.313C45.6147 462.219 45.5797 462.133 45.5355 462.061C45.4913 461.989 45.4389 461.932 45.3811 461.893C45.3234 461.855 45.2615 461.834 45.1991 461.834H33.7804C33.7179 461.834 33.656 461.855 33.5983 461.893C33.5406 461.932 33.4881 461.989 33.4439 462.061C33.3997 462.133 33.3647 462.219 33.3408 462.313C33.3169 462.406 33.3046 462.507 33.3046 462.609V466.514H11.4187C8.39028 466.514 5.48589 468.472 3.34447 471.958C1.20304 475.443 2.88519e-06 480.17 0 485.099V493.503C8.65557e-06 498.432 1.20305 503.159 3.34448 506.645C5.4859 510.13 8.39029 512.088 11.4187 512.088H391.091C394.119 512.088 397.024 510.13 399.165 506.645C401.307 503.159 402.51 498.432 402.51 493.503V485.099C402.51 480.17 401.307 475.443 399.165 471.958C397.024 468.472 394.119 466.514 391.091 466.514Z" fill="#3F3D56"/>
<path id="Vector_17" d="M88.7529 428.722C80.5769 428.722 72.5844 424.776 65.7863 417.383C58.9881 409.989 53.6896 399.481 50.5608 387.187C47.432 374.893 46.6133 361.364 48.2084 348.313C49.8035 335.261 53.7406 323.272 59.5219 313.863C65.3033 304.453 72.6691 298.045 80.6881 295.449C88.707 292.852 97.0189 294.185 104.573 299.277C112.126 304.37 118.582 312.994 123.125 324.058C127.667 335.123 130.092 348.131 130.092 361.439C130.079 379.277 125.72 396.379 117.97 408.993C110.22 421.606 99.7128 428.702 88.7529 428.722ZM88.7529 295.926C80.792 295.926 73.0099 299.769 66.3907 306.967C59.7714 314.166 54.6124 324.397 51.5659 336.368C48.5194 348.339 47.7223 361.511 49.2754 374.22C50.8284 386.928 54.662 398.601 60.2912 407.763C65.9204 416.925 73.0924 423.165 80.9003 425.692C88.7082 428.22 96.8014 426.923 104.156 421.964C111.511 417.006 117.798 408.609 122.22 397.836C126.643 387.062 129.004 374.396 129.004 361.439C128.992 344.07 124.747 327.418 117.201 315.136C109.655 302.855 99.4244 295.946 88.7529 295.926V295.926Z" fill="#3F3D56"/>
<path id="Vector_18" d="M457.54 143.654H318.838V145.425H457.54V143.654Z" fill="#3F3D56"/>
<path id="Vector_19" d="M448.199 134.321H432.969V159.109H448.199V134.321Z" fill="#6C63FF"/>
<path id="Vector_20" d="M457.447 144.944H438.953V114.844H457.447V144.944ZM439.757 143.635H456.643V116.152H439.757V143.635Z" fill="#3F3D56"/>
<path id="Vector_21" d="M575.028 320.197H573.734V262.509C573.734 258.125 573.204 253.783 572.173 249.732C571.142 245.681 569.631 242.001 567.726 238.9C565.821 235.8 563.56 233.34 561.071 231.663C558.582 229.985 555.915 229.121 553.221 229.121H478.129C475.435 229.121 472.768 229.985 470.279 231.663C467.79 233.34 465.528 235.8 463.624 238.9C461.719 242.001 460.208 245.681 459.177 249.732C458.146 253.783 457.615 258.125 457.615 262.509V578.988C457.615 583.373 458.146 587.715 459.177 591.766C460.208 595.816 461.719 599.497 463.624 602.597C465.528 605.698 467.79 608.157 470.279 609.835C472.768 611.513 475.435 612.377 478.129 612.377H553.221C555.915 612.377 558.582 611.513 561.071 609.835C563.56 608.157 565.821 605.698 567.726 602.597C569.631 599.497 571.142 595.816 572.173 591.766C573.204 587.715 573.734 583.373 573.734 578.988V361.26H575.028V320.197Z" fill="#3F3D56"/>
<path id="Vector_22" d="M569.583 260.24V580.061C569.583 586.754 567.97 593.173 565.098 597.906C562.225 602.639 558.329 605.299 554.266 605.3H478.816C474.753 605.299 470.857 602.639 467.985 597.906C465.113 593.173 463.499 586.754 463.5 580.061V260.24C463.5 253.549 465.114 247.132 467.987 242.4C470.859 237.669 474.754 235.01 478.816 235.01H487.97C487.52 236.83 487.348 238.805 487.47 240.76C487.592 242.716 488.004 244.592 488.67 246.223C489.335 247.854 490.234 249.191 491.288 250.115C492.341 251.039 493.516 251.522 494.709 251.522H537.726C538.92 251.522 540.095 251.039 541.148 250.115C542.201 249.191 543.1 247.854 543.766 246.223C544.432 244.592 544.844 242.716 544.966 240.76C545.087 238.805 544.916 236.83 544.465 235.01H554.266C558.328 235.01 562.224 237.669 565.096 242.4C567.968 247.132 569.582 253.549 569.583 260.24Z" fill="#027990"/>
<path id="Vector_23" d="M527.561 447.91H505.084V458.751H527.561V447.91Z" fill="#3F3D56"/>
<path id="Vector_24" d="M554.733 363.503H477.908V368.149H554.733V363.503Z" fill="#3F3D56"/>
<path id="Vector_25" d="M554.733 378.216H477.908V382.863H554.733V378.216Z" fill="#3F3D56"/>
<path id="Vector_26" d="M554.733 392.929H477.908V397.575H554.733V392.929Z" fill="#3F3D56"/>
<path id="Vector_27" d="M554.733 407.643H477.908V412.289H554.733V407.643Z" fill="#3F3D56"/>
<path id="Vector_28" d="M554.733 422.356H477.908V427.002H554.733V422.356Z" fill="#3F3D56"/>
<path id="Vector_29" d="M519.007 301.801H505.686V323.483H519.007V301.801Z" fill="#F2F2F2"/>
<path id="Vector_30" d="M510.783 307.223V333.552H526.96V307.223H510.783ZM526.258 332.41H511.485V308.365H526.258V332.41Z" fill="#3F3D56"/>
<path id="Vector_31" opacity="0.1" d="M569.368 546.742V580.489C569.368 587.102 567.755 593.445 564.883 598.122C562.01 602.799 558.114 605.427 554.051 605.428H478.596C474.533 605.427 470.637 602.799 467.764 598.122C464.892 593.445 463.279 587.102 463.279 580.489V410.325L526.849 492.065L527.936 493.464L539.762 508.665L540.866 510.09L569.368 546.742Z" fill="#0A688F"/>
<path id="Vector_32" d="M509.797 595.187C522.975 595.187 533.658 577.799 533.658 556.35C533.658 534.902 522.975 517.514 509.797 517.514C496.619 517.514 485.936 534.902 485.936 556.35C485.936 577.799 496.619 595.187 509.797 595.187Z" fill="#F2F2F2"/>
<path id="Vector_33" d="M516.828 586.305C510.911 586.305 505.127 583.449 500.208 578.099C495.288 572.749 491.454 565.144 489.189 556.247C486.925 547.35 486.333 537.56 487.487 528.114C488.641 518.669 491.491 509.993 495.674 503.183C499.858 496.374 505.189 491.736 510.992 489.857C516.795 487.979 522.81 488.943 528.277 492.628C533.743 496.314 538.416 502.555 541.703 510.562C544.99 518.569 546.745 527.983 546.745 537.614C546.736 550.523 543.581 562.899 537.972 572.028C532.364 581.156 524.76 586.291 516.828 586.305V586.305ZM516.828 490.692C511.127 490.692 505.553 493.444 500.812 498.6C496.071 503.756 492.376 511.084 490.194 519.658C488.012 528.231 487.442 537.666 488.554 546.767C489.666 555.869 492.412 564.23 496.444 570.792C500.475 577.354 505.612 581.823 511.204 583.633C516.796 585.443 522.593 584.514 527.861 580.963C533.128 577.412 537.631 571.398 540.798 563.681C543.966 555.965 545.657 546.894 545.657 537.614C545.648 525.174 542.608 513.247 537.204 504.451C531.799 495.654 524.471 490.706 516.828 490.692Z" fill="#3F3D56"/>
<g id="svg 1 1" clip-path="url(#clip0_465_195)">
<path id="Vector_34" d="M385.839 360.974H190.271C186.716 360.974 183.307 363.306 180.793 367.458C178.279 371.61 176.867 377.241 176.867 383.112C176.867 388.984 178.279 394.615 180.793 398.766C183.307 402.918 186.716 405.251 190.271 405.251H385.839C387.743 405.251 389.624 404.581 391.358 403.284C393.092 401.987 394.639 400.094 395.894 397.731C396.463 396.662 396.968 395.507 397.404 394.28C397.741 393.34 398.033 392.357 398.278 391.342C399.095 387.983 399.4 384.345 399.167 380.747C398.934 377.148 398.17 373.699 396.942 370.701C395.714 367.703 394.06 365.249 392.124 363.553C390.188 361.857 388.03 360.972 385.839 360.974V360.974Z" fill="#CCCCCC"/>
<path id="Vector_35" d="M398.462 393.273C394.12 401.77 389.424 409.755 384.408 417.17H191.704C186.688 409.755 181.992 401.77 177.65 393.273H398.462Z" fill="#3F3D56"/>
<path id="Vector_36" d="M304.19 310.507H271.745C271.57 310.503 271.396 310.548 271.23 310.639C270.878 310.818 270.57 311.18 270.351 311.67C270.133 312.16 270.015 312.754 270.016 313.363V398.02H305.925V313.363C305.924 312.987 305.879 312.615 305.792 312.268C305.705 311.921 305.577 311.606 305.416 311.341C305.255 311.076 305.064 310.865 304.853 310.722C304.643 310.579 304.418 310.506 304.19 310.507ZM291.911 352.274C291.912 353.647 291.638 354.982 291.131 356.071C290.648 357.127 289.976 357.907 289.21 358.299C288.444 358.691 287.623 358.677 286.862 358.257C286.101 357.838 285.44 357.035 284.97 355.962C284.5 354.888 284.247 353.598 284.244 352.274V342.451C284.254 340.782 284.662 339.187 285.379 338.012C286.097 336.837 287.067 336.178 288.078 336.178C289.088 336.178 290.058 336.837 290.776 338.012C291.493 339.187 291.901 340.782 291.911 342.451V352.274Z" fill="#2F2E41"/>
<path id="Vector_37" d="M269.904 395.312V403.476C269.904 403.899 270.006 404.305 270.186 404.605C270.367 404.905 270.613 405.075 270.869 405.077H305.069C305.325 405.074 305.569 404.904 305.75 404.604C305.931 404.304 306.032 403.899 306.033 403.476V395.312H269.904Z" fill="#3F3D56"/>
<path id="Vector_38" d="M357.915 178.395H219.227C218.035 178.397 216.892 179.179 216.049 180.57C215.206 181.961 214.731 183.847 214.729 185.815V340.387C214.729 342.357 215.204 344.246 216.047 345.639C216.89 347.032 218.034 347.815 219.227 347.816H357.915C359.107 347.815 360.251 347.032 361.094 345.639C361.937 344.246 362.412 342.357 362.413 340.387V185.815C362.41 183.847 361.935 181.961 361.092 180.57C360.249 179.179 359.106 178.397 357.915 178.395V178.395Z" fill="#3F3D56"/>
<path id="Vector_39" d="M356.757 183.76H220.382C219.744 183.762 219.133 184.182 218.682 184.928C218.232 185.674 217.979 186.685 217.979 187.739V338.481C217.98 339.533 218.233 340.542 218.684 341.286C219.134 342.03 219.745 342.449 220.382 342.451H356.757C357.394 342.449 358.005 342.03 358.455 341.286C358.906 340.542 359.159 339.533 359.161 338.481V187.739C359.16 186.685 358.907 185.674 358.457 184.928C358.006 184.182 357.395 183.762 356.757 183.76V183.76Z" fill="#6C63FF"/>
<path id="Vector_40" d="M331.658 404.945L330.398 395.065C330.346 394.662 330.234 394.287 330.071 393.974C329.909 393.661 329.702 393.42 329.469 393.273C329.3 393.164 329.12 393.108 328.939 393.108H250.319C250.138 393.108 249.958 393.164 249.789 393.273C249.556 393.42 249.349 393.661 249.186 393.974C249.024 394.287 248.912 394.662 248.86 395.065L247.6 404.945C247.555 405.304 247.558 405.675 247.61 406.031C247.662 406.387 247.762 406.72 247.902 407.004C248.042 407.289 248.218 407.519 248.418 407.676C248.619 407.834 248.838 407.916 249.059 407.917H330.193C330.416 407.919 330.636 407.837 330.837 407.679C331.037 407.52 331.214 407.288 331.353 407.001C331.493 406.717 331.593 406.385 331.646 406.03C331.698 405.674 331.702 405.304 331.658 404.945V404.945Z" fill="#2F2E41"/>
<path id="Vector_41" d="M253.149 394.888H251.139C251.004 394.888 250.895 395.068 250.895 395.291V396.961C250.895 397.184 251.004 397.364 251.139 397.364H253.149C253.284 397.364 253.393 397.184 253.393 396.961V395.291C253.393 395.068 253.284 394.888 253.149 394.888Z" fill="#3F3D56"/>
<path id="Vector_42" d="M258.147 394.888H256.137C256.002 394.888 255.893 395.068 255.893 395.291V396.961C255.893 397.184 256.002 397.364 256.137 397.364H258.147C258.282 397.364 258.391 397.184 258.391 396.961V395.291C258.391 395.068 258.282 394.888 258.147 394.888Z" fill="#3F3D56"/>
<path id="Vector_43" d="M263.146 394.888H261.135C261 394.888 260.891 395.068 260.891 395.291V396.961C260.891 397.184 261 397.364 261.135 397.364H263.146C263.28 397.364 263.39 397.184 263.39 396.961V395.291C263.39 395.068 263.28 394.888 263.146 394.888Z" fill="#3F3D56"/>
<path id="Vector_44" d="M268.144 394.888H266.133C265.998 394.888 265.889 395.068 265.889 395.291V396.961C265.889 397.184 265.998 397.364 266.133 397.364H268.144C268.278 397.364 268.388 397.184 268.388 396.961V395.291C268.388 395.068 268.278 394.888 268.144 394.888Z" fill="#3F3D56"/>
<path id="Vector_45" d="M273.142 394.888H271.131C270.996 394.888 270.887 395.068 270.887 395.291V396.961C270.887 397.184 270.996 397.364 271.131 397.364H273.142C273.276 397.364 273.386 397.184 273.386 396.961V395.291C273.386 395.068 273.276 394.888 273.142 394.888Z" fill="#3F3D56"/>
<path id="Vector_46" d="M278.138 394.888H276.127C275.992 394.888 275.883 395.068 275.883 395.291V396.961C275.883 397.184 275.992 397.364 276.127 397.364H278.138C278.272 397.364 278.382 397.184 278.382 396.961V395.291C278.382 395.068 278.272 394.888 278.138 394.888Z" fill="#3F3D56"/>
<path id="Vector_47" d="M283.136 394.888H281.125C280.99 394.888 280.881 395.068 280.881 395.291V396.961C280.881 397.184 280.99 397.364 281.125 397.364H283.136C283.271 397.364 283.38 397.184 283.38 396.961V395.291C283.38 395.068 283.271 394.888 283.136 394.888Z" fill="#3F3D56"/>
<path id="Vector_48" d="M288.134 394.888H286.123C285.988 394.888 285.879 395.068 285.879 395.291V396.961C285.879 397.184 285.988 397.364 286.123 397.364H288.134C288.269 397.364 288.378 397.184 288.378 396.961V395.291C288.378 395.068 288.269 394.888 288.134 394.888Z" fill="#3F3D56"/>
<path id="Vector_49" d="M293.132 394.888H291.121C290.986 394.888 290.877 395.068 290.877 395.291V396.961C290.877 397.184 290.986 397.364 291.121 397.364H293.132C293.267 397.364 293.376 397.184 293.376 396.961V395.291C293.376 395.068 293.267 394.888 293.132 394.888Z" fill="#3F3D56"/>
<path id="Vector_50" d="M298.13 394.888H296.119C295.984 394.888 295.875 395.068 295.875 395.291V396.961C295.875 397.184 295.984 397.364 296.119 397.364H298.13C298.265 397.364 298.374 397.184 298.374 396.961V395.291C298.374 395.068 298.265 394.888 298.13 394.888Z" fill="#3F3D56"/>
<path id="Vector_51" d="M303.128 394.888H301.117C300.982 394.888 300.873 395.068 300.873 395.291V396.961C300.873 397.184 300.982 397.364 301.117 397.364H303.128C303.263 397.364 303.372 397.184 303.372 396.961V395.291C303.372 395.068 303.263 394.888 303.128 394.888Z" fill="#3F3D56"/>
<path id="Vector_52" d="M308.126 394.888H306.115C305.98 394.888 305.871 395.068 305.871 395.291V396.961C305.871 397.184 305.98 397.364 306.115 397.364H308.126C308.261 397.364 308.37 397.184 308.37 396.961V395.291C308.37 395.068 308.261 394.888 308.126 394.888Z" fill="#3F3D56"/>
<path id="Vector_53" d="M313.122 394.888H311.111C310.976 394.888 310.867 395.068 310.867 395.291V396.961C310.867 397.184 310.976 397.364 311.111 397.364H313.122C313.257 397.364 313.366 397.184 313.366 396.961V395.291C313.366 395.068 313.257 394.888 313.122 394.888Z" fill="#3F3D56"/>
<path id="Vector_54" d="M318.12 394.888H316.109C315.974 394.888 315.865 395.068 315.865 395.291V396.961C315.865 397.184 315.974 397.364 316.109 397.364H318.12C318.255 397.364 318.364 397.184 318.364 396.961V395.291C318.364 395.068 318.255 394.888 318.12 394.888Z" fill="#3F3D56"/>
<path id="Vector_55" d="M323.118 394.888H321.107C320.973 394.888 320.863 395.068 320.863 395.291V396.961C320.863 397.184 320.973 397.364 321.107 397.364H323.118C323.253 397.364 323.362 397.184 323.362 396.961V395.291C323.362 395.068 323.253 394.888 323.118 394.888Z" fill="#3F3D56"/>
<path id="Vector_56" d="M328.116 394.888H326.105C325.971 394.888 325.861 395.068 325.861 395.291V396.961C325.861 397.184 325.971 397.364 326.105 397.364H328.116C328.251 397.364 328.36 397.184 328.36 396.961V395.291C328.36 395.068 328.251 394.888 328.116 394.888Z" fill="#3F3D56"/>
<path id="Vector_57" d="M253.091 399.015H251.08C250.945 399.015 250.836 399.195 250.836 399.418V401.088C250.836 401.311 250.945 401.491 251.08 401.491H253.091C253.226 401.491 253.335 401.311 253.335 401.088V399.418C253.335 399.195 253.226 399.015 253.091 399.015Z" fill="#3F3D56"/>
<path id="Vector_58" d="M258.089 399.015H256.078C255.943 399.015 255.834 399.195 255.834 399.418V401.088C255.834 401.311 255.943 401.491 256.078 401.491H258.089C258.224 401.491 258.333 401.311 258.333 401.088V399.418C258.333 399.195 258.224 399.015 258.089 399.015Z" fill="#3F3D56"/>
<path id="Vector_59" d="M263.087 399.015H261.076C260.941 399.015 260.832 399.195 260.832 399.418V401.088C260.832 401.311 260.941 401.491 261.076 401.491H263.087C263.222 401.491 263.331 401.311 263.331 401.088V399.418C263.331 399.195 263.222 399.015 263.087 399.015Z" fill="#3F3D56"/>
<path id="Vector_60" d="M268.083 399.015H266.072C265.937 399.015 265.828 399.195 265.828 399.418V401.088C265.828 401.311 265.937 401.491 266.072 401.491H268.083C268.218 401.491 268.327 401.311 268.327 401.088V399.418C268.327 399.195 268.218 399.015 268.083 399.015Z" fill="#3F3D56"/>
<path id="Vector_61" d="M273.081 399.015H271.07C270.935 399.015 270.826 399.195 270.826 399.418V401.088C270.826 401.311 270.935 401.491 271.07 401.491H273.081C273.216 401.491 273.325 401.311 273.325 401.088V399.418C273.325 399.195 273.216 399.015 273.081 399.015Z" fill="#3F3D56"/>
<path id="Vector_62" d="M278.079 399.015H276.068C275.933 399.015 275.824 399.195 275.824 399.418V401.088C275.824 401.311 275.933 401.491 276.068 401.491H278.079C278.214 401.491 278.323 401.311 278.323 401.088V399.418C278.323 399.195 278.214 399.015 278.079 399.015Z" fill="#3F3D56"/>
<path id="Vector_63" d="M283.077 399.015H281.066C280.932 399.015 280.822 399.195 280.822 399.418V401.088C280.822 401.311 280.932 401.491 281.066 401.491H283.077C283.212 401.491 283.321 401.311 283.321 401.088V399.418C283.321 399.195 283.212 399.015 283.077 399.015Z" fill="#3F3D56"/>
<path id="Vector_64" d="M288.075 399.015H286.064C285.93 399.015 285.82 399.195 285.82 399.418V401.088C285.82 401.311 285.93 401.491 286.064 401.491H288.075C288.21 401.491 288.319 401.311 288.319 401.088V399.418C288.319 399.195 288.21 399.015 288.075 399.015Z" fill="#3F3D56"/>
<path id="Vector_65" d="M293.073 399.015H291.062C290.928 399.015 290.818 399.195 290.818 399.418V401.088C290.818 401.311 290.928 401.491 291.062 401.491H293.073C293.208 401.491 293.317 401.311 293.317 401.088V399.418C293.317 399.195 293.208 399.015 293.073 399.015Z" fill="#3F3D56"/>
<path id="Vector_66" d="M298.071 399.015H296.06C295.926 399.015 295.816 399.195 295.816 399.418V401.088C295.816 401.311 295.926 401.491 296.06 401.491H298.071C298.206 401.491 298.315 401.311 298.315 401.088V399.418C298.315 399.195 298.206 399.015 298.071 399.015Z" fill="#3F3D56"/>
<path id="Vector_67" d="M303.067 399.015H301.056C300.922 399.015 300.812 399.195 300.812 399.418V401.088C300.812 401.311 300.922 401.491 301.056 401.491H303.067C303.202 401.491 303.311 401.311 303.311 401.088V399.418C303.311 399.195 303.202 399.015 303.067 399.015Z" fill="#3F3D56"/>
<path id="Vector_68" d="M308.065 399.015H306.055C305.92 399.015 305.811 399.195 305.811 399.418V401.088C305.811 401.311 305.92 401.491 306.055 401.491H308.065C308.2 401.491 308.309 401.311 308.309 401.088V399.418C308.309 399.195 308.2 399.015 308.065 399.015Z" fill="#3F3D56"/>
<path id="Vector_69" d="M313.063 399.015H311.053C310.918 399.015 310.809 399.195 310.809 399.418V401.088C310.809 401.311 310.918 401.491 311.053 401.491H313.063C313.198 401.491 313.307 401.311 313.307 401.088V399.418C313.307 399.195 313.198 399.015 313.063 399.015Z" fill="#3F3D56"/>
<path id="Vector_70" d="M318.062 399.015H316.051C315.916 399.015 315.807 399.195 315.807 399.418V401.088C315.807 401.311 315.916 401.491 316.051 401.491H318.062C318.196 401.491 318.306 401.311 318.306 401.088V399.418C318.306 399.195 318.196 399.015 318.062 399.015Z" fill="#3F3D56"/>
<path id="Vector_71" d="M323.06 399.015H321.049C320.914 399.015 320.805 399.195 320.805 399.418V401.088C320.805 401.311 320.914 401.491 321.049 401.491H323.06C323.194 401.491 323.304 401.311 323.304 401.088V399.418C323.304 399.195 323.194 399.015 323.06 399.015Z" fill="#3F3D56"/>
<path id="Vector_72" d="M328.058 399.015H326.047C325.912 399.015 325.803 399.195 325.803 399.418V401.088C325.803 401.311 325.912 401.491 326.047 401.491H328.058C328.192 401.491 328.302 401.311 328.302 401.088V399.418C328.302 399.195 328.192 399.015 328.058 399.015Z" fill="#3F3D56"/>
<path id="Vector_73" d="M294.571 403.968H275.068C274.933 403.968 274.824 404.148 274.824 404.371V406.041C274.824 406.264 274.933 406.444 275.068 406.444H294.571C294.706 406.444 294.815 406.264 294.815 406.041V404.371C294.815 404.148 294.706 403.968 294.571 403.968Z" fill="#3F3D56"/>
<path id="Vector_74" d="M349.904 204.525H222.299C222.167 204.521 222.04 204.43 221.947 204.273C221.855 204.117 221.803 203.906 221.803 203.687C221.803 203.468 221.855 203.258 221.947 203.101C222.04 202.944 222.167 202.854 222.299 202.849H349.904C350.037 202.854 350.163 202.944 350.256 203.101C350.348 203.258 350.4 203.468 350.4 203.687C350.4 203.906 350.348 204.117 350.256 204.273C350.163 204.43 350.037 204.521 349.904 204.525V204.525Z" fill="#3F3D56"/>
<path id="Vector_75" d="M230.984 198.57C232.626 198.57 233.958 196.322 233.958 193.549C233.958 190.775 232.626 188.527 230.984 188.527C229.341 188.527 228.01 190.775 228.01 193.549C228.01 196.322 229.341 198.57 230.984 198.57Z" fill="#3F3D56"/>
<path id="Vector_76" d="M241.257 198.57C242.9 198.57 244.231 196.322 244.231 193.549C244.231 190.775 242.9 188.527 241.257 188.527C239.615 188.527 238.283 190.775 238.283 193.549C238.283 196.322 239.615 198.57 241.257 198.57Z" fill="#3F3D56"/>
<path id="Vector_77" d="M251.531 198.57C253.173 198.57 254.504 196.322 254.504 193.549C254.504 190.775 253.173 188.527 251.531 188.527C249.888 188.527 248.557 190.775 248.557 193.549C248.557 196.322 249.888 198.57 251.531 198.57Z" fill="#3F3D56"/>
<path id="Vector_78" d="M343.717 189.769H336.42C336.276 189.775 336.139 189.873 336.038 190.044C335.937 190.214 335.881 190.443 335.881 190.681C335.881 190.919 335.937 191.148 336.038 191.319C336.139 191.489 336.276 191.588 336.42 191.593H343.717C343.862 191.59 344.001 191.492 344.103 191.322C344.205 191.151 344.262 190.921 344.262 190.681C344.262 190.441 344.205 190.211 344.103 190.041C344.001 189.87 343.862 189.772 343.717 189.769Z" fill="#3F3D56"/>
<path id="Vector_79" d="M343.718 193.195H336.421C336.277 193.2 336.139 193.298 336.038 193.469C335.937 193.639 335.881 193.868 335.881 194.107C335.881 194.345 335.937 194.574 336.038 194.745C336.139 194.915 336.277 195.014 336.421 195.019H343.718C343.863 195.016 344.002 194.919 344.104 194.748C344.206 194.577 344.263 194.347 344.263 194.107C344.263 193.867 344.206 193.637 344.104 193.466C344.002 193.295 343.863 193.198 343.718 193.195V193.195Z" fill="#3F3D56"/>
<path id="Vector_80" d="M343.717 196.62H336.42C336.276 196.626 336.139 196.724 336.038 196.895C335.937 197.065 335.881 197.294 335.881 197.532C335.881 197.771 335.937 198 336.038 198.17C336.139 198.341 336.276 198.439 336.42 198.445H343.717C343.862 198.441 344.001 198.344 344.103 198.173C344.205 198.002 344.262 197.772 344.262 197.532C344.262 197.293 344.205 197.063 344.103 196.892C344.001 196.721 343.862 196.624 343.717 196.62V196.62Z" fill="#3F3D56"/>
<path id="Vector_81" d="M233.301 224.003H230.68C229.885 224.003 229.24 225.067 229.24 226.38C229.24 227.693 229.885 228.757 230.68 228.757H233.301C234.096 228.757 234.741 227.693 234.741 226.38C234.741 225.067 234.096 224.003 233.301 224.003Z" fill="#E6E6E6"/>
<path id="Vector_82" d="M263.288 224.003H260.666C259.871 224.003 259.227 225.067 259.227 226.38C259.227 227.693 259.871 228.757 260.666 228.757H263.288C264.083 228.757 264.727 227.693 264.727 226.38C264.727 225.067 264.083 224.003 263.288 224.003Z" fill="#E6E6E6"/>
<path id="Vector_83" d="M271.784 224.003H269.162C268.367 224.003 267.723 225.067 267.723 226.38C267.723 227.693 268.367 228.757 269.162 228.757H271.784C272.579 228.757 273.223 227.693 273.223 226.38C273.223 225.067 272.579 224.003 271.784 224.003Z" fill="#E6E6E6"/>
<path id="Vector_84" d="M255.131 223.606H238.836C238.041 223.606 237.396 224.671 237.396 225.984C237.396 227.297 238.041 228.361 238.836 228.361H255.131C255.926 228.361 256.571 227.297 256.571 225.984C256.571 224.671 255.926 223.606 255.131 223.606Z" fill="#E6E6E6"/>
<path id="Vector_85" d="M295.114 223.606H278.818C278.023 223.606 277.379 224.671 277.379 225.984C277.379 227.297 278.023 228.361 278.818 228.361H295.114C295.909 228.361 296.553 227.297 296.553 225.984C296.553 224.671 295.909 223.606 295.114 223.606Z" fill="#E6E6E6"/>
<path id="Vector_86" d="M241.298 234.734H238.676C237.881 234.734 237.236 235.798 237.236 237.111C237.236 238.424 237.881 239.488 238.676 239.488H241.298C242.093 239.488 242.737 238.424 242.737 237.111C242.737 235.798 242.093 234.734 241.298 234.734Z" fill="#E6E6E6"/>
<path id="Vector_87" d="M271.284 234.734H268.662C267.867 234.734 267.223 235.798 267.223 237.111C267.223 238.424 267.867 239.488 268.662 239.488H271.284C272.079 239.488 272.723 238.424 272.723 237.111C272.723 235.798 272.079 234.734 271.284 234.734Z" fill="#E6E6E6"/>
<path id="Vector_88" d="M279.78 234.734H277.158C276.363 234.734 275.719 235.798 275.719 237.111C275.719 238.424 276.363 239.488 277.158 239.488H279.78C280.575 239.488 281.219 238.424 281.219 237.111C281.219 235.798 280.575 234.734 279.78 234.734Z" fill="#E6E6E6"/>
<path id="Vector_89" d="M263.128 234.337H246.832C246.037 234.337 245.393 235.401 245.393 236.714C245.393 238.027 246.037 239.092 246.832 239.092H263.128C263.922 239.092 264.567 238.027 264.567 236.714C264.567 235.401 263.922 234.337 263.128 234.337Z" fill="#E6E6E6"/>
<path id="Vector_90" d="M303.11 234.337H286.814C286.019 234.337 285.375 235.401 285.375 236.714C285.375 238.027 286.019 239.092 286.814 239.092H303.11C303.905 239.092 304.549 238.027 304.549 236.714C304.549 235.401 303.905 234.337 303.11 234.337Z" fill="#E6E6E6"/>
<path id="Vector_91" d="M249.294 245.464H246.672C245.877 245.464 245.232 246.529 245.232 247.842C245.232 249.154 245.877 250.219 246.672 250.219H249.294C250.089 250.219 250.733 249.154 250.733 247.842C250.733 246.529 250.089 245.464 249.294 245.464Z" fill="#E6E6E6"/>
<path id="Vector_92" d="M279.28 245.464H276.658C275.863 245.464 275.219 246.529 275.219 247.842C275.219 249.154 275.863 250.219 276.658 250.219H279.28C280.075 250.219 280.719 249.154 280.719 247.842C280.719 246.529 280.075 245.464 279.28 245.464Z" fill="#E6E6E6"/>
<path id="Vector_93" d="M287.776 245.464H285.154C284.359 245.464 283.715 246.529 283.715 247.842C283.715 249.154 284.359 250.219 285.154 250.219H287.776C288.571 250.219 289.215 249.154 289.215 247.842C289.215 246.529 288.571 245.464 287.776 245.464Z" fill="#E6E6E6"/>
<path id="Vector_94" d="M271.124 245.068H254.828C254.033 245.068 253.389 246.132 253.389 247.445C253.389 248.758 254.033 249.823 254.828 249.823H271.124C271.919 249.823 272.563 248.758 272.563 247.445C272.563 246.132 271.919 245.068 271.124 245.068Z" fill="#E6E6E6"/>
<path id="Vector_95" d="M311.106 245.068H294.81C294.015 245.068 293.371 246.132 293.371 247.445C293.371 248.758 294.015 249.823 294.81 249.823H311.106C311.901 249.823 312.545 248.758 312.545 247.445C312.545 246.132 311.901 245.068 311.106 245.068Z" fill="#E6E6E6"/>
<path id="Vector_96" d="M257.29 256.195H254.668C253.873 256.195 253.229 257.259 253.229 258.572C253.229 259.885 253.873 260.95 254.668 260.95H257.29C258.085 260.95 258.729 259.885 258.729 258.572C258.729 257.259 258.085 256.195 257.29 256.195Z" fill="#E6E6E6"/>
<path id="Vector_97" d="M287.278 256.195H284.656C283.861 256.195 283.217 257.259 283.217 258.572C283.217 259.885 283.861 260.95 284.656 260.95H287.278C288.073 260.95 288.717 259.885 288.717 258.572C288.717 257.259 288.073 256.195 287.278 256.195Z" fill="#E6E6E6"/>
<path id="Vector_98" d="M295.774 256.195H293.152C292.357 256.195 291.713 257.259 291.713 258.572C291.713 259.885 292.357 260.95 293.152 260.95H295.774C296.569 260.95 297.213 259.885 297.213 258.572C297.213 257.259 296.569 256.195 295.774 256.195Z" fill="#E6E6E6"/>
<path id="Vector_99" d="M279.12 255.799H262.824C262.029 255.799 261.385 256.863 261.385 258.176C261.385 259.489 262.029 260.553 262.824 260.553H279.12C279.915 260.553 280.559 259.489 280.559 258.176C280.559 256.863 279.915 255.799 279.12 255.799Z" fill="#E6E6E6"/>
<path id="Vector_100" d="M263.288 298.865H260.666C259.871 298.865 259.227 299.929 259.227 301.242C259.227 302.555 259.871 303.619 260.666 303.619H263.288C264.083 303.619 264.727 302.555 264.727 301.242C264.727 299.929 264.083 298.865 263.288 298.865Z" fill="#E6E6E6"/>
<path id="Vector_101" d="M271.784 298.865H269.162C268.367 298.865 267.723 299.929 267.723 301.242C267.723 302.555 268.367 303.619 269.162 303.619H271.784C272.579 303.619 273.223 302.555 273.223 301.242C273.223 299.929 272.579 298.865 271.784 298.865Z" fill="#E6E6E6"/>
<path id="Vector_102" d="M295.114 299.261H278.818C278.023 299.261 277.379 300.326 277.379 301.638C277.379 302.951 278.023 304.016 278.818 304.016H295.114C295.909 304.016 296.553 302.951 296.553 301.638C296.553 300.326 295.909 299.261 295.114 299.261Z" fill="#E6E6E6"/>
<path id="Vector_103" d="M233.301 298.865H230.68C229.885 298.865 229.24 299.929 229.24 301.242C229.24 302.555 229.885 303.619 230.68 303.619H233.301C234.096 303.619 234.741 302.555 234.741 301.242C234.741 299.929 234.096 298.865 233.301 298.865Z" fill="#E6E6E6"/>
<path id="Vector_104" d="M255.131 299.261H238.836C238.041 299.261 237.396 300.326 237.396 301.638C237.396 302.951 238.041 304.016 238.836 304.016H255.131C255.926 304.016 256.571 302.951 256.571 301.638C256.571 300.326 255.926 299.261 255.131 299.261Z" fill="#E6E6E6"/>
<path id="Vector_105" d="M241.298 288.134H238.676C237.881 288.134 237.236 289.199 237.236 290.512C237.236 291.824 237.881 292.889 238.676 292.889H241.298C242.093 292.889 242.737 291.824 242.737 290.512C242.737 289.199 242.093 288.134 241.298 288.134Z" fill="#E6E6E6"/>
<path id="Vector_106" d="M271.284 288.134H268.662C267.867 288.134 267.223 289.199 267.223 290.512C267.223 291.824 267.867 292.889 268.662 292.889H271.284C272.079 292.889 272.723 291.824 272.723 290.512C272.723 289.199 272.079 288.134 271.284 288.134Z" fill="#E6E6E6"/>
<path id="Vector_107" d="M279.78 288.134H277.158C276.363 288.134 275.719 289.199 275.719 290.512C275.719 291.824 276.363 292.889 277.158 292.889H279.78C280.575 292.889 281.219 291.824 281.219 290.512C281.219 289.199 280.575 288.134 279.78 288.134Z" fill="#E6E6E6"/>
<path id="Vector_108" d="M263.128 288.531H246.832C246.037 288.531 245.393 289.595 245.393 290.908C245.393 292.221 246.037 293.285 246.832 293.285H263.128C263.922 293.285 264.567 292.221 264.567 290.908C264.567 289.595 263.922 288.531 263.128 288.531Z" fill="#E6E6E6"/>
<path id="Vector_109" d="M249.294 277.404H246.672C245.877 277.404 245.232 278.468 245.232 279.781C245.232 281.094 245.877 282.158 246.672 282.158H249.294C250.089 282.158 250.733 281.094 250.733 279.781C250.733 278.468 250.089 277.404 249.294 277.404Z" fill="#E6E6E6"/>
<path id="Vector_110" d="M279.28 277.404H276.658C275.863 277.404 275.219 278.468 275.219 279.781C275.219 281.094 275.863 282.158 276.658 282.158H279.28C280.075 282.158 280.719 281.094 280.719 279.781C280.719 278.468 280.075 277.404 279.28 277.404Z" fill="#E6E6E6"/>
<path id="Vector_111" d="M287.776 277.404H285.154C284.359 277.404 283.715 278.468 283.715 279.781C283.715 281.094 284.359 282.158 285.154 282.158H287.776C288.571 282.158 289.215 281.094 289.215 279.781C289.215 278.468 288.571 277.404 287.776 277.404Z" fill="#E6E6E6"/>
<path id="Vector_112" d="M271.124 277.8H254.828C254.033 277.8 253.389 278.864 253.389 280.177C253.389 281.49 254.033 282.554 254.828 282.554H271.124C271.919 282.554 272.563 281.49 272.563 280.177C272.563 278.864 271.919 277.8 271.124 277.8Z" fill="#E6E6E6"/>
<path id="Vector_113" d="M257.29 266.673H254.668C253.873 266.673 253.229 267.737 253.229 269.05C253.229 270.363 253.873 271.427 254.668 271.427H257.29C258.085 271.427 258.729 270.363 258.729 269.05C258.729 267.737 258.085 266.673 257.29 266.673Z" fill="#E6E6E6"/>
<path id="Vector_114" d="M287.278 266.673H284.656C283.861 266.673 283.217 267.737 283.217 269.05C283.217 270.363 283.861 271.427 284.656 271.427H287.278C288.073 271.427 288.717 270.363 288.717 269.05C288.717 267.737 288.073 266.673 287.278 266.673Z" fill="#E6E6E6"/>
<path id="Vector_115" d="M295.774 266.673H293.152C292.357 266.673 291.713 267.737 291.713 269.05C291.713 270.363 292.357 271.427 293.152 271.427H295.774C296.569 271.427 297.213 270.363 297.213 269.05C297.213 267.737 296.569 266.673 295.774 266.673Z" fill="#E6E6E6"/>
<path id="Vector_116" d="M279.12 267.069H262.824C262.029 267.069 261.385 268.133 261.385 269.446C261.385 270.759 262.029 271.824 262.824 271.824H279.12C279.915 271.824 280.559 270.759 280.559 269.446C280.559 268.133 279.915 267.069 279.12 267.069Z" fill="#E6E6E6"/>
<path id="Vector_117" d="M351.434 453.886C351.129 454.141 350.819 454.397 350.514 454.645C342.618 461.166 336.301 464.872 327.659 468.933C326.93 455.479 326.225 431.83 325.54 417.17C325.361 413.365 325.181 410.17 325.006 407.917C324.962 406.719 324.813 405.537 324.566 404.409L324.596 407.917L324.671 417.17L325.106 470.089C314.357 474.786 303.315 477.415 292.2 477.922C291.621 477.947 291.051 477.964 290.501 477.98C290.306 477.988 290.116 477.997 289.926 477.997C289.302 478.005 288.682 478.013 288.057 478.013C276.344 478.027 264.674 475.691 253.303 471.055C253.548 457.74 253.792 434.356 254.027 417.17C254.077 413.81 254.122 410.682 254.172 407.917C254.267 402.007 254.367 397.747 254.462 396.319C254.378 396.572 254.313 396.841 254.267 397.12C253.804 400.679 253.489 404.287 253.323 407.917C253.148 410.682 252.973 413.81 252.798 417.17C251.868 435.024 250.899 459.3 249.899 469.594C243.95 466.911 238.112 463.594 232.422 459.664C229.423 457.6 226.478 455.374 223.586 452.986C224.136 447.043 224.71 440.381 225.3 433.472C225.76 428.115 226.235 422.61 226.72 417.17C227.469 408.767 228.239 400.529 229.019 393.273C230.158 382.675 231.327 374.156 232.487 370.244C233.586 366.529 234.686 362.864 235.751 359.356C236.12 358.126 236.49 356.913 236.85 355.732C236.935 355.452 237.02 355.179 237.105 354.907C237.87 352.422 238.609 350.045 239.314 347.816C239.919 345.91 240.493 344.11 241.038 342.451C242.358 338.423 243.477 335.212 244.307 333.181C247.775 324.492 252.939 318.023 258.94 314.848L259.09 314.782L259.195 314.857L269.415 309.673L270.91 308.913L271.914 308.402L275.453 303.952L277.377 301.534L279.181 299.264L282.71 294.831L304.555 297.052L308.808 313.965L318.334 319.718L318.499 319.595L318.644 319.495L318.793 319.561C324.794 322.739 329.957 329.207 333.427 337.895C333.897 339.058 334.466 340.594 335.111 342.451C335.661 344.028 336.261 345.827 336.91 347.816C337.835 350.648 338.845 353.842 339.914 357.301C340.149 358.06 340.389 358.836 340.629 359.62C341.074 361.073 341.525 362.556 341.983 364.069C343.048 367.577 344.147 371.242 345.247 374.965C346.201 378.193 347.166 384.829 348.115 393.273C348.9 400.29 349.68 408.561 350.434 417.17C351.424 428.33 350.369 441.694 351.264 451.962C351.319 452.614 351.379 453.25 351.434 453.886Z" fill="#CCCCCC"/>
<path id="Vector_118" d="M288.364 281.331C302.396 281.331 313.771 262.544 313.771 239.368C313.771 216.193 302.396 197.406 288.364 197.406C274.332 197.406 262.957 216.193 262.957 239.368C262.957 262.544 274.332 281.331 288.364 281.331Z" fill="#A0616A"/>
<path id="Vector_119" d="M330.262 183.76C329.76 181.823 329.091 180.017 328.278 178.394C324.419 170.611 317.403 167.185 310.201 176.397C308.815 175.885 307.369 176.023 306.028 176.793C305.394 177.172 304.801 177.712 304.268 178.394C303.178 179.799 302.327 181.648 301.8 183.76C301.518 184.875 301.332 186.051 301.25 187.251C299.47 185.724 297.585 184.552 295.637 183.76C290.857 181.796 285.859 181.796 281.079 183.76C279.547 184.4 278.072 185.365 276.691 186.632C274.352 188.861 273.007 191.676 272.768 194.804C269.394 195.118 265.886 198.048 263.272 202.852C262.977 203.389 262.692 203.95 262.427 204.528C260.229 209.278 259.048 215.099 259.069 221.078V222.126H259.703C261.442 222.124 263.165 222.679 264.776 223.761C265.82 224.453 266.808 225.354 267.72 226.443C268.316 227.142 268.879 227.915 269.404 228.755C270.621 230.701 271.653 232.942 272.463 235.399C274.539 241.611 275.259 248.812 274.502 255.796C274.328 257.413 274.074 259.003 273.742 260.551C273.27 262.759 272.648 264.872 271.888 266.849C271.858 266.923 271.833 266.997 271.803 267.072C271.468 267.955 271.148 268.855 270.848 269.763C270.623 270.439 270.414 271.133 270.219 271.826C269.649 273.756 269.168 275.754 268.779 277.802C268.084 281.426 267.674 285.182 267.56 288.979C267.525 289.986 267.515 290.993 267.535 292C267.565 294.596 267.737 297.182 268.05 299.726C268.095 300.073 268.14 300.411 268.185 300.758L268.549 303.391L269.414 309.673L270.014 313.998L270.569 318.01L271.388 316.07C271.668 315.409 272.373 313.379 273.317 310.506C273.942 308.633 274.667 306.396 275.451 303.952C276.546 300.527 277.745 296.705 278.92 292.891C279.395 291.348 279.864 289.813 280.319 288.31C281.179 285.462 281.988 282.714 282.683 280.27C283.323 278.017 283.868 276.019 284.272 274.418C284.397 275.466 284.502 276.531 284.582 277.604C284.672 278.694 284.737 279.8 284.772 280.906C284.782 281.071 284.787 281.244 284.792 281.41L284.812 282.086L284.817 282.285L285.347 282.4C288.402 282.941 291.483 282.979 294.543 282.516H294.548C298.602 282.012 302.579 280.42 306.323 277.802C308.449 276.279 310.434 274.267 312.22 271.826C313.054 270.685 313.833 269.438 314.549 268.095C314.729 267.757 314.904 267.418 315.074 267.072C316.063 265.064 316.909 262.876 317.598 260.551C318.058 259.016 318.449 257.427 318.767 255.796C320.686 246.196 320.576 234.219 318.437 219.989C319.015 219.805 319.568 219.453 320.071 218.948C321.641 217.388 322.73 214.293 323.07 210.512L323.61 210.752C325.523 209.28 327.228 207.159 328.613 204.528C328.887 203.992 329.144 203.433 329.382 202.852C331.826 196.909 331.846 189.777 330.262 183.76Z" fill="#2F2E41"/>
<path id="Vector_120" opacity="0.2" d="M246.734 393.237L250.981 366.169L254.731 389.526L246.734 393.237Z" fill="black"/>
<path id="Vector_121" d="M359.741 375.601C358.221 410.17 359.796 425.391 351.409 453.894C343.779 460.062 335.831 465.095 327.66 468.933C326.81 469.33 325.959 469.715 325.106 470.089C314.357 474.786 303.315 477.415 292.201 477.922C291.621 477.947 291.051 477.964 290.501 477.98C290.307 477.988 290.117 477.997 289.927 477.997C289.302 478.005 288.682 478.013 288.058 478.013C276.345 478.027 264.674 475.691 253.303 471.055C252.164 470.592 251.029 470.105 249.9 469.594C243.95 466.911 238.112 463.594 232.422 459.664C229.424 457.6 226.478 455.374 223.586 452.986C222.932 452.441 222.277 451.896 221.632 451.335C218.319 441.71 216.435 430.005 216.395 415.94C218.689 391.705 354.673 354.7 359.741 375.601Z" fill="#2F2E41"/>
<path id="Vector_122" opacity="0.2" d="M359.735 381.521C359.812 379.381 359.899 377.17 360 374.868C354.933 353.968 218.948 390.972 216.654 415.207C216.661 417.429 216.718 419.586 216.815 421.691C222.37 397.771 351.557 362.6 359.735 381.521Z" fill="black"/>
<g id="Vector_123" filter="url(#filter0_d_465_195)">
<path d="M225.132 283.334C225.165 282.586 225.1 281.835 224.943 281.131C224.785 280.427 224.539 279.787 224.219 279.254C223.899 278.721 223.514 278.307 223.089 278.04C222.664 277.774 222.21 277.661 221.757 277.708C221.588 277.719 221.42 277.754 221.254 277.812L201.382 285.227C200.938 285.405 200.522 285.734 200.159 286.194C199.797 286.654 199.497 287.234 199.279 287.897C198.987 287.915 198.698 287.985 198.415 288.104C197.797 288.336 197.212 288.766 196.695 289.371C196.177 289.976 195.736 290.743 195.398 291.629C195.06 292.515 194.831 293.502 194.724 294.534C194.617 295.567 194.634 296.624 194.774 297.645C194.914 298.666 195.175 299.632 195.541 300.487C195.907 301.342 196.371 302.07 196.908 302.628C197.991 303.756 199.301 304.127 200.55 303.66C201.261 303.387 201.926 302.856 202.497 302.104L209.231 333.422C209.567 334.403 210.087 335.179 210.712 335.632C211.337 336.085 212.034 336.192 212.7 335.937L225.618 331.115C226.278 330.859 226.872 330.265 227.315 329.417C227.758 328.569 228.026 327.512 228.082 326.396L225.132 283.334ZM200.252 301.43C199.36 301.762 198.425 301.497 197.651 300.692C196.877 299.887 196.329 298.608 196.125 297.136C195.921 295.664 196.079 294.118 196.565 292.838C197.05 291.558 197.823 290.648 198.714 290.308C198.776 290.282 198.839 290.308 198.902 290.282C198.897 291.227 199.043 292.157 199.326 292.978L201.79 300.082C201.361 300.754 200.829 301.22 200.252 301.43Z" fill="#2F2E41"/>
</g>
<path id="Vector_124" d="M221.757 277.708C221.946 281.856 217.645 286.627 211.884 288.519C206.594 290.308 201.854 289.064 200.52 285.797C200.788 285.534 201.079 285.342 201.383 285.227L221.255 277.812C221.42 277.754 221.588 277.719 221.757 277.708V277.708Z" fill="#3F3D56"/>
<path id="Vector_125" d="M208.015 383.009L219.177 373.792L209.875 332.313L207.424 311.394C207.105 308.677 206.36 306.145 205.264 304.051C204.167 301.958 202.757 300.376 201.175 299.465C199.592 298.554 197.892 298.344 196.245 298.858C194.599 299.371 193.062 300.589 191.79 302.391V302.391C189.904 305.06 188.72 308.836 188.487 312.92C188.255 317.004 188.992 321.077 190.544 324.28L199.643 343.066L208.015 383.009Z" fill="#A0616A"/>
<path id="Vector_126" d="M219.175 366.11L204.293 378.4L215.587 436.849C216.398 441.046 217.852 444.826 219.808 447.822C221.764 450.818 224.155 452.929 226.75 453.949V453.949C229.95 455.208 233.309 454.75 236.341 452.643C239.372 450.536 241.919 446.889 243.611 442.23L273.56 357.446C275.683 351.604 276.338 344.623 275.386 337.993C274.434 331.364 271.95 325.612 268.465 321.967V321.967C266.59 320.006 264.487 318.72 262.292 318.19C260.096 317.661 257.858 317.901 255.723 318.895C253.587 319.889 251.602 321.615 249.897 323.959C248.192 326.304 246.805 329.215 245.827 332.504L227.547 396.836L219.175 366.11Z" fill="#F2F2F2"/>
<path id="Vector_127" d="M214.573 313.289C214.546 313.289 214.518 313.282 214.492 313.267L211.243 311.419C211.204 311.397 211.168 311.359 211.14 311.309C211.112 311.258 211.092 311.197 211.082 311.131C211.072 311.064 211.072 310.995 211.082 310.928C211.092 310.862 211.112 310.801 211.14 310.75L213.557 306.404C213.579 306.364 213.606 306.332 213.635 306.309C213.665 306.286 213.697 306.272 213.73 306.27C213.763 306.268 213.796 306.276 213.827 306.294C213.858 306.313 213.886 306.341 213.91 306.378C213.935 306.415 213.954 306.459 213.968 306.508C213.982 306.558 213.99 306.611 213.991 306.665C213.992 306.72 213.987 306.774 213.976 306.825C213.965 306.876 213.947 306.922 213.925 306.962L211.766 310.844L214.655 312.486C214.711 312.518 214.758 312.582 214.788 312.666C214.818 312.75 214.83 312.848 214.82 312.945C214.81 313.041 214.78 313.129 214.735 313.192C214.69 313.255 214.633 313.289 214.573 313.289V313.289Z" fill="#6C63FF"/>
<path id="Vector_128" d="M219.026 311.784C218.976 311.784 218.928 311.759 218.886 311.713C218.845 311.667 218.813 311.602 218.795 311.526C218.776 311.449 218.771 311.366 218.782 311.285C218.792 311.205 218.817 311.131 218.852 311.074L221.049 307.567L218.098 305.559C218.068 305.538 218.04 305.508 218.017 305.47C217.994 305.432 217.975 305.386 217.963 305.336C217.95 305.286 217.943 305.232 217.943 305.178C217.943 305.124 217.95 305.07 217.962 305.02C217.975 304.97 217.993 304.924 218.016 304.886C218.039 304.848 218.067 304.817 218.097 304.796C218.128 304.776 218.16 304.765 218.193 304.765C218.226 304.765 218.258 304.776 218.289 304.796L221.592 307.045C221.63 307.071 221.664 307.112 221.69 307.165C221.717 307.218 221.734 307.281 221.742 307.348C221.75 307.416 221.748 307.485 221.735 307.55C221.723 307.616 221.7 307.675 221.671 307.722L219.2 311.667C219.153 311.742 219.091 311.784 219.026 311.784V311.784Z" fill="#6C63FF"/>
<path id="Vector_129" d="M215.256 315.814C215.231 315.814 215.206 315.808 215.182 315.796C215.151 315.78 215.122 315.754 215.097 315.719C215.071 315.685 215.05 315.642 215.035 315.594C215.02 315.546 215.01 315.494 215.007 315.44C215.004 315.386 215.007 315.331 215.017 315.28L217.323 302.898C217.343 302.794 217.387 302.707 217.445 302.656C217.504 302.605 217.572 302.594 217.636 302.627C217.699 302.659 217.752 302.731 217.783 302.828C217.814 302.924 217.82 303.037 217.801 303.141L215.495 315.523C215.479 315.607 215.447 315.681 215.404 315.733C215.361 315.786 215.309 315.814 215.256 315.814Z" fill="#6C63FF"/>
</g>
</g>
<defs>
<filter id="filter0_d_465_195" x="190.654" y="277.698" width="41.4277" height="66.3745" filterUnits="userSpaceOnUse" color-interpolation-filters="sRGB">
<feFlood flood-opacity="0" result="BackgroundImageFix"/>
<feColorMatrix in="SourceAlpha" type="matrix" values="0 0 0 0 0 0 0 0 0 0 0 0 0 0 0 0 0 0 127 0" result="hardAlpha"/>
<feOffset dy="4"/>
<feGaussianBlur stdDeviation="2"/>
<feComposite in2="hardAlpha" operator="out"/>
<feColorMatrix type="matrix" values="0 0 0 0 0 0 0 0 0 0 0 0 0 0 0 0 0 0 0.25 0"/>
<feBlend mode="normal" in2="BackgroundImageFix" result="effect1_dropShadow_465_195"/>
<feBlend mode="normal" in="SourceGraphic" in2="effect1_dropShadow_465_195" result="shape"/>
</filter>
<clipPath id="clip0_465_195">
<rect width="288.871" height="477.105" fill="white" transform="translate(143.621 0.908203)"/>
</clipPath>
</defs>
</svg>
