<svg width="486" height="484" viewBox="0 0 486 484" fill="none" xmlns="http://www.w3.org/2000/svg">
<g clip-path="url(#clip0_368_230)">
<path d="M320.458 128.097H240.716C238.971 128.103 237.247 127.71 235.676 126.948C234.105 126.187 232.728 125.077 231.651 123.704C230.554 122.317 229.787 120.699 229.41 118.971C229.033 117.244 229.055 115.453 229.474 113.736C236.824 82.9528 236.823 50.872 229.474 20.0889C229.055 18.3714 229.033 16.5809 229.41 14.8537C229.787 13.1265 230.554 11.5081 231.651 10.1216C232.728 8.74805 234.105 7.63836 235.676 6.87701C237.247 6.11566 238.971 5.72271 240.716 5.72808H320.458C323.211 5.73599 325.872 6.72092 327.967 8.50744C330.062 10.294 331.454 12.7661 331.897 15.4835C337.145 49.5688 337.145 84.2565 331.897 118.342C331.454 121.059 330.062 123.531 327.967 125.318C325.872 127.104 323.211 128.089 320.458 128.097Z" fill="#E6E6E6"/>
<path d="M240.718 11.7281C239.879 11.7252 239.051 11.9137 238.297 12.279C237.542 12.6444 236.881 13.177 236.363 13.8365C235.83 14.5121 235.458 15.3004 235.275 16.1414C235.093 16.9825 235.104 17.8541 235.309 18.69C242.879 50.3929 242.879 83.4323 235.31 115.135C235.105 115.971 235.093 116.842 235.275 117.683C235.458 118.524 235.83 119.312 236.363 119.988L236.363 119.988C236.881 120.648 237.542 121.181 238.297 121.546C239.051 121.912 239.879 122.1 240.718 122.097H320.459C321.781 122.098 323.061 121.629 324.069 120.774C325.078 119.919 325.751 118.734 325.968 117.43C331.123 83.9491 331.123 49.8762 325.968 16.395C325.751 15.0908 325.078 13.9058 324.069 13.0511C323.061 12.1965 321.781 11.7276 320.459 11.728L240.718 11.7281Z" fill="white"/>
<path d="M303.058 40.5786H261.213C259.622 40.5768 258.097 39.9441 256.972 38.8193C255.847 37.6945 255.215 36.1695 255.213 34.5788V32.2341C255.215 30.6434 255.847 29.1184 256.972 27.9936C258.097 26.8688 259.622 26.2361 261.213 26.2344H303.058C304.648 26.2361 306.173 26.8688 307.298 27.9936C308.423 29.1184 309.056 30.6434 309.057 32.2341V34.5788C309.056 36.1695 308.423 37.6946 307.298 38.8194C306.173 39.9442 304.648 40.5768 303.058 40.5786Z" fill="#E6E6E6"/>
<path d="M303.058 70.2045H261.213C259.622 70.2028 258.097 69.5701 256.972 68.4453C255.847 67.3205 255.215 65.7954 255.213 64.2047V61.8601C255.215 60.2694 255.847 58.7443 256.972 57.6195C258.097 56.4947 259.622 55.8621 261.213 55.8604H303.058C304.648 55.8621 306.173 56.4947 307.298 57.6195C308.423 58.7443 309.056 60.2694 309.057 61.8601V64.2047C309.056 65.7954 308.423 67.3205 307.298 68.4453C306.173 69.5701 304.648 70.2028 303.058 70.2045Z" fill="#E6E6E6"/>
<path d="M303.058 99.8305H261.213C259.622 99.8287 258.097 99.1961 256.972 98.0713C255.847 96.9465 255.215 95.4214 255.213 93.8307V91.4861C255.215 89.8954 255.847 88.3703 256.972 87.2455C258.097 86.1207 259.622 85.4881 261.213 85.4863H303.058C304.648 85.4881 306.173 86.1207 307.298 87.2455C308.423 88.3703 309.056 89.8954 309.057 91.4861V93.8307C309.056 95.4214 308.423 96.9465 307.298 98.0713C306.173 99.1961 304.648 99.8287 303.058 99.8305Z" fill="#E6E6E6"/>
<path d="M470.458 204.097H390.716C388.971 204.103 387.247 203.71 385.676 202.948C384.105 202.187 382.728 201.077 381.651 199.704C380.554 198.317 379.787 196.699 379.41 194.971C379.033 193.244 379.055 191.453 379.474 189.736C386.824 158.953 386.823 126.872 379.474 96.0889C379.055 94.3714 379.033 92.5809 379.41 90.8537C379.787 89.1265 380.554 87.5081 381.651 86.1216C382.728 84.748 384.105 83.6384 385.676 82.877C387.247 82.1157 388.971 81.7227 390.716 81.7281H470.458C473.211 81.736 475.872 82.7209 477.967 84.5074C480.062 86.294 481.454 88.7661 481.897 91.4835C487.145 125.569 487.145 160.257 481.897 194.342C481.454 197.059 480.062 199.531 477.967 201.318C475.872 203.104 473.211 204.089 470.458 204.097Z" fill="#E6E6E6"/>
<path d="M390.718 87.7281C389.879 87.7252 389.051 87.9137 388.297 88.279C387.542 88.6444 386.881 89.177 386.363 89.8365C385.83 90.5121 385.458 91.3004 385.275 92.1414C385.093 92.9825 385.104 93.8541 385.309 94.69C392.879 126.393 392.879 159.432 385.31 191.135C385.105 191.971 385.093 192.842 385.275 193.683C385.458 194.524 385.83 195.312 386.363 195.988L386.363 195.988C386.881 196.648 387.542 197.181 388.297 197.546C389.051 197.912 389.879 198.1 390.718 198.097H470.459C471.781 198.098 473.061 197.629 474.069 196.774C475.078 195.919 475.751 194.734 475.968 193.43C481.123 159.949 481.123 125.876 475.968 92.3951C475.751 91.0908 475.078 89.9058 474.069 89.0511C473.061 88.1965 471.781 87.7276 470.459 87.728L390.718 87.7281Z" fill="white"/>
<path d="M311.458 290.597H231.717C229.895 290.603 228.097 290.193 226.458 289.398C224.819 288.604 223.383 287.446 222.258 286.013C221.114 284.568 220.315 282.88 219.922 281.079C219.528 279.277 219.551 277.41 219.988 275.619C227.319 244.913 227.319 212.912 219.988 182.206C219.551 180.415 219.528 178.548 219.922 176.746C220.315 174.945 221.114 173.258 222.258 171.812C223.382 170.379 224.819 169.221 226.458 168.427C228.097 167.633 229.895 167.223 231.717 167.228H311.458C314.33 167.237 317.107 168.265 319.292 170.129C321.477 171.993 322.93 174.572 323.391 177.407C328.647 211.543 328.647 246.282 323.391 280.418C322.93 283.253 321.477 285.832 319.292 287.697C317.107 289.561 314.33 290.589 311.458 290.597Z" fill="#F2F2F2"/>
<path d="M453.058 131.579H411.213C409.622 131.577 408.097 130.944 406.972 129.82C405.847 128.695 405.215 127.17 405.213 125.579V123.234C405.215 121.644 405.847 120.119 406.972 118.994C408.097 117.869 409.622 117.236 411.213 117.235H453.058C454.648 117.236 456.173 117.869 457.298 118.994C458.423 120.119 459.056 121.644 459.057 123.234V125.579C459.056 127.17 458.423 128.695 457.298 129.82C456.173 130.944 454.648 131.577 453.058 131.579Z" fill="#E6E6E6"/>
<path d="M453.058 161.204H411.213C409.622 161.203 408.097 160.57 406.972 159.445C405.847 158.32 405.215 156.795 405.213 155.205V152.86C405.215 151.269 405.847 149.744 406.972 148.62C408.097 147.495 409.622 146.862 411.213 146.86H453.058C454.648 146.862 456.173 147.495 457.298 148.62C458.423 149.744 459.056 151.269 459.057 152.86V155.205C459.056 156.795 458.423 158.32 457.298 159.445C456.173 160.57 454.648 161.203 453.058 161.204Z" fill="#E6E6E6"/>
<path d="M271.811 251.5C284.513 251.5 294.811 241.203 294.811 228.5C294.811 215.797 284.513 205.5 271.811 205.5C259.108 205.5 248.811 215.797 248.811 228.5C248.811 241.203 259.108 251.5 271.811 251.5Z" fill="white"/>
<path d="M282.811 225.5H274.811V217.5C274.811 216.704 274.494 215.941 273.932 215.379C273.369 214.816 272.606 214.5 271.811 214.5C271.015 214.5 270.252 214.816 269.689 215.379C269.127 215.941 268.811 216.704 268.811 217.5V225.5H260.811C260.015 225.5 259.252 225.816 258.689 226.379C258.127 226.941 257.811 227.704 257.811 228.5C257.811 229.296 258.127 230.059 258.689 230.621C259.252 231.184 260.015 231.5 260.811 231.5H268.811V239.5C268.811 240.296 269.127 241.059 269.689 241.621C270.252 242.184 271.015 242.5 271.811 242.5C272.606 242.5 273.369 242.184 273.932 241.621C274.494 241.059 274.811 240.296 274.811 239.5V231.5H282.811C283.606 231.5 284.369 231.184 284.932 230.621C285.494 230.059 285.811 229.296 285.811 228.5C285.811 227.704 285.494 226.941 284.932 226.379C284.369 225.816 283.606 225.5 282.811 225.5Z" fill="#E6E6E6"/>
<path d="M300.811 17H258.811C257.617 16.9987 256.474 16.5241 255.63 15.6805C254.786 14.8369 254.312 13.6931 254.311 12.5V4.5C254.312 3.30694 254.786 2.16313 255.63 1.3195C256.474 0.475881 257.617 0.00134456 258.811 0H300.811C302.004 0.00134456 303.147 0.475881 303.991 1.3195C304.835 2.16313 305.309 3.30694 305.311 4.5V12.5C305.309 13.6931 304.835 14.8369 303.991 15.6805C303.147 16.5241 302.004 16.9987 300.811 17Z" fill="#CCCCCC"/>
<path d="M452.811 94H410.811C409.617 93.9987 408.474 93.5241 407.63 92.6805C406.786 91.8369 406.312 90.6931 406.311 89.5V81.5C406.312 80.3069 406.786 79.1631 407.63 78.3195C408.474 77.4759 409.617 77.0013 410.811 77H452.811C454.004 77.0013 455.147 77.4759 455.991 78.3195C456.835 79.1631 457.309 80.3069 457.311 81.5V89.5C457.309 90.6931 456.835 91.8369 455.991 92.6805C455.147 93.5241 454.004 93.9987 452.811 94Z" fill="#CCCCCC"/>
<path d="M88.5957 471.061H100.856L104.689 423.773H88.5938L88.5957 471.061Z" fill="#FFB8B8"/>
<path d="M85.4688 467.058L109.613 467.057H109.614C111.634 467.057 113.635 467.455 115.502 468.228C117.368 469.002 119.065 470.135 120.493 471.564C121.922 472.993 123.056 474.689 123.829 476.555C124.602 478.422 125 480.423 125 482.444V482.944L85.4695 482.945L85.4688 467.058Z" fill="#F2F2F2"/>
<path d="M22.5958 471.061H34.8557L40.6887 423.773H22.5938L22.5958 471.061Z" fill="#FFB8B8"/>
<path d="M19.4688 467.058L43.6125 467.057H43.6136C45.6341 467.057 47.6349 467.455 49.5017 468.228C51.3685 469.002 53.0647 470.135 54.4935 471.564C55.9222 472.993 57.0556 474.689 57.8288 476.555C58.6021 478.422 59.0001 480.423 59 482.444V482.944L19.4695 482.945L19.4688 467.058Z" fill="#F2F2F2"/>
<path d="M24.7707 456.123C23.5201 456.122 22.3153 455.652 21.3957 454.804C20.902 454.354 20.5044 453.808 20.2268 453.201C19.9491 452.593 19.7972 451.935 19.7799 451.267L14.8633 275.054L84.6744 292.506L106.214 357.124C108.992 365.436 110.194 374.194 109.759 382.948L107.085 445.584C107.024 446.868 106.471 448.078 105.541 448.964C104.611 449.85 103.375 450.344 102.09 450.343H90.3815C89.1729 450.338 88.0066 449.898 87.0965 449.103C86.1864 448.307 85.5936 447.211 85.4266 446.014L77.0577 376.872C76.3264 371.478 74.4396 366.306 71.526 361.708L55.0565 335.632C54.9464 335.458 54.7851 335.322 54.5948 335.243C54.4045 335.164 54.1945 335.145 53.9933 335.19C53.7922 335.235 53.6099 335.341 53.4713 335.494C53.3327 335.646 53.2445 335.838 53.2189 336.042L40.2943 451.13C40.1555 452.298 39.6094 453.379 38.752 454.183C37.8947 454.987 36.7811 455.463 35.6073 455.527L25.0553 456.114C24.9604 456.119 24.8656 456.123 24.7707 456.123Z" fill="#2F2E41"/>
<path d="M73.0571 160.967C86.6218 160.967 97.6182 149.971 97.6182 136.406C97.6182 122.841 86.6218 111.845 73.0571 111.845C59.4924 111.845 48.4961 122.841 48.4961 136.406C48.4961 149.971 59.4924 160.967 73.0571 160.967Z" fill="#FFB8B8"/>
<path d="M84.341 299.672C83.9183 299.672 83.4974 299.618 83.088 299.513H83.0873L13.823 281.753C12.5846 281.436 11.5148 280.657 10.8335 279.575C10.1522 278.493 9.91123 277.192 10.1601 275.938L26.0673 190.247C27.0583 185.294 29.2367 180.655 32.4155 176.729C35.5942 172.803 39.6783 169.707 44.317 167.708C48.8369 165.707 53.7797 164.85 58.7092 165.212C63.6387 165.574 68.4034 167.144 72.5826 169.783C73.5524 170.388 74.5292 171.047 75.4852 171.744C79.3341 174.583 82.4729 178.275 84.6553 182.531C86.8377 186.787 88.0045 191.491 88.0641 196.273L89.329 294.602C89.3375 295.263 89.2149 295.919 88.9682 296.533C88.7216 297.147 88.3558 297.705 87.892 298.177C87.4282 298.648 86.8756 299.023 86.2661 299.28C85.6566 299.537 85.0023 299.67 84.341 299.672Z" fill="#3F3D56"/>
<path d="M20.9495 300.68C20.1233 299.464 19.5736 298.082 19.3394 296.63C19.1052 295.179 19.192 293.694 19.5938 292.28C19.9955 290.866 20.7025 289.557 21.6648 288.446C22.6271 287.334 23.8214 286.448 25.1635 285.848L22.0827 250.246L38.4087 259.094L38.8313 291.546C39.6896 293.867 39.6666 296.423 38.7664 298.729C37.8663 301.034 36.1517 302.93 33.9476 304.055C31.7434 305.181 29.2028 305.46 26.8072 304.837C24.4116 304.215 22.3274 302.736 20.9495 300.68H20.9495Z" fill="#FFB8B8"/>
<path d="M26.781 281.139C26.3204 281.139 25.8616 281.08 25.4153 280.966C24.4554 280.721 23.5796 280.222 22.8804 279.52C22.1812 278.818 21.6847 277.941 21.4434 276.98L13.4202 245.096C10.6163 233.96 11.9529 222.185 17.1814 211.961L33.9903 179.08C35.0528 175.143 37.6201 171.781 41.1386 169.72C44.657 167.659 48.8447 167.063 52.7984 168.061C54.769 168.559 56.6212 169.442 58.2477 170.661C59.8741 171.88 61.2424 173.41 62.2732 175.162C63.3252 176.938 64.0133 178.907 64.2972 180.952C64.5812 182.997 64.4554 185.078 63.9273 187.075L39.9998 240.58L40.284 272.616C40.2913 273.746 39.9515 274.852 39.3104 275.782C38.6694 276.713 37.758 277.425 36.6995 277.821L28.6922 280.794C28.0807 281.022 27.4335 281.139 26.781 281.139Z" fill="#3F3D56"/>
<path d="M141.318 287.585C139.858 287.418 138.452 286.933 137.199 286.163C135.946 285.394 134.877 284.36 134.067 283.133C133.258 281.906 132.727 280.516 132.512 279.062C132.298 277.607 132.405 276.124 132.825 274.715L103.832 253.826L121.189 247.224L146.06 268.073C148.38 268.937 150.302 270.622 151.462 272.808C152.622 274.994 152.94 277.53 152.356 279.935C151.771 282.34 150.325 284.447 148.291 285.857C146.256 287.267 143.776 287.882 141.318 287.585H141.318Z" fill="#FFB8B8"/>
<path d="M126.14 272.33C125.285 272.33 124.442 272.131 123.677 271.749L94.2781 257.032C84.0095 251.892 75.9568 243.198 71.6175 232.566L57.6602 198.376C55.3697 195.002 54.4968 190.863 55.2297 186.852C55.9626 182.84 58.2425 179.278 61.5779 176.932C63.2444 175.76 65.1275 174.931 67.1174 174.495C69.1073 174.058 71.1642 174.022 73.1683 174.388C75.1958 174.753 77.1309 175.516 78.8614 176.634C80.5918 177.752 82.0832 179.202 83.2491 180.9L108.194 233.94L132.66 254.622C133.521 255.354 134.138 256.332 134.425 257.426C134.712 258.519 134.657 259.674 134.267 260.734L131.297 268.743C130.909 269.793 130.209 270.699 129.29 271.339C128.366 271.984 127.267 272.331 126.14 272.33Z" fill="#3F3D56"/>
<path d="M67.9002 161.343C69.2052 161.914 71.8775 151.516 70.6804 149.436C68.9002 146.343 69.0054 146.365 67.8236 144.319C66.6418 142.273 66.3774 139.472 67.9078 137.672C69.4382 135.871 72.9798 136.11 73.6782 138.367C73.2289 134.08 77.4701 130.633 81.6712 129.664C85.8723 128.696 90.3037 129.297 94.5279 128.435C99.4303 127.435 104.531 123.325 102.575 117.934C102.239 117.037 101.737 116.211 101.094 115.5C98.8341 112.959 95.6729 111.874 92.582 110.825C86.152 108.643 79.546 106.433 72.7599 106.674C67.1685 106.966 61.7836 108.882 57.2642 112.187C52.7448 115.492 49.2868 120.043 47.3136 125.283C46.8459 126.594 46.4836 127.94 46.2301 129.308C43.9009 141.833 51.1738 154.186 62.9864 158.956L67.9002 161.343Z" fill="#2F2E41"/>
<path opacity="0.2" d="M38.9004 273.343L39.4574 240.414L56.9004 205.343L42.9004 241.343L38.9004 273.343Z" fill="black"/>
<path d="M197.078 355.982L123.439 325.387C121.825 324.722 120.384 323.698 119.225 322.392C118.067 321.086 117.221 319.533 116.753 317.851C116.272 316.15 116.185 314.361 116.5 312.621C116.814 310.882 117.521 309.236 118.568 307.811C137.165 282.204 149.474 252.578 154.498 221.331C154.77 219.585 155.437 217.923 156.448 216.472C157.459 215.022 158.788 213.822 160.332 212.962C161.855 212.107 163.552 211.61 165.295 211.51C167.037 211.41 168.78 211.708 170.39 212.383L244.029 242.979C246.568 244.042 248.648 245.973 249.897 248.426C251.146 250.88 251.483 253.697 250.849 256.376C242.618 289.867 229.308 321.9 211.384 351.363C209.933 353.702 207.698 355.451 205.078 356.297C202.458 357.143 199.623 357.031 197.078 355.982Z" fill="#E6E6E6"/>
<path d="M168.087 217.924C167.314 217.6 166.477 217.456 165.64 217.504C164.803 217.552 163.988 217.79 163.257 218.2C162.505 218.62 161.859 219.205 161.368 219.912C160.877 220.618 160.553 221.428 160.421 222.278C155.247 254.459 142.571 284.97 123.417 311.342C122.907 312.035 122.562 312.835 122.408 313.682C122.254 314.529 122.295 315.399 122.528 316.227L122.528 316.228C122.753 317.036 123.159 317.781 123.716 318.408C124.272 319.035 124.965 319.527 125.74 319.846L199.378 350.442C200.599 350.949 201.961 351.007 203.22 350.605C204.48 350.203 205.556 349.367 206.256 348.246C223.863 319.305 236.936 287.84 245.022 254.943C245.322 253.655 245.155 252.303 244.552 251.127C243.948 249.95 242.946 249.027 241.725 248.52L168.087 217.924Z" fill="white"/>
<path d="M207.297 286.031L168.655 269.976C167.186 269.364 166.021 268.195 165.414 266.725C164.807 265.254 164.807 263.603 165.416 262.134L166.316 259.968C166.928 258.5 168.097 257.335 169.567 256.727C171.038 256.12 172.689 256.121 174.158 256.73L212.801 272.785C214.269 273.397 215.435 274.566 216.042 276.037C216.649 277.507 216.648 279.158 216.039 280.628L215.14 282.793C214.528 284.261 213.358 285.427 211.888 286.034C210.418 286.641 208.767 286.64 207.297 286.031Z" fill="#3F3D56"/>
<path d="M195.93 313.39L157.288 297.335C155.819 296.723 154.654 295.553 154.047 294.083C153.439 292.613 153.44 290.962 154.049 289.492L154.949 287.327C155.561 285.859 156.73 284.693 158.2 284.086C159.67 283.479 161.322 283.48 162.791 284.088L201.434 300.144C202.902 300.756 204.067 301.925 204.675 303.395C205.282 304.865 205.281 306.517 204.672 307.986L203.773 310.151C203.161 311.62 201.991 312.785 200.521 313.392C199.051 314 197.4 313.999 195.93 313.39Z" fill="#3F3D56"/>
<path d="M222.781 247.582C222.202 247.581 221.629 247.469 221.093 247.251L182.156 231.509C181.05 231.06 180.167 230.192 179.702 229.093C179.236 227.995 179.224 226.757 179.67 225.65L182.669 218.233C183.116 217.127 183.985 216.244 185.084 215.778C186.182 215.312 187.421 215.301 188.528 215.748L227.466 231.491C228.571 231.94 229.454 232.808 229.92 233.906C230.385 235.005 230.397 236.243 229.951 237.35L226.952 244.767C226.615 245.597 226.039 246.309 225.296 246.81C224.553 247.311 223.677 247.58 222.781 247.582Z" fill="#CCCCCC"/>
<path d="M141 483.5H1C0.734784 483.5 0.480444 483.395 0.292908 483.207C0.105371 483.02 0 482.765 0 482.5C0 482.235 0.105371 481.98 0.292908 481.793C0.480444 481.605 0.734784 481.5 1 481.5H141C141.265 481.5 141.52 481.605 141.707 481.793C141.895 481.98 142 482.235 142 482.5C142 482.765 141.895 483.02 141.707 483.207C141.52 483.395 141.265 483.5 141 483.5Z" fill="#CCCCCC"/>
<path d="M273.264 33.184C273.264 32.6293 273.384 32.136 273.624 31.704C273.864 31.2667 274.197 30.928 274.624 30.688C275.056 30.4427 275.544 30.32 276.088 30.32C276.755 30.32 277.325 30.496 277.8 30.848C278.275 31.2 278.592 31.68 278.752 32.288H277.248C277.136 32.0533 276.976 31.8747 276.768 31.752C276.565 31.6293 276.333 31.568 276.072 31.568C275.651 31.568 275.309 31.7147 275.048 32.008C274.787 32.3013 274.656 32.6933 274.656 33.184C274.656 33.6747 274.787 34.0667 275.048 34.36C275.309 34.6533 275.651 34.8 276.072 34.8C276.333 34.8 276.565 34.7387 276.768 34.616C276.976 34.4933 277.136 34.3147 277.248 34.08H278.752C278.592 34.688 278.275 35.168 277.8 35.52C277.325 35.8667 276.755 36.04 276.088 36.04C275.544 36.04 275.056 35.92 274.624 35.68C274.197 35.4347 273.864 35.096 273.624 34.664C273.384 34.232 273.264 33.7387 273.264 33.184ZM283.829 33.816H282.437V35.24H281.141V33.816H279.749V32.592H281.141V31.16H282.437V32.592H283.829V33.816ZM289.036 33.816H287.644V35.24H286.348V33.816H284.956V32.592H286.348V31.16H287.644V32.592H289.036V33.816Z" fill="black"/>
<path d="M275.016 59.384V63.208C275.016 63.8 274.848 64.256 274.512 64.576C274.181 64.896 273.733 65.056 273.168 65.056C272.576 65.056 272.101 64.888 271.744 64.552C271.387 64.216 271.208 63.7387 271.208 63.12H272.568C272.568 63.3547 272.616 63.5333 272.712 63.656C272.808 63.7733 272.947 63.832 273.128 63.832C273.293 63.832 273.421 63.7787 273.512 63.672C273.603 63.5653 273.648 63.4107 273.648 63.208V59.384H275.016ZM276.032 62.76C276.032 62.3013 276.118 61.8987 276.288 61.552C276.464 61.2053 276.702 60.9387 277 60.752C277.299 60.5653 277.632 60.472 278 60.472C278.315 60.472 278.59 60.536 278.824 60.664C279.064 60.792 279.248 60.96 279.376 61.168V60.536H280.744V65H279.376V64.368C279.243 64.576 279.056 64.744 278.816 64.872C278.582 65 278.307 65.064 277.992 65.064C277.63 65.064 277.299 64.9707 277 64.784C276.702 64.592 276.464 64.3227 276.288 63.976C276.118 63.624 276.032 63.2187 276.032 62.76ZM279.376 62.768C279.376 62.4267 279.28 62.1573 279.088 61.96C278.902 61.7627 278.672 61.664 278.4 61.664C278.128 61.664 277.896 61.7627 277.704 61.96C277.518 62.152 277.424 62.4187 277.424 62.76C277.424 63.1013 277.518 63.3733 277.704 63.576C277.896 63.7733 278.128 63.872 278.4 63.872C278.672 63.872 278.902 63.7733 279.088 63.576C279.28 63.3787 279.376 63.1093 279.376 62.768ZM283.925 63.72L284.893 60.536H286.349L284.765 65H283.077L281.493 60.536H282.957L283.925 63.72ZM286.837 62.76C286.837 62.3013 286.922 61.8987 287.093 61.552C287.269 61.2053 287.506 60.9387 287.805 60.752C288.103 60.5653 288.437 60.472 288.805 60.472C289.119 60.472 289.394 60.536 289.629 60.664C289.869 60.792 290.053 60.96 290.181 61.168V60.536H291.549V65H290.181V64.368C290.047 64.576 289.861 64.744 289.621 64.872C289.386 65 289.111 65.064 288.797 65.064C288.434 65.064 288.103 64.9707 287.805 64.784C287.506 64.592 287.269 64.3227 287.093 63.976C286.922 63.624 286.837 63.2187 286.837 62.76ZM290.181 62.768C290.181 62.4267 290.085 62.1573 289.893 61.96C289.706 61.7627 289.477 61.664 289.205 61.664C288.933 61.664 288.701 61.7627 288.509 61.96C288.322 62.152 288.229 62.4187 288.229 62.76C288.229 63.1013 288.322 63.3733 288.509 63.576C288.701 63.7733 288.933 63.872 289.205 63.872C289.477 63.872 289.706 63.7733 289.893 63.576C290.085 63.3787 290.181 63.1093 290.181 62.768Z" fill="black"/>
<path d="M271.776 91.192C271.776 91.5173 271.701 91.816 271.552 92.088C271.403 92.3547 271.173 92.5707 270.864 92.736C270.555 92.9013 270.171 92.984 269.712 92.984H268.864V95H267.496V89.384H269.712C270.16 89.384 270.539 89.4613 270.848 89.616C271.157 89.7707 271.389 89.984 271.544 90.256C271.699 90.528 271.776 90.84 271.776 91.192ZM269.608 91.896C269.869 91.896 270.064 91.8347 270.192 91.712C270.32 91.5893 270.384 91.416 270.384 91.192C270.384 90.968 270.32 90.7947 270.192 90.672C270.064 90.5493 269.869 90.488 269.608 90.488H268.864V91.896H269.608ZM277.232 90.536L274.432 97.12H272.96L273.984 94.848L272.168 90.536H273.696L274.728 93.328L275.752 90.536H277.232ZM280.398 93.84V95H279.702C279.206 95 278.819 94.88 278.542 94.64C278.264 94.3947 278.126 93.9973 278.126 93.448V91.672H277.582V90.536H278.126V89.448H279.494V90.536H280.39V91.672H279.494V93.464C279.494 93.5973 279.526 93.6933 279.59 93.752C279.654 93.8107 279.76 93.84 279.91 93.84H280.398ZM284.087 90.488C284.599 90.488 285.01 90.6587 285.319 91C285.628 91.336 285.783 91.8 285.783 92.392V95H284.423V92.576C284.423 92.2773 284.346 92.0453 284.191 91.88C284.036 91.7147 283.828 91.632 283.567 91.632C283.306 91.632 283.098 91.7147 282.943 91.88C282.788 92.0453 282.711 92.2773 282.711 92.576V95H281.343V89.08H282.711V91.136C282.85 90.9387 283.039 90.7813 283.279 90.664C283.519 90.5467 283.788 90.488 284.087 90.488ZM288.949 95.064C288.512 95.064 288.117 94.9707 287.765 94.784C287.418 94.5973 287.144 94.3307 286.941 93.984C286.744 93.6373 286.645 93.232 286.645 92.768C286.645 92.3093 286.746 91.9067 286.949 91.56C287.152 91.208 287.429 90.9387 287.781 90.752C288.133 90.5653 288.528 90.472 288.965 90.472C289.402 90.472 289.797 90.5653 290.149 90.752C290.501 90.9387 290.778 91.208 290.981 91.56C291.184 91.9067 291.285 92.3093 291.285 92.768C291.285 93.2267 291.181 93.632 290.973 93.984C290.77 94.3307 290.49 94.5973 290.133 94.784C289.781 94.9707 289.386 95.064 288.949 95.064ZM288.949 93.88C289.21 93.88 289.432 93.784 289.613 93.592C289.8 93.4 289.893 93.1253 289.893 92.768C289.893 92.4107 289.802 92.136 289.621 91.944C289.445 91.752 289.226 91.656 288.965 91.656C288.698 91.656 288.477 91.752 288.301 91.944C288.125 92.1307 288.037 92.4053 288.037 92.768C288.037 93.1253 288.122 93.4 288.293 93.592C288.469 93.784 288.688 93.88 288.949 93.88ZM294.914 90.488C295.437 90.488 295.853 90.6587 296.162 91C296.477 91.336 296.634 91.8 296.634 92.392V95H295.274V92.576C295.274 92.2773 295.197 92.0453 295.042 91.88C294.887 91.7147 294.679 91.632 294.418 91.632C294.157 91.632 293.949 91.7147 293.794 91.88C293.639 92.0453 293.562 92.2773 293.562 92.576V95H292.194V90.536H293.562V91.128C293.701 90.9307 293.887 90.776 294.122 90.664C294.357 90.5467 294.621 90.488 294.914 90.488Z" fill="black"/>
<path d="M421.224 122.384L419.76 128H418.104L417.208 124.304L416.28 128H414.624L413.2 122.384H414.664L415.472 126.472L416.472 122.384H417.976L418.936 126.472L419.752 122.384H421.224ZM426.301 125.696C426.301 125.824 426.293 125.957 426.277 126.096H423.181C423.203 126.373 423.291 126.587 423.445 126.736C423.605 126.88 423.8 126.952 424.029 126.952C424.371 126.952 424.608 126.808 424.741 126.52H426.197C426.123 126.813 425.987 127.077 425.789 127.312C425.597 127.547 425.355 127.731 425.061 127.864C424.768 127.997 424.44 128.064 424.077 128.064C423.64 128.064 423.251 127.971 422.909 127.784C422.568 127.597 422.301 127.331 422.109 126.984C421.917 126.637 421.821 126.232 421.821 125.768C421.821 125.304 421.915 124.899 422.101 124.552C422.293 124.205 422.56 123.939 422.901 123.752C423.243 123.565 423.635 123.472 424.077 123.472C424.509 123.472 424.893 123.563 425.229 123.744C425.565 123.925 425.827 124.184 426.013 124.52C426.205 124.856 426.301 125.248 426.301 125.696ZM424.901 125.336C424.901 125.101 424.821 124.915 424.661 124.776C424.501 124.637 424.301 124.568 424.061 124.568C423.832 124.568 423.637 124.635 423.477 124.768C423.323 124.901 423.227 125.091 423.189 125.336H424.901ZM428.574 124.168C428.702 123.96 428.886 123.792 429.126 123.664C429.366 123.536 429.641 123.472 429.95 123.472C430.318 123.472 430.652 123.565 430.95 123.752C431.249 123.939 431.484 124.205 431.654 124.552C431.83 124.899 431.918 125.301 431.918 125.76C431.918 126.219 431.83 126.624 431.654 126.976C431.484 127.323 431.249 127.592 430.95 127.784C430.652 127.971 430.318 128.064 429.95 128.064C429.636 128.064 429.361 128.003 429.126 127.88C428.892 127.752 428.708 127.584 428.574 127.376V128H427.206V122.08H428.574V124.168ZM430.526 125.76C430.526 125.419 430.43 125.152 430.238 124.96C430.052 124.763 429.82 124.664 429.542 124.664C429.27 124.664 429.038 124.763 428.846 124.96C428.66 125.157 428.566 125.427 428.566 125.768C428.566 126.109 428.66 126.379 428.846 126.576C429.038 126.773 429.27 126.872 429.542 126.872C429.814 126.872 430.046 126.773 430.238 126.576C430.43 126.373 430.526 126.101 430.526 125.76ZM436.802 122.384C437.394 122.384 437.911 122.501 438.354 122.736C438.797 122.971 439.138 123.301 439.378 123.728C439.623 124.149 439.746 124.637 439.746 125.192C439.746 125.741 439.623 126.229 439.378 126.656C439.138 127.083 438.794 127.413 438.346 127.648C437.903 127.883 437.389 128 436.802 128H434.698V122.384H436.802ZM436.714 126.816C437.231 126.816 437.634 126.675 437.922 126.392C438.21 126.109 438.354 125.709 438.354 125.192C438.354 124.675 438.21 124.272 437.922 123.984C437.634 123.696 437.231 123.552 436.714 123.552H436.066V126.816H436.714ZM444.902 125.696C444.902 125.824 444.894 125.957 444.878 126.096H441.782C441.803 126.373 441.891 126.587 442.046 126.736C442.206 126.88 442.401 126.952 442.63 126.952C442.971 126.952 443.209 126.808 443.342 126.52H444.798C444.723 126.813 444.587 127.077 444.39 127.312C444.198 127.547 443.955 127.731 443.662 127.864C443.369 127.997 443.041 128.064 442.678 128.064C442.241 128.064 441.851 127.971 441.51 127.784C441.169 127.597 440.902 127.331 440.71 126.984C440.518 126.637 440.422 126.232 440.422 125.768C440.422 125.304 440.515 124.899 440.702 124.552C440.894 124.205 441.161 123.939 441.502 123.752C441.843 123.565 442.235 123.472 442.678 123.472C443.11 123.472 443.494 123.563 443.83 123.744C444.166 123.925 444.427 124.184 444.614 124.52C444.806 124.856 444.902 125.248 444.902 125.696ZM443.502 125.336C443.502 125.101 443.422 124.915 443.262 124.776C443.102 124.637 442.902 124.568 442.662 124.568C442.433 124.568 442.238 124.635 442.078 124.768C441.923 124.901 441.827 125.091 441.79 125.336H443.502ZM447.815 126.72L448.783 123.536H450.239L448.655 128H446.967L445.383 123.536H446.847L447.815 126.72Z" fill="black"/>
<path d="M416.992 155.008H414.896L414.56 156H413.128L415.16 150.384H416.744L418.776 156H417.328L416.992 155.008ZM416.64 153.952L415.944 151.896L415.256 153.952H416.64ZM420.946 152.168C421.079 151.96 421.263 151.792 421.498 151.664C421.732 151.536 422.007 151.472 422.322 151.472C422.69 151.472 423.023 151.565 423.322 151.752C423.62 151.939 423.855 152.205 424.026 152.552C424.202 152.899 424.29 153.301 424.29 153.76C424.29 154.219 424.202 154.624 424.026 154.976C423.855 155.323 423.62 155.592 423.322 155.784C423.023 155.971 422.69 156.064 422.322 156.064C422.012 156.064 421.738 156 421.498 155.872C421.263 155.744 421.079 155.579 420.946 155.376V158.128H419.578V151.536H420.946V152.168ZM422.898 153.76C422.898 153.419 422.802 153.152 422.61 152.96C422.423 152.763 422.191 152.664 421.914 152.664C421.642 152.664 421.41 152.763 421.218 152.96C421.031 153.157 420.938 153.427 420.938 153.768C420.938 154.109 421.031 154.379 421.218 154.576C421.41 154.773 421.642 154.872 421.914 154.872C422.186 154.872 422.418 154.773 422.61 154.576C422.802 154.373 422.898 154.101 422.898 153.76ZM426.559 152.168C426.692 151.96 426.876 151.792 427.111 151.664C427.345 151.536 427.62 151.472 427.935 151.472C428.303 151.472 428.636 151.565 428.935 151.752C429.233 151.939 429.468 152.205 429.639 152.552C429.815 152.899 429.903 153.301 429.903 153.76C429.903 154.219 429.815 154.624 429.639 154.976C429.468 155.323 429.233 155.592 428.935 155.784C428.636 155.971 428.303 156.064 427.935 156.064C427.625 156.064 427.351 156 427.111 155.872C426.876 155.744 426.692 155.579 426.559 155.376V158.128H425.191V151.536H426.559V152.168ZM428.511 153.76C428.511 153.419 428.415 153.152 428.223 152.96C428.036 152.763 427.804 152.664 427.527 152.664C427.255 152.664 427.023 152.763 426.831 152.96C426.644 153.157 426.551 153.427 426.551 153.768C426.551 154.109 426.644 154.379 426.831 154.576C427.023 154.773 427.255 154.872 427.527 154.872C427.799 154.872 428.031 154.773 428.223 154.576C428.415 154.373 428.511 154.101 428.511 153.76ZM434.786 150.384C435.378 150.384 435.896 150.501 436.338 150.736C436.781 150.971 437.122 151.301 437.362 151.728C437.608 152.149 437.73 152.637 437.73 153.192C437.73 153.741 437.608 154.229 437.362 154.656C437.122 155.083 436.778 155.413 436.33 155.648C435.888 155.883 435.373 156 434.786 156H432.682V150.384H434.786ZM434.698 154.816C435.216 154.816 435.618 154.675 435.906 154.392C436.194 154.109 436.338 153.709 436.338 153.192C436.338 152.675 436.194 152.272 435.906 151.984C435.618 151.696 435.216 151.552 434.698 151.552H434.05V154.816H434.698ZM442.886 153.696C442.886 153.824 442.878 153.957 442.862 154.096H439.766C439.788 154.373 439.876 154.587 440.03 154.736C440.19 154.88 440.385 154.952 440.614 154.952C440.956 154.952 441.193 154.808 441.326 154.52H442.782C442.708 154.813 442.572 155.077 442.374 155.312C442.182 155.547 441.94 155.731 441.646 155.864C441.353 155.997 441.025 156.064 440.662 156.064C440.225 156.064 439.836 155.971 439.494 155.784C439.153 155.597 438.886 155.331 438.694 154.984C438.502 154.637 438.406 154.232 438.406 153.768C438.406 153.304 438.5 152.899 438.686 152.552C438.878 152.205 439.145 151.939 439.486 151.752C439.828 151.565 440.22 151.472 440.662 151.472C441.094 151.472 441.478 151.563 441.814 151.744C442.15 151.925 442.412 152.184 442.598 152.52C442.79 152.856 442.886 153.248 442.886 153.696ZM441.486 153.336C441.486 153.101 441.406 152.915 441.246 152.776C441.086 152.637 440.886 152.568 440.646 152.568C440.417 152.568 440.222 152.635 440.062 152.768C439.908 152.901 439.812 153.091 439.774 153.336H441.486ZM445.799 154.72L446.767 151.536H448.223L446.639 156H444.951L443.367 151.536H444.831L445.799 154.72Z" fill="black"/>
</g>
<defs>
<clipPath id="clip0_368_230">
<rect width="485.834" height="483.5" fill="white"/>
</clipPath>
</defs>
</svg>
