<svg width="718" height="454" viewBox="0 0 718 454" fill="none" xmlns="http://www.w3.org/2000/svg">
<g clip-path="url(#clip0_368_768)">
<path d="M271.987 71.4765C271.493 72.1143 270.809 72.5793 270.034 72.8051C269.259 73.031 268.433 73.0061 267.673 72.734C267.442 72.6655 267.215 72.5829 266.994 72.4864C267.244 69.8191 267.12 67.1301 266.627 64.497C266.433 66.7603 265.88 68.9782 264.987 71.0672C264.26 70.3376 263.665 69.4875 263.228 68.5544C262.413 66.6238 261.874 64.5886 261.625 62.5081C260.42 55.42 259.232 48.0461 261.197 41.1191C264.076 31.0001 273.154 23.7257 276.946 13.908L278.814 12.231C282.012 17.6764 282.153 24.443 280.85 30.6177C279.553 36.8047 276.94 42.6114 274.875 48.5779C272.809 54.5445 271.261 60.891 272.22 67.1343C272.44 68.6044 272.776 70.2201 271.987 71.4765Z" fill="#2F2E41"/>
<path d="M230.469 157.098L218.295 212.779L271.469 230.098L263.65 157.098H230.469Z" fill="#FFB6B6"/>
<path d="M605.699 452.598H629.795V342.129C629.763 313.62 618.423 286.288 598.264 266.129C578.105 245.97 550.773 234.63 522.264 234.598H298.326C269.817 234.63 242.484 245.97 222.325 266.129C202.167 286.288 190.827 313.62 190.795 342.129V452.598H214.891V377.129C214.923 348.355 226.368 320.768 246.714 300.422C267.061 280.075 294.647 268.63 323.421 268.598H497.168C525.943 268.63 553.529 280.075 573.876 300.422C594.222 320.768 605.667 348.355 605.699 377.129V452.598Z" fill="#E6E6E6"/>
<path d="M312.894 394.806L287.214 387.031C285.544 380.169 284.702 373.131 284.705 366.068C284.717 364.473 285.184 362.914 286.049 361.574C286.915 360.234 288.145 359.169 289.594 358.502C291.043 357.835 292.652 357.595 294.233 357.81C295.814 358.024 297.301 358.684 298.52 359.713C312.293 371.527 332.468 377.831 345.488 391.293C350.876 396.951 354.923 403.749 357.327 411.183C359.731 418.618 360.431 426.497 359.376 434.239L364.997 452.42C352.417 451.512 340.183 447.887 329.138 441.796C318.093 435.705 308.5 427.291 301.02 417.135C296.88 411.397 293.48 405.159 290.899 398.57C301.79 397.335 312.894 394.806 312.894 394.806Z" fill="#F2F2F2"/>
<path d="M379.824 424.579L392.922 420.614C392.939 420.544 392.956 420.475 392.972 420.405C393.335 418.803 393.22 417.13 392.643 415.592C392.065 414.054 391.05 412.72 389.722 411.752C388.394 410.785 386.813 410.228 385.172 410.15C383.531 410.071 381.903 410.475 380.49 411.311C374.544 414.843 367.942 417.885 363.2 422.788C360.452 425.673 358.388 429.141 357.162 432.932C355.936 436.724 355.579 440.743 356.117 444.692L353.25 453.964C359.666 453.501 365.906 451.653 371.539 448.546C377.173 445.439 382.065 441.148 385.88 435.968C387.992 433.041 389.726 429.86 391.043 426.499C385.488 425.869 379.824 424.579 379.824 424.579Z" fill="#F2F2F2"/>
<path d="M485.848 153.13H434.842C434.121 153.131 433.429 153.419 432.92 153.929C432.41 154.44 432.124 155.133 432.125 155.854V236.428H488.572V155.854C488.572 155.496 488.502 155.142 488.365 154.811C488.228 154.481 488.028 154.18 487.775 153.927C487.522 153.674 487.221 153.474 486.891 153.337C486.56 153.2 486.206 153.13 485.848 153.13ZM460.517 198.911C458.922 198.904 457.394 198.267 456.266 197.139C455.138 196.011 454.501 194.483 454.494 192.888V183.595C454.496 181.999 455.131 180.469 456.261 179.341C457.39 178.213 458.921 177.579 460.517 177.579C462.113 177.579 463.643 178.213 464.773 179.341C465.902 180.469 466.538 181.999 466.54 183.595V192.888C466.532 194.483 465.895 196.011 464.767 197.139C463.639 198.267 462.112 198.904 460.517 198.911Z" fill="#3F3D56"/>
<path d="M570.308 27.3853H352.279C350.406 27.3882 348.611 28.1337 347.286 29.4583C345.961 30.7828 345.216 32.5784 345.213 34.4516V181.579C345.215 183.452 345.96 185.248 347.285 186.573C348.609 187.898 350.406 188.643 352.279 188.645H570.308C572.182 188.643 573.978 187.898 575.303 186.573C576.628 185.248 577.373 183.452 577.375 181.579V34.4516C577.372 32.5784 576.626 30.7828 575.302 29.4583C573.977 28.1337 572.182 27.3882 570.308 27.3853Z" fill="#3F3D56"/>
<path d="M568.489 32.4893H354.101C353.098 32.4914 352.137 32.8914 351.429 33.6013C350.72 34.3113 350.322 35.2733 350.322 36.2762V179.756C350.324 180.758 350.723 181.718 351.431 182.427C352.139 183.135 353.1 183.534 354.101 183.536H568.489C569.491 183.534 570.451 183.135 571.159 182.427C571.868 181.718 572.266 180.758 572.268 179.756V36.2762C572.268 35.2732 571.87 34.3113 571.161 33.6013C570.453 32.8914 569.492 32.4914 568.489 32.4893Z" fill="white"/>
<path d="M431.951 233.851V241.625C431.952 242.027 432.112 242.413 432.397 242.698C432.682 242.983 433.068 243.144 433.471 243.144H487.229C487.631 243.142 488.017 242.982 488.301 242.697C488.586 242.412 488.747 242.027 488.749 241.625V233.851H431.951Z" fill="#3F3D56"/>
<path d="M526.731 245.849H399.182C398.833 245.849 398.488 245.771 398.173 245.621C397.858 245.471 397.58 245.253 397.36 244.981C397.14 244.71 396.984 244.394 396.902 244.054C396.82 243.715 396.814 243.361 396.886 243.02L398.865 233.62C398.978 233.094 399.267 232.623 399.685 232.284C400.102 231.945 400.623 231.759 401.161 231.757H524.752C525.29 231.759 525.811 231.945 526.229 232.284C526.646 232.623 526.935 233.094 527.048 233.62L529.027 243.02C529.099 243.361 529.094 243.715 529.012 244.054C528.93 244.394 528.773 244.71 528.553 244.981C528.333 245.253 528.055 245.471 527.74 245.621C527.425 245.771 527.08 245.849 526.731 245.849Z" fill="#3F3D56"/>
<path d="M405.507 233.45H402.555C402.285 233.45 402.066 233.668 402.066 233.938V235.319C402.066 235.588 402.285 235.807 402.555 235.807H405.507C405.776 235.807 405.995 235.588 405.995 235.319V233.938C405.995 233.668 405.776 233.45 405.507 233.45Z" fill="#E6E6E6"/>
<path d="M413.362 233.45H410.41C410.14 233.45 409.922 233.668 409.922 233.938V235.319C409.922 235.588 410.14 235.807 410.41 235.807H413.362C413.632 235.807 413.85 235.588 413.85 235.319V233.938C413.85 233.668 413.632 233.45 413.362 233.45Z" fill="#E6E6E6"/>
<path d="M421.219 233.45H418.267C417.998 233.45 417.779 233.668 417.779 233.938V235.319C417.779 235.588 417.998 235.807 418.267 235.807H421.219C421.489 235.807 421.708 235.588 421.708 235.319V233.938C421.708 233.668 421.489 233.45 421.219 233.45Z" fill="#E6E6E6"/>
<path d="M429.077 233.45H426.125C425.855 233.45 425.637 233.668 425.637 233.938V235.319C425.637 235.588 425.855 235.807 426.125 235.807H429.077C429.347 235.807 429.565 235.588 429.565 235.319V233.938C429.565 233.668 429.347 233.45 429.077 233.45Z" fill="#E6E6E6"/>
<path d="M436.932 233.45H433.98C433.711 233.45 433.492 233.668 433.492 233.938V235.319C433.492 235.588 433.711 235.807 433.98 235.807H436.932C437.202 235.807 437.421 235.588 437.421 235.319V233.938C437.421 233.668 437.202 233.45 436.932 233.45Z" fill="#E6E6E6"/>
<path d="M444.79 233.45H441.838C441.568 233.45 441.35 233.668 441.35 233.938V235.319C441.35 235.588 441.568 235.807 441.838 235.807H444.79C445.059 235.807 445.278 235.588 445.278 235.319V233.938C445.278 233.668 445.059 233.45 444.79 233.45Z" fill="#E6E6E6"/>
<path d="M452.647 233.45H449.695C449.426 233.45 449.207 233.668 449.207 233.938V235.319C449.207 235.588 449.426 235.807 449.695 235.807H452.647C452.917 235.807 453.135 235.588 453.135 235.319V233.938C453.135 233.668 452.917 233.45 452.647 233.45Z" fill="#E6E6E6"/>
<path d="M460.503 233.45H457.551C457.281 233.45 457.062 233.668 457.062 233.938V235.319C457.062 235.588 457.281 235.807 457.551 235.807H460.503C460.772 235.807 460.991 235.588 460.991 235.319V233.938C460.991 233.668 460.772 233.45 460.503 233.45Z" fill="#E6E6E6"/>
<path d="M468.36 233.45H465.408C465.138 233.45 464.92 233.668 464.92 233.938V235.319C464.92 235.588 465.138 235.807 465.408 235.807H468.36C468.63 235.807 468.848 235.588 468.848 235.319V233.938C468.848 233.668 468.63 233.45 468.36 233.45Z" fill="#E6E6E6"/>
<path d="M476.218 233.45H473.266C472.996 233.45 472.777 233.668 472.777 233.938V235.319C472.777 235.588 472.996 235.807 473.266 235.807H476.218C476.487 235.807 476.706 235.588 476.706 235.319V233.938C476.706 233.668 476.487 233.45 476.218 233.45Z" fill="#E6E6E6"/>
<path d="M484.073 233.45H481.121C480.851 233.45 480.633 233.668 480.633 233.938V235.319C480.633 235.588 480.851 235.807 481.121 235.807H484.073C484.343 235.807 484.561 235.588 484.561 235.319V233.938C484.561 233.668 484.343 233.45 484.073 233.45Z" fill="#E6E6E6"/>
<path d="M491.93 233.45H488.978C488.709 233.45 488.49 233.668 488.49 233.938V235.319C488.49 235.588 488.709 235.807 488.978 235.807H491.93C492.2 235.807 492.419 235.588 492.419 235.319V233.938C492.419 233.668 492.2 233.45 491.93 233.45Z" fill="#E6E6E6"/>
<path d="M499.788 233.45H496.836C496.566 233.45 496.348 233.668 496.348 233.938V235.319C496.348 235.588 496.566 235.807 496.836 235.807H499.788C500.057 235.807 500.276 235.588 500.276 235.319V233.938C500.276 233.668 500.057 233.45 499.788 233.45Z" fill="#E6E6E6"/>
<path d="M507.643 233.45H504.691C504.422 233.45 504.203 233.668 504.203 233.938V235.319C504.203 235.588 504.422 235.807 504.691 235.807H507.643C507.913 235.807 508.132 235.588 508.132 235.319V233.938C508.132 233.668 507.913 233.45 507.643 233.45Z" fill="#E6E6E6"/>
<path d="M515.501 233.45H512.549C512.279 233.45 512.061 233.668 512.061 233.938V235.319C512.061 235.588 512.279 235.807 512.549 235.807H515.501C515.77 235.807 515.989 235.588 515.989 235.319V233.938C515.989 233.668 515.77 233.45 515.501 233.45Z" fill="#E6E6E6"/>
<path d="M523.358 233.45H520.406C520.137 233.45 519.918 233.668 519.918 233.938V235.319C519.918 235.588 520.137 235.807 520.406 235.807H523.358C523.628 235.807 523.846 235.588 523.846 235.319V233.938C523.846 233.668 523.628 233.45 523.358 233.45Z" fill="#E6E6E6"/>
<path d="M405.413 237.378H402.461C402.191 237.378 401.973 237.596 401.973 237.866V239.247C401.973 239.516 402.191 239.735 402.461 239.735H405.413C405.682 239.735 405.901 239.516 405.901 239.247V237.866C405.901 237.596 405.682 237.378 405.413 237.378Z" fill="#E6E6E6"/>
<path d="M413.27 237.378H410.318C410.049 237.378 409.83 237.596 409.83 237.866V239.247C409.83 239.516 410.049 239.735 410.318 239.735H413.27C413.54 239.735 413.758 239.516 413.758 239.247V237.866C413.758 237.596 413.54 237.378 413.27 237.378Z" fill="#E6E6E6"/>
<path d="M421.128 237.378H418.176C417.906 237.378 417.688 237.596 417.688 237.866V239.247C417.688 239.516 417.906 239.735 418.176 239.735H421.128C421.397 239.735 421.616 239.516 421.616 239.247V237.866C421.616 237.596 421.397 237.378 421.128 237.378Z" fill="#E6E6E6"/>
<path d="M428.983 237.378H426.031C425.762 237.378 425.543 237.596 425.543 237.866V239.247C425.543 239.516 425.762 239.735 426.031 239.735H428.983C429.253 239.735 429.471 239.516 429.471 239.247V237.866C429.471 237.596 429.253 237.378 428.983 237.378Z" fill="#E6E6E6"/>
<path d="M436.841 237.378H433.889C433.619 237.378 433.4 237.596 433.4 237.866V239.247C433.4 239.516 433.619 239.735 433.889 239.735H436.841C437.11 239.735 437.329 239.516 437.329 239.247V237.866C437.329 237.596 437.11 237.378 436.841 237.378Z" fill="#E6E6E6"/>
<path d="M444.698 237.378H441.746C441.476 237.378 441.258 237.596 441.258 237.866V239.247C441.258 239.516 441.476 239.735 441.746 239.735H444.698C444.968 239.735 445.186 239.516 445.186 239.247V237.866C445.186 237.596 444.968 237.378 444.698 237.378Z" fill="#E6E6E6"/>
<path d="M452.553 237.378H449.601C449.332 237.378 449.113 237.596 449.113 237.866V239.247C449.113 239.516 449.332 239.735 449.601 239.735H452.553C452.823 239.735 453.042 239.516 453.042 239.247V237.866C453.042 237.596 452.823 237.378 452.553 237.378Z" fill="#E6E6E6"/>
<path d="M460.411 237.378H457.459C457.189 237.378 456.971 237.596 456.971 237.866V239.247C456.971 239.516 457.189 239.735 457.459 239.735H460.411C460.681 239.735 460.899 239.516 460.899 239.247V237.866C460.899 237.596 460.681 237.378 460.411 237.378Z" fill="#E6E6E6"/>
<path d="M468.268 237.378H465.316C465.047 237.378 464.828 237.596 464.828 237.866V239.247C464.828 239.516 465.047 239.735 465.316 239.735H468.268C468.538 239.735 468.757 239.516 468.757 239.247V237.866C468.757 237.596 468.538 237.378 468.268 237.378Z" fill="#E6E6E6"/>
<path d="M476.124 237.378H473.172C472.902 237.378 472.684 237.596 472.684 237.866V239.247C472.684 239.516 472.902 239.735 473.172 239.735H476.124C476.393 239.735 476.612 239.516 476.612 239.247V237.866C476.612 237.596 476.393 237.378 476.124 237.378Z" fill="#E6E6E6"/>
<path d="M483.981 237.378H481.029C480.76 237.378 480.541 237.596 480.541 237.866V239.247C480.541 239.516 480.76 239.735 481.029 239.735H483.981C484.251 239.735 484.469 239.516 484.469 239.247V237.866C484.469 237.596 484.251 237.378 483.981 237.378Z" fill="#E6E6E6"/>
<path d="M491.839 237.378H488.887C488.617 237.378 488.398 237.596 488.398 237.866V239.247C488.398 239.516 488.617 239.735 488.887 239.735H491.839C492.108 239.735 492.327 239.516 492.327 239.247V237.866C492.327 237.596 492.108 237.378 491.839 237.378Z" fill="#E6E6E6"/>
<path d="M499.694 237.378H496.742C496.472 237.378 496.254 237.596 496.254 237.866V239.247C496.254 239.516 496.472 239.735 496.742 239.735H499.694C499.964 239.735 500.182 239.516 500.182 239.247V237.866C500.182 237.596 499.964 237.378 499.694 237.378Z" fill="#E6E6E6"/>
<path d="M507.552 237.378H504.6C504.33 237.378 504.111 237.596 504.111 237.866V239.247C504.111 239.516 504.33 239.735 504.6 239.735H507.552C507.821 239.735 508.04 239.516 508.04 239.247V237.866C508.04 237.596 507.821 237.378 507.552 237.378Z" fill="#E6E6E6"/>
<path d="M515.409 237.378H512.457C512.187 237.378 511.969 237.596 511.969 237.866V239.247C511.969 239.516 512.187 239.735 512.457 239.735H515.409C515.679 239.735 515.897 239.516 515.897 239.247V237.866C515.897 237.596 515.679 237.378 515.409 237.378Z" fill="#E6E6E6"/>
<path d="M523.264 237.378H520.312C520.043 237.378 519.824 237.596 519.824 237.866V239.247C519.824 239.516 520.043 239.735 520.312 239.735H523.264C523.534 239.735 523.753 239.516 523.753 239.247V237.866C523.753 237.596 523.534 237.378 523.264 237.378Z" fill="#E6E6E6"/>
<path d="M470.624 242.092H440.174C439.904 242.092 439.686 242.311 439.686 242.58V243.961C439.686 244.23 439.904 244.449 440.174 244.449H470.624C470.894 244.449 471.113 244.23 471.113 243.961V242.58C471.113 242.311 470.894 242.092 470.624 242.092Z" fill="#E6E6E6"/>
<path d="M536.523 68.5077V144.028C536.522 149.085 534.513 153.935 530.937 157.511C527.361 161.088 522.51 163.097 517.453 163.098H422.933C419.212 163.098 415.572 162.011 412.461 159.97C409.35 157.928 406.903 155.022 405.423 151.608C404.927 150.479 404.548 149.303 404.293 148.098C406.302 148.875 408.439 149.272 410.593 149.268H505.113C509.773 149.261 514.241 147.407 517.537 144.111C520.832 140.816 522.686 136.348 522.693 131.688V56.1677C522.697 54.0133 522.3 51.8769 521.523 49.8677C522.729 50.1231 523.905 50.5018 525.033 50.9977C528.447 52.478 531.354 54.9243 533.395 58.0354C535.437 61.1465 536.524 64.7866 536.523 68.5077Z" fill="#F2F2F2"/>
<path d="M183.896 368.973L174.521 374.778L146.902 340.828L160.738 332.262L183.896 368.973Z" fill="#FFB6B6"/>
<path d="M191.99 381.099L184.449 384.465L179.924 377.946L179.655 386.605L159.654 395.534C158.695 395.962 157.625 396.073 156.599 395.849C155.573 395.626 154.645 395.08 153.951 394.292C153.257 393.504 152.834 392.515 152.742 391.469C152.65 390.423 152.894 389.376 153.44 388.479L164.488 370.317L161.275 363.119L178.523 356.622L191.99 381.099Z" fill="#2F2E41"/>
<path d="M157.635 362.442L173.469 347.098C161.705 318.069 160.765 300.076 144.457 264.967C183.15 272.881 210.813 272.4 242.813 265.304C253.646 262.94 281.598 241.348 279.3 230.277C279.193 229.76 279.066 229.247 278.919 228.739C275.485 217.028 277.903 199.094 270.469 186.098C256.714 180.912 235.816 198.423 219.469 209.098C211.586 214.245 217.356 221.259 211.469 223.098L188.9 230.424L133.527 221.481C130.851 221.075 128.121 221.203 125.495 221.858C122.868 222.512 120.398 223.679 118.225 225.293C116.052 226.907 114.219 228.935 112.834 231.26C111.448 233.585 110.536 236.161 110.151 238.84C110.057 239.441 109.989 240.046 109.947 240.653C112.495 254.757 115.151 268.49 118.01 281.527C118.933 285.735 117.375 293.802 120.846 293.922C124.317 294.042 122.919 302.386 124 306.465C130.654 331.579 134.863 343.733 157.635 362.442Z" fill="#2F2E41"/>
<path d="M127.33 429.745L117.562 424.647L133.016 383.711L147.43 391.235L127.33 429.745Z" fill="#FFB6B6"/>
<path d="M125.701 399.184L141.362 409.966C160.557 382.207 173.02 345.113 182.301 303.607C218.44 287.842 250.062 269.806 272.098 245.613C275.717 241.557 277.614 236.252 277.389 230.821C277.163 225.39 274.832 220.26 270.889 216.518C270.503 216.157 270.104 215.811 269.693 215.479C260.148 207.877 238.95 212.251 225.401 205.897L201.197 239.396L203.979 247.199L195.559 251.298L188.45 254.759L180.312 258.72L153.634 271.708C151.215 272.917 149.059 274.593 147.292 276.639C145.524 278.685 144.179 281.061 143.334 283.629C142.489 286.198 142.161 288.908 142.369 291.604C142.576 294.3 143.316 296.928 144.544 299.337C144.814 299.883 145.107 300.416 145.422 300.937L135.514 350.297C135.514 350.297 138.24 358.89 133.951 358.086C129.661 357.282 131.998 367.811 131.998 367.811L125.701 399.184Z" fill="#2F2E41"/>
<path d="M121.414 452.305L114.093 448.484L116.394 440.89L109.439 446.055L90.0209 435.921C89.09 435.435 88.3389 434.664 87.877 433.721C87.4151 432.778 87.2668 431.713 87.4535 430.679C87.6403 429.646 88.1525 428.7 88.9152 427.978C89.678 427.257 90.6514 426.798 91.6934 426.669L112.79 424.053L116.437 417.064L132.239 426.551L121.414 452.305Z" fill="#2F2E41"/>
<path d="M334.892 237.703L323.469 210.098L314.469 215.098L319.904 243.18C319.36 244.959 319.322 246.855 319.796 248.654C320.27 250.453 321.237 252.084 322.587 253.364C323.937 254.644 325.618 255.522 327.44 255.899C329.261 256.277 331.152 256.138 332.9 255.5C334.647 254.861 336.182 253.748 337.332 252.285C338.481 250.822 339.2 249.067 339.407 247.218C339.614 245.369 339.301 243.499 338.503 241.818C337.706 240.138 336.455 238.713 334.892 237.703Z" fill="#FFB6B6"/>
<path d="M143.208 19.4068L160.589 43.7064L168.222 36.7972L156.565 10.677C156.692 8.8208 156.299 6.96599 155.43 5.32104C154.56 3.67609 153.249 2.30623 151.644 1.36546C150.039 0.424689 148.203 -0.049693 146.343 -0.00435325C144.483 0.0409864 142.673 0.60425 141.116 1.62211C139.558 2.63997 138.316 4.07208 137.528 5.75743C136.739 7.44278 136.437 9.31455 136.654 11.1623C136.872 13.0101 137.6 14.7606 138.758 16.2171C139.916 17.6735 141.457 18.7782 143.208 19.4068H143.208Z" fill="#FFB6B6"/>
<path d="M221.697 173.421C210.423 190.907 251.725 229.007 273.468 220.098C277.276 218.538 290.373 213.385 281.42 206.241C272.468 199.098 282.458 207.092 282.694 202.442C282.852 199.333 280.445 192.513 282.957 192.805C285.468 193.098 286.91 185.834 281.44 183.984C279.538 183.305 277.869 182.097 276.629 180.503C275.39 178.909 274.63 176.994 274.44 174.984C273.917 155.817 280.408 135.806 280.408 135.806L306.906 203.541C306.906 203.541 306.71 215.26 310.089 211.679C313.468 208.098 313.222 219.688 313.222 219.688C313.222 219.688 318.247 223.195 315.358 225.146C312.468 227.098 318.468 233.098 318.468 233.098L332.468 232.098C332.468 232.098 332.249 221.698 329.859 219.398C327.468 217.098 328.642 213.479 328.642 213.479C328.642 213.479 323.714 208.895 326.591 203.496C329.468 198.098 305.64 101.535 305.64 101.535C304.686 96.8888 302.465 92.5974 299.224 89.1348C295.982 85.6722 291.847 83.1733 287.274 81.9142L272.153 77.7509L269.468 67.0977H248.177L244.468 74.0977L210.468 71.0977C210.468 71.0977 176.826 40.4878 178.468 38.0977C180.111 35.7076 174.896 30.1119 174.896 30.1119C174.896 30.1119 170.442 28.6542 172.955 27.8759C175.468 27.0976 170.718 25.2982 170.718 25.2982C170.718 25.2982 166.318 24.1421 168.393 22.6199C170.468 21.0977 161.468 20.0977 161.468 20.0977L149.791 29.6252L152.151 33.6271C152.151 33.6271 150.712 39.0765 152.59 37.0871C154.468 35.0977 154.822 40.8711 154.822 40.8711C154.822 40.8711 155.781 47.193 161.468 49.0977C167.156 51.0024 171.468 69.0977 171.468 69.0977L219.468 109.098C212.158 117.489 213.898 126.264 220.374 135.239L221.697 173.421Z" fill="#3F3D56"/>
<path d="M258.343 60.0196C271.076 60.0196 281.398 49.6972 281.398 36.9639C281.398 24.2306 271.076 13.9082 258.343 13.9082C245.609 13.9082 235.287 24.2306 235.287 36.9639C235.287 49.6972 245.609 60.0196 258.343 60.0196Z" fill="#FFB6B6"/>
<path d="M278.468 30.0976C277.878 30.2676 269.218 31.3976 265.468 32.0976C261.788 32.7876 261.148 28.0976 258.138 28.9776C258.14 28.9571 258.136 28.9365 258.128 28.9176C257.662 26.4326 256.864 24.0212 255.758 21.7476C256.16 23.9252 256.217 26.1522 255.928 28.3476C255.926 28.4047 255.92 28.4616 255.908 28.5176C255.898 28.6176 255.878 28.7076 255.868 28.8076C252.688 27.4076 250.668 28.6576 248.468 29.0976C246.008 29.5876 244.088 30.6676 245.468 39.0976C248.298 56.4376 263.018 62.6276 260.468 74.0976C259.968 76.3676 258.708 79.2076 257.128 79.9176C256.662 77.4326 255.865 75.0212 254.758 72.7476C255.16 74.9252 255.217 77.1522 254.928 79.3476C252.478 76.6976 250.708 67.4376 242.468 60.0976C240.438 58.2976 230.268 47.6176 229.048 45.0976C229.423 47.1124 229.604 49.1584 229.588 51.2076C229.591 52.5791 229.497 53.9491 229.308 55.3076C229.308 55.3951 229.298 55.4824 229.278 55.5676C229.268 55.7276 229.238 55.8676 229.218 56.0176C229.198 56.1876 229.168 56.3476 229.138 56.5176C225.808 56.0376 222.858 55.4576 221.468 54.0976C214.708 47.5176 222.958 34.6976 227.468 23.0976C233.918 6.4876 252.648 4.2776 254.468 4.0976C262.488 3.2876 276.038 5.0076 280.468 14.0976C283.568 20.4676 281.588 29.1976 278.468 30.0976Z" fill="#2F2E41"/>
<path d="M229.853 33.8468L246.554 7.86652C242.552 5.54293 237.994 4.34736 233.366 4.40691C231.06 4.45484 228.79 4.98823 226.703 5.97232C224.617 6.95641 222.761 8.36911 221.257 10.1183C217.846 14.3575 217.261 20.3501 218.539 25.639C218.98 27.4656 227.385 21.0387 225.385 24.0387C223.743 26.3875 221.058 36.2602 220.385 39.0387C219.301 43.5105 216.321 48.1008 218.976 51.8592C222.115 56.3036 227.716 58.5128 233.152 58.7372C238.589 58.9615 243.94 57.4549 249.106 55.7485L229.853 33.8468Z" fill="#2F2E41"/>
<path d="M236.27 32.8225C236.029 32.8222 235.796 32.7348 235.614 32.5764C235.433 32.4179 235.314 32.1991 235.281 31.9602C235.248 31.7213 235.302 31.4785 235.434 31.2765C235.565 31.0744 235.766 30.9267 235.997 30.8606C236.26 30.428 236.152 28.6072 236.066 27.136C235.741 21.6121 235.196 12.367 244.172 6.12623C244.389 5.97485 244.658 5.91614 244.919 5.96302C245.18 6.00991 245.412 6.15854 245.563 6.37623C245.715 6.59392 245.773 6.86283 245.727 7.1238C245.68 7.38478 245.531 7.61645 245.313 7.76783C237.259 13.3689 237.742 21.5833 238.062 27.0183C238.245 30.1257 238.377 32.3703 236.493 32.7976C236.42 32.8143 236.345 32.8226 236.27 32.8225Z" fill="#3F3D56"/>
<path d="M5.24436e-06 451.951C-0.000929715 452.265 0.123182 452.567 0.345022 452.791C0.566861 453.014 0.86826 453.14 1.18293 453.141H716.48C716.796 453.141 717.098 453.015 717.322 452.792C717.545 452.569 717.67 452.266 717.67 451.951C717.67 451.635 717.545 451.332 717.322 451.109C717.098 450.886 716.796 450.761 716.48 450.761H1.19004C1.03422 450.76 0.879853 450.79 0.735723 450.849C0.591593 450.909 0.460529 450.996 0.350027 451.106C0.239524 451.215 0.151746 451.346 0.0916953 451.49C0.0316442 451.634 0.000493399 451.788 3.57619e-05 451.944L5.24436e-06 451.951Z" fill="#CCCCCC"/>
<path d="M442.534 94.8494H427.402C427.001 94.8494 426.616 94.69 426.332 94.4062C426.048 94.1224 425.889 93.7375 425.889 93.3362C425.889 92.9349 426.048 92.55 426.332 92.2662C426.616 91.9824 427.001 91.823 427.402 91.823H442.534C442.935 91.823 443.32 91.9824 443.604 92.2662C443.888 92.55 444.047 92.9349 444.047 93.3362C444.047 93.7375 443.888 94.1224 443.604 94.4062C443.32 94.69 442.935 94.8494 442.534 94.8494Z" fill="#3F3D56"/>
<path d="M469.772 94.8494H454.64C454.441 94.8494 454.245 94.8103 454.061 94.7342C453.878 94.6582 453.711 94.5467 453.57 94.4062C453.43 94.2657 453.318 94.0989 453.242 93.9153C453.166 93.7317 453.127 93.5349 453.127 93.3362C453.127 93.1375 453.166 92.9407 453.242 92.7571C453.318 92.5735 453.43 92.4067 453.57 92.2662C453.711 92.1257 453.878 92.0142 454.061 91.9382C454.245 91.8621 454.441 91.823 454.64 91.823H469.772C469.971 91.823 470.168 91.8621 470.351 91.9382C470.535 92.0142 470.702 92.1257 470.842 92.2662C470.983 92.4067 471.094 92.5735 471.17 92.7571C471.246 92.9407 471.285 93.1375 471.285 93.3362C471.285 93.5349 471.246 93.7317 471.17 93.9153C471.094 94.0989 470.983 94.2657 470.842 94.4062C470.702 94.5467 470.535 94.6582 470.351 94.7342C470.168 94.8103 469.971 94.8494 469.772 94.8494Z" fill="#3F3D56"/>
<path d="M483.391 106.955H468.259C468.061 106.955 467.864 106.916 467.68 106.84C467.497 106.764 467.33 106.652 467.189 106.512C467.049 106.371 466.937 106.205 466.861 106.021C466.785 105.837 466.746 105.641 466.746 105.442C466.746 105.243 466.785 105.046 466.861 104.863C466.937 104.679 467.049 104.512 467.189 104.372C467.33 104.231 467.497 104.12 467.68 104.044C467.864 103.968 468.061 103.929 468.259 103.929H483.391C483.59 103.929 483.787 103.968 483.97 104.044C484.154 104.12 484.321 104.231 484.461 104.372C484.602 104.512 484.713 104.679 484.789 104.863C484.865 105.046 484.905 105.243 484.905 105.442C484.905 105.641 484.865 105.837 484.789 106.021C484.713 106.205 484.602 106.371 484.461 106.512C484.321 106.652 484.154 106.764 483.97 106.84C483.787 106.916 483.59 106.955 483.391 106.955Z" fill="#3F3D56"/>
<path d="M456.236 106.955H427.402C427.001 106.955 426.616 106.796 426.332 106.512C426.048 106.228 425.889 105.843 425.889 105.442C425.889 105.041 426.048 104.656 426.332 104.372C426.616 104.088 427.001 103.929 427.402 103.929H456.236C456.638 103.929 457.022 104.088 457.306 104.372C457.59 104.656 457.75 105.041 457.75 105.442C457.75 105.843 457.59 106.228 457.306 106.512C457.022 106.796 456.638 106.955 456.236 106.955Z" fill="#3F3D56"/>
<path d="M510.713 94.8494H481.878C481.477 94.8494 481.092 94.69 480.808 94.4062C480.525 94.1224 480.365 93.7375 480.365 93.3362C480.365 92.9349 480.525 92.55 480.808 92.2662C481.092 91.9824 481.477 91.823 481.878 91.823H510.713C510.912 91.823 511.108 91.8621 511.292 91.9382C511.476 92.0142 511.642 92.1257 511.783 92.2662C511.923 92.4067 512.035 92.5735 512.111 92.7571C512.187 92.9407 512.226 93.1375 512.226 93.3362C512.226 93.5349 512.187 93.7317 512.111 93.9153C512.035 94.0989 511.923 94.2657 511.783 94.4062C511.642 94.5467 511.476 94.6582 511.292 94.7342C511.108 94.8103 510.912 94.8494 510.713 94.8494Z" fill="#3F3D56"/>
<path d="M452.894 71.9254H424.06C423.861 71.9259 423.664 71.8871 423.48 71.8113C423.296 71.7355 423.128 71.6241 422.988 71.4835C422.847 71.343 422.735 71.176 422.659 70.9921C422.582 70.8083 422.543 70.6112 422.543 70.4121C422.543 70.2131 422.582 70.016 422.659 69.8322C422.735 69.6483 422.847 69.4813 422.988 69.3408C423.128 69.2002 423.296 69.0888 423.48 69.013C423.664 68.9372 423.861 68.8984 424.06 68.8989H452.894C453.296 68.8989 453.681 69.0584 453.964 69.3421C454.248 69.6259 454.408 70.0108 454.408 70.4121C454.408 70.8135 454.248 71.1984 453.964 71.4822C453.681 71.7659 453.296 71.9254 452.894 71.9254Z" fill="#3F3D56"/>
<path d="M455.266 80.766C454.983 80.7661 454.708 80.678 454.478 80.5139C454.248 80.3498 454.075 80.118 453.984 79.8508C453.892 79.5837 453.886 79.2945 453.967 79.0238C454.047 78.7531 454.211 78.5144 454.434 78.341L461.817 72.6019C462.114 72.3713 462.359 72.0816 462.538 71.7511C462.717 71.4207 462.825 71.0566 462.856 70.6821C462.887 70.3076 462.839 69.9308 462.717 69.5755C462.595 69.2203 462.4 68.8943 462.145 68.6182L455.946 61.9076C455.825 61.7769 455.732 61.6238 455.67 61.4568C455.608 61.2898 455.58 61.1124 455.587 60.9346C455.594 60.7568 455.636 60.5821 455.711 60.4205C455.785 60.2589 455.891 60.1135 456.022 59.9927C456.152 59.872 456.306 59.7781 456.472 59.7165C456.639 59.655 456.817 59.6269 456.995 59.6339C457.173 59.6409 457.347 59.6828 457.509 59.7574C457.67 59.8319 457.816 59.9375 457.937 60.0682L467.142 70.033C467.269 70.1708 467.366 70.3336 467.428 70.5111C467.489 70.6885 467.512 70.8767 467.497 71.0637C467.482 71.2508 467.428 71.4326 467.338 71.5977C467.249 71.7627 467.126 71.9074 466.978 72.0227L456.097 80.4808C455.86 80.6658 455.567 80.7662 455.266 80.766Z" fill="#3F3D56"/>
<path d="M422.601 80.766C422.883 80.7661 423.159 80.678 423.389 80.5139C423.619 80.3498 423.792 80.118 423.883 79.8508C423.975 79.5837 423.981 79.2945 423.9 79.0238C423.82 78.7531 423.656 78.5144 423.433 78.341L416.05 72.6019C415.753 72.3713 415.508 72.0816 415.329 71.7511C415.15 71.4207 415.042 71.0566 415.011 70.6821C414.98 70.3076 415.027 69.9308 415.15 69.5755C415.272 69.2203 415.467 68.8943 415.722 68.6182L421.921 61.9076C422.041 61.7769 422.135 61.6238 422.197 61.4568C422.258 61.2898 422.287 61.1124 422.28 60.9346C422.273 60.7568 422.231 60.5821 422.156 60.4205C422.082 60.2589 421.976 60.1135 421.845 59.9927C421.715 59.872 421.561 59.7781 421.394 59.7165C421.227 59.655 421.05 59.6269 420.872 59.6339C420.694 59.6409 420.52 59.6828 420.358 59.7574C420.196 59.8319 420.051 59.9375 419.93 60.0682L410.725 70.033C410.598 70.1708 410.5 70.3336 410.439 70.5111C410.378 70.6885 410.354 70.8767 410.37 71.0637C410.385 71.2508 410.439 71.4326 410.528 71.5977C410.618 71.7627 410.74 71.9074 410.889 72.0227L421.77 80.4808C422.007 80.6658 422.3 80.7662 422.601 80.766Z" fill="#3F3D56"/>
<path d="M467.801 132.906H438.966C438.565 132.906 438.18 132.746 437.896 132.462C437.613 132.179 437.453 131.794 437.453 131.392C437.453 130.991 437.613 130.606 437.896 130.322C438.18 130.039 438.565 129.879 438.966 129.879H467.801C468.202 129.879 468.587 130.039 468.871 130.322C469.155 130.606 469.314 130.991 469.314 131.392C469.314 131.794 469.155 132.179 468.871 132.462C468.587 132.746 468.202 132.906 467.801 132.906Z" fill="#3F3D56"/>
<path d="M472.881 140.391C472.599 140.391 472.323 140.303 472.093 140.139C471.863 139.975 471.691 139.743 471.599 139.476C471.507 139.209 471.501 138.92 471.582 138.649C471.663 138.378 471.826 138.14 472.049 137.966L479.432 132.227C479.729 131.997 479.974 131.707 480.153 131.376C480.332 131.046 480.44 130.682 480.471 130.307C480.502 129.933 480.455 129.556 480.332 129.201C480.21 128.845 480.015 128.52 479.76 128.243L473.561 121.533C473.441 121.402 473.347 121.249 473.285 121.082C473.224 120.915 473.196 120.738 473.203 120.56C473.21 120.382 473.252 120.207 473.326 120.046C473.401 119.884 473.506 119.739 473.637 119.618C473.768 119.497 473.921 119.403 474.088 119.342C474.255 119.28 474.432 119.252 474.61 119.259C474.788 119.266 474.962 119.308 475.124 119.383C475.286 119.457 475.431 119.563 475.552 119.693L484.757 129.658C484.884 129.796 484.982 129.959 485.043 130.136C485.104 130.314 485.128 130.502 485.112 130.689C485.097 130.876 485.043 131.058 484.954 131.223C484.864 131.388 484.742 131.533 484.594 131.648L473.712 140.106C473.475 140.291 473.182 140.391 472.881 140.391Z" fill="#3F3D56"/>
<path d="M422.601 140.391C422.883 140.391 423.159 140.303 423.389 140.139C423.619 139.975 423.792 139.743 423.883 139.476C423.975 139.209 423.981 138.92 423.9 138.649C423.82 138.378 423.656 138.14 423.433 137.966L416.05 132.227C415.753 131.997 415.508 131.707 415.329 131.376C415.15 131.046 415.042 130.682 415.011 130.307C414.98 129.933 415.027 129.556 415.15 129.201C415.272 128.845 415.467 128.52 415.722 128.243L421.921 121.533C422.165 121.269 422.294 120.919 422.28 120.56C422.265 120.201 422.109 119.862 421.845 119.618C421.581 119.374 421.231 119.245 420.872 119.259C420.513 119.273 420.174 119.429 419.93 119.693L410.725 129.658C410.598 129.796 410.5 129.959 410.439 130.136C410.378 130.314 410.354 130.502 410.37 130.689C410.385 130.876 410.439 131.058 410.528 131.223C410.618 131.388 410.74 131.533 410.889 131.648L421.77 140.106C422.007 140.291 422.3 140.391 422.601 140.391Z" fill="#3F3D56"/>
<path d="M425.175 136.151L431.236 122.286C431.398 121.92 431.698 121.633 432.071 121.488C432.444 121.343 432.859 121.352 433.226 121.512C433.592 121.672 433.88 121.971 434.027 122.343C434.174 122.716 434.167 123.131 434.009 123.498L427.948 137.363C427.869 137.546 427.754 137.712 427.611 137.851C427.468 137.99 427.299 138.099 427.113 138.172C426.928 138.245 426.73 138.281 426.531 138.277C426.331 138.273 426.135 138.23 425.952 138.151C425.769 138.071 425.604 137.956 425.466 137.812C425.328 137.668 425.22 137.498 425.148 137.312C425.076 137.127 425.041 136.928 425.045 136.729C425.05 136.53 425.094 136.333 425.175 136.151Z" fill="#3F3D56"/>
</g>
<defs>
<clipPath id="clip0_368_768">
<rect width="717.67" height="453.964" fill="white"/>
</clipPath>
</defs>
</svg>
