<svg width="894" height="610" viewBox="0 0 894 610" fill="none" xmlns="http://www.w3.org/2000/svg">
<g clip-path="url(#clip0_368_264)">
<path d="M557.089 609.273C565.888 590.266 574.681 570.979 578.5 550.385C582.319 529.792 580.716 507.443 569.779 489.581C558.841 471.72 537.306 459.607 516.755 463.645C499.875 466.961 486.322 480.256 478.386 495.518C470.449 510.78 467.265 527.994 464.179 544.917C463.181 525.692 462.125 506.156 455.738 487.995C449.352 469.834 436.776 452.909 418.853 445.881C400.93 438.854 377.614 444.38 368.168 461.155C354.859 484.787 372.506 517.937 357.203 540.33C354.578 517.868 331.089 500.121 308.764 503.734C286.44 507.346 269.746 531.594 274.338 553.738C277.071 566.914 286.061 578.121 296.809 586.218C307.557 594.314 320.057 603.698 332.423 609.005L557.089 609.273Z" fill="#F2F2F2"/>
<path d="M286.058 519.603C303.791 525.802 321.688 532.07 337.877 541.761C352.387 550.446 365.307 562.14 373.468 577.115C377.939 585.149 380.593 594.065 381.244 603.236C381.362 605.154 384.363 605.168 384.244 603.236C383.195 586.158 374.872 570.528 363.347 558.168C350.711 544.616 334.336 535.36 317.43 528.179C307.405 523.921 297.132 520.302 286.856 516.71C285.029 516.072 284.244 518.969 286.058 519.603Z" fill="white"/>
<path d="M388.346 448.859C399.241 467.01 407.966 486.378 414.34 506.565C420.728 526.745 424.751 547.598 426.33 568.706C427.204 580.522 427.299 592.382 426.616 604.211C426.504 606.139 429.505 606.133 429.616 604.211C430.826 582.885 429.535 561.49 425.77 540.464C422.01 519.44 415.832 498.922 407.357 479.319C402.599 468.308 397.114 457.626 390.936 447.345C390.729 447.016 390.401 446.78 390.023 446.688C389.645 446.596 389.246 446.654 388.91 446.85C388.574 447.047 388.327 447.366 388.222 447.741C388.117 448.116 388.161 448.517 388.346 448.859Z" fill="white"/>
<path d="M535.178 466.091C519.767 500.716 508.922 537.198 502.916 574.619C501.229 585.13 499.923 595.692 498.999 606.306C498.831 608.229 501.832 608.218 501.999 606.306C505.266 568.969 513.335 532.209 526.008 496.937C529.569 487.02 533.489 477.243 537.768 467.606C538.545 465.857 535.96 464.328 535.178 466.091Z" fill="white"/>
<path d="M106.07 607.029C75.3342 599.029 48.1746 580.942 28.9446 555.666C9.71448 530.39 -0.472421 499.39 0.0168356 467.635C0.138726 459.723 0.970626 451.645 4.29661 444.465C7.62259 437.284 13.8005 431.074 21.5285 429.373C29.9624 427.516 38.8619 431.312 45.1472 437.234C51.4324 443.156 55.5535 450.97 59.3452 458.729C82.183 505.463 99.5347 555.609 106.031 607.217L106.07 607.029Z" fill="#F2F2F2"/>
<path d="M17.7024 430.932L33.7085 467.299L49.7145 503.667C54.7836 515.184 59.8431 526.707 65.0826 538.148C70.2761 549.489 75.6475 560.751 81.3778 571.832C87.1 582.897 93.1816 593.781 99.7829 604.347C100.605 605.663 101.435 606.974 102.273 608.279C102.853 609.184 104.303 608.345 103.719 607.434C96.9914 596.946 90.792 586.129 84.9777 575.11C79.157 564.08 73.7168 552.853 68.4775 541.536C63.2102 530.159 58.1455 518.689 53.0942 507.215C47.7773 495.137 42.4613 483.059 37.1462 470.98L21.1402 434.613L19.1483 430.087C18.7151 429.103 17.2718 429.954 17.7023 430.932L17.7024 430.932Z" fill="white"/>
<path d="M99.3927 607.282C81.2759 611.426 62.2922 609.367 45.4847 601.436C28.6773 593.505 15.0195 580.16 6.70072 563.541C4.62805 559.4 2.87919 554.982 2.66764 550.356C2.45609 545.73 3.98708 540.838 7.54 537.869C11.4175 534.628 17.0627 534.196 21.9246 535.574C26.7866 536.952 31.0356 539.896 35.0988 542.901C59.5723 560.999 82.1184 582.349 99.4236 607.39L99.3927 607.282Z" fill="#F2F2F2"/>
<path d="M5.97474 539.711L24.1026 554.271L42.2304 568.831C47.9715 573.443 53.709 578.059 59.518 582.585C65.276 587.071 71.1052 591.468 77.0716 595.674C83.0296 599.874 89.1254 603.883 95.4051 607.586C96.1871 608.048 96.9719 608.504 97.7596 608.956C98.3049 609.268 98.8313 608.441 98.2821 608.126C91.9578 604.498 85.8189 600.555 79.8256 596.404C73.8258 592.249 67.9704 587.888 62.1951 583.427C56.389 578.942 50.6632 574.355 44.943 569.761C38.922 564.926 32.9013 560.09 26.881 555.254L8.75321 540.694L6.4973 538.882C6.00672 538.488 5.48718 539.32 5.97475 539.711H5.97474Z" fill="white"/>
<path d="M870.967 609.616H43.6727C43.516 609.616 43.3608 609.586 43.2159 609.526C43.0711 609.466 42.9394 609.379 42.8285 609.268C42.7175 609.158 42.6295 609.026 42.5695 608.882C42.5094 608.737 42.4785 608.582 42.4785 608.425C42.4785 608.268 42.5094 608.113 42.5695 607.969C42.6295 607.824 42.7175 607.693 42.8285 607.582C42.9394 607.471 43.0711 607.384 43.2159 607.324C43.3608 607.264 43.516 607.234 43.6727 607.234H870.967C871.282 607.234 871.585 607.36 871.809 607.583C872.032 607.806 872.157 608.109 872.157 608.425C872.157 608.741 872.032 609.044 871.809 609.267C871.585 609.49 871.282 609.616 870.967 609.616Z" fill="#3F3D56"/>
<path d="M849.233 490.323H793.223C793.222 490.986 792.959 491.622 792.49 492.091C792.021 492.559 791.386 492.823 790.723 492.823H735.743C734.966 493.408 734.258 494.079 733.633 494.823C731.753 497.065 730.726 499.898 730.732 502.823V504.823C730.734 508.138 732.051 511.317 734.395 513.661C736.739 516.005 739.918 517.322 743.232 517.323H849.232C852.547 517.32 855.725 516.002 858.068 513.659C860.412 511.315 861.73 508.138 861.732 504.823V502.823C861.728 499.509 860.409 496.333 858.066 493.99C855.723 491.646 852.546 490.328 849.233 490.323Z" fill="#3F3D56"/>
<path d="M803.229 516.827H790.229V608.827H803.229V516.827Z" fill="#3F3D56"/>
<path d="M840.229 608.37C840.229 609.775 820.529 608.913 796.229 608.913C771.928 608.913 752.229 609.775 752.229 608.37C752.229 606.965 771.928 595.827 796.229 595.827C820.529 595.827 840.229 606.965 840.229 608.37Z" fill="#3F3D56"/>
<path d="M846.784 493.203L844.604 479.564C844.327 477.844 843.38 476.305 841.97 475.284C840.561 474.262 838.803 473.841 837.083 474.114L814.594 477.703L776.074 483.853L763.544 485.853H790.724C791.387 485.854 792.022 486.117 792.491 486.586C792.96 487.055 793.223 487.691 793.224 488.353V490.323C793.223 490.986 792.96 491.622 792.491 492.091C792.022 492.56 791.387 492.823 790.724 492.823H721.554C720.588 493.275 719.752 493.963 719.124 494.823C718.592 495.523 718.207 496.324 717.994 497.176C717.781 498.029 717.744 498.916 717.884 499.783L718.503 503.663L719.253 508.374L720.063 513.434C720.339 515.148 721.283 516.684 722.689 517.704C724.095 518.723 725.848 519.144 727.563 518.874L745.434 516.023L796.974 507.793L841.333 500.713C843.049 500.434 844.584 499.488 845.605 498.081C846.626 496.674 847.05 494.921 846.784 493.203Z" fill="#3F3D56"/>
<path d="M744.064 494.823C743.407 493.95 742.535 493.261 741.534 492.823H722.414C721.408 493.258 720.533 493.948 719.874 494.823C718.984 495.963 718.502 497.367 718.504 498.813V575.023C718.506 576.76 719.197 578.424 720.425 579.652C721.653 580.88 723.318 581.571 725.054 581.573H738.884C740.621 581.571 742.285 580.88 743.513 579.652C744.741 578.424 745.432 576.76 745.434 575.023V498.813C745.435 497.368 744.953 495.963 744.064 494.823Z" fill="#3F3D56"/>
<path d="M785.683 365.023L785.553 364.853L776.973 354.283C776.516 353.716 775.965 353.233 775.343 352.853C775.014 352.63 774.658 352.449 774.283 352.313C773.736 352.094 773.16 351.953 772.573 351.893C772.181 351.852 771.786 351.845 771.393 351.873C771.385 351.874 771.378 351.878 771.373 351.883C770.047 351.981 768.784 352.484 767.753 353.323L750.143 367.603L727.513 385.963L693.743 413.363L691.283 415.363H734.013L736.483 413.363L744.653 406.733L745.233 406.273L784.693 374.263L784.723 374.243C785.535 373.59 786.177 372.749 786.593 371.793C786.868 371.168 787.043 370.503 787.113 369.823C787.204 368.969 787.125 368.104 786.879 367.28C786.634 366.456 786.227 365.689 785.683 365.023Z" fill="#3F3D56"/>
<path d="M785.554 364.854C785.002 362.159 783.778 359.648 781.994 357.553C780.216 355.443 777.927 353.825 775.344 352.854C774.944 352.704 774.554 352.563 774.154 352.453C773.252 352.185 772.328 351.991 771.394 351.874C771.386 351.874 771.379 351.878 771.374 351.884C767.167 351.397 762.935 352.566 759.574 355.144L729.114 378.424C728.467 379.002 727.944 379.705 727.574 380.49C727.205 381.275 726.997 382.126 726.964 382.994C726.917 384.013 727.105 385.029 727.514 385.964C727.614 386.174 727.724 386.384 727.844 386.584C728.077 386.99 728.359 387.366 728.684 387.704L733.564 393.184L744.914 405.914L745.234 406.274L745.964 407.104C746.545 407.74 747.246 408.256 748.027 408.622C748.807 408.987 749.653 409.195 750.514 409.233C751.375 409.271 752.235 409.139 753.045 408.844C753.855 408.549 754.599 408.097 755.234 407.514L781.504 379.294C782.869 377.828 783.95 376.123 784.694 374.264C785.894 371.278 786.193 368.007 785.554 364.854Z" fill="#2F2E41"/>
<path d="M797.167 328.643C824.849 328.643 847.289 306.202 847.289 278.521C847.289 250.839 824.849 228.398 797.167 228.398C769.485 228.398 747.045 250.839 747.045 278.521C747.045 306.202 769.485 328.643 797.167 328.643Z" fill="#3F3D56"/>
<path d="M815.963 486.303L814.593 477.703L813.783 472.653C813.507 470.937 812.561 469.4 811.153 468.38C809.745 467.36 807.99 466.941 806.272 467.213L769.843 473.023L759.963 474.603L757.963 474.923V485.853H790.723C791.386 485.854 792.021 486.117 792.49 486.586C792.959 487.055 793.222 487.691 793.223 488.353V490.323C793.222 490.986 792.959 491.622 792.49 492.091C792.021 492.56 791.386 492.823 790.723 492.823H687.053C687.053 492.843 687.062 492.863 687.062 492.883L687.683 496.763L689.243 506.523C689.518 508.238 690.462 509.774 691.868 510.794C693.274 511.813 695.027 512.234 696.743 511.963L714.613 509.113L718.502 508.493L719.252 508.373L745.433 504.193L763.243 501.343L791.502 496.833L791.923 496.763L810.513 493.803C812.228 493.529 813.765 492.585 814.787 491.179C815.808 489.774 816.231 488.02 815.963 486.303Z" fill="#3F3D56"/>
<path d="M865.383 449.523C865.383 490.383 861.232 514.823 797.232 507.823C797.143 507.813 797.062 507.803 796.973 507.793C785.558 506.666 774.268 504.507 763.243 501.343C757.513 499.67 751.944 497.488 746.603 494.823C745.343 494.183 744.133 493.513 742.942 492.823H790.723C791.386 492.823 792.021 492.56 792.49 492.091C792.959 491.622 793.222 490.986 793.223 490.323V488.353C793.222 487.69 792.959 487.055 792.49 486.586C792.021 486.117 791.386 485.854 790.723 485.853H757.963V422.693C757.96 420.75 757.187 418.887 755.813 417.513C754.439 416.139 752.576 415.366 750.633 415.363H723.982C724.213 414.703 724.442 414.033 724.692 413.363C727.193 406.445 730.156 399.703 733.562 393.183C738.229 384.129 743.783 375.56 750.143 367.603C754.571 362.058 759.542 356.97 764.982 352.413C775.013 344.133 785.933 339.013 797.013 339.013C837.873 339.013 865.383 408.663 865.383 449.523Z" fill="#2F2E41"/>
<path d="M798.219 297.097L798.272 295.224C794.787 295.127 791.715 294.909 789.407 293.222C788.752 292.717 788.214 292.077 787.829 291.345C787.445 290.613 787.222 289.807 787.176 288.982C787.136 288.477 787.212 287.97 787.399 287.5C787.587 287.03 787.88 286.609 788.256 286.271C789.788 284.977 792.254 285.395 794.051 286.219L795.601 286.93L792.629 265.212L790.773 265.466L793.301 283.94C792.267 283.556 791.152 283.438 790.06 283.595C788.967 283.752 787.932 284.18 787.047 284.84C786.452 285.36 785.985 286.01 785.683 286.74C785.381 287.469 785.251 288.259 785.305 289.047C785.359 290.157 785.656 291.24 786.174 292.223C786.691 293.205 787.418 294.063 788.302 294.735C791.268 296.903 795.122 297.011 798.219 297.097Z" fill="#2F2E41"/>
<path d="M781.598 267.059H771.51V268.932H781.598V267.059Z" fill="#2F2E41"/>
<path d="M813.439 267.059H803.352V268.932H813.439V267.059Z" fill="#2F2E41"/>
<path d="M837.169 264.749C833.271 258.881 826.412 256.394 819.648 255.789C812.035 255.108 804.679 256.576 797.245 258.002C789.065 259.572 780.407 261.041 772.165 259.056C768.518 258.212 765.111 256.552 762.199 254.2C759.288 251.848 756.949 248.866 755.357 245.478C752.339 238.869 751.689 231.422 753.516 224.39C755.448 216.91 760.242 210.329 766.054 205.358C777.917 195.213 793.97 190.654 809.411 191.083C824.793 191.48 839.66 196.708 851.905 206.025C864.171 215.679 872.802 229.205 876.39 244.396C880.142 259.462 878.92 275.338 872.906 289.653C869.527 297.491 864.641 304.557 860.87 312.198C857.359 319.312 854.655 327.583 856.84 335.518C858.757 342.481 864.384 348.667 871.449 350.557C874.664 351.4 878.065 351.177 881.142 349.921C884.218 348.665 886.804 346.444 888.51 343.592C892.041 338.023 892.126 330.729 886.823 326.232C885.486 325.08 883.929 324.212 882.246 323.68C880.562 323.148 878.789 322.964 877.032 323.14C875.276 323.315 873.574 323.846 872.029 324.699C870.484 325.553 869.129 326.712 868.046 328.106C865.894 330.9 864.932 334.43 865.366 337.93C865.627 339.698 862.92 340.462 862.657 338.676C862.024 334.975 862.726 331.17 864.637 327.938C866.548 324.706 869.544 322.258 873.092 321.029C876.64 319.801 880.509 319.871 884.01 321.229C887.51 322.587 890.415 325.143 892.207 328.443C895.405 334.455 893.679 341.707 889.62 346.847C887.526 349.584 884.687 351.66 881.443 352.826C878.2 353.993 874.689 354.2 871.331 353.423C863.942 351.717 857.897 345.844 855.054 338.943C851.89 331.26 853.34 322.686 856.425 315.23C859.76 307.171 864.712 299.943 868.628 292.177C872.174 285.159 874.431 277.561 875.29 269.745C877.011 254.049 873.448 238.228 865.167 224.785C856.727 211.55 843.843 201.758 828.831 197.169C813.929 192.381 797.84 192.806 783.211 198.376C768.935 204.001 755.149 216.259 755.315 232.723C755.386 239.756 757.996 246.928 763.383 251.619C769.821 257.225 778.785 257.704 786.878 256.829C795.022 255.949 802.931 253.57 811.11 252.963C818.224 252.436 825.899 252.984 832.252 256.519C835.21 258.169 837.728 260.505 839.595 263.331C840.598 264.841 838.166 266.25 837.169 264.749V264.749Z" fill="#2F2E41"/>
<path d="M826.963 379.354L822.993 376.594L815.603 371.464C814.173 370.476 812.411 370.094 810.701 370.404C808.992 370.713 807.475 371.687 806.482 373.113L782.393 407.784L759.963 440.063L757.963 442.943V485.854H758.143C759.702 485.699 761.153 484.989 762.232 483.854C762.464 483.615 762.675 483.358 762.863 483.084L769.843 473.024L787.093 448.193L804.973 422.474L806.673 420.024L828.593 388.474C828.712 388.306 828.822 388.133 828.923 387.954C829.023 387.782 829.113 387.605 829.192 387.424C829.821 386.03 829.943 384.46 829.535 382.986C829.128 381.512 828.218 380.227 826.963 379.354Z" fill="#3F3D56"/>
<path d="M827.033 365.633C826.326 365.169 825.583 364.761 824.812 364.413C821.396 362.848 817.545 362.506 813.906 363.446C810.268 364.385 807.063 366.549 804.832 369.573L782.073 400.433C781.616 401.168 781.309 401.987 781.171 402.841C781.033 403.695 781.067 404.569 781.27 405.41C781.473 406.251 781.841 407.044 782.353 407.741C782.865 408.439 783.511 409.028 784.252 409.473L804.973 422.473L805.232 422.633L806.272 423.283C807.76 424.183 809.543 424.456 811.232 424.044C812.92 423.631 814.377 422.567 815.283 421.083L831.352 389.183L831.622 388.653L831.633 388.643L832.622 386.653C834.428 383.073 834.856 378.955 833.826 375.08C832.795 371.205 830.378 367.844 827.033 365.633Z" fill="#2F2E41"/>
<path d="M687.684 492.823V568.113C687.686 569.85 688.377 571.514 689.605 572.742C690.833 573.97 692.497 574.661 694.233 574.663H708.063C709.8 574.661 711.465 573.97 712.692 572.742C713.92 571.514 714.611 569.85 714.614 568.113V492.823H687.684Z" fill="#3F3D56"/>
<path d="M790.723 483.853H759.963V422.693C759.96 420.22 758.976 417.848 757.227 416.099C755.478 414.35 753.106 413.366 750.633 413.363H636.562C634.087 413.364 631.713 414.347 629.962 416.096C628.211 417.845 627.226 420.218 627.223 422.693V485.493C627.226 487.968 628.211 490.341 629.962 492.091C631.713 493.84 634.087 494.823 636.562 494.823H790.723C790.883 494.823 791.033 494.813 791.183 494.803C791.323 494.793 791.463 494.763 791.603 494.743C792.623 494.537 793.541 493.984 794.2 493.179C794.86 492.373 795.221 491.364 795.223 490.323V488.353C795.223 487.16 794.748 486.015 793.905 485.171C793.061 484.327 791.916 483.853 790.723 483.853ZM790.723 492.823H636.562C634.618 492.823 632.753 492.05 631.377 490.676C630.001 489.302 629.226 487.438 629.223 485.493V422.693C629.226 420.749 630.001 418.885 631.377 417.51C632.753 416.136 634.618 415.364 636.562 415.363H750.633C752.576 415.366 754.439 416.139 755.813 417.513C757.187 418.887 757.96 420.75 757.963 422.693V485.853H790.723C791.386 485.854 792.021 486.117 792.49 486.586C792.959 487.055 793.222 487.69 793.223 488.353V490.323C793.222 490.986 792.959 491.622 792.49 492.091C792.021 492.56 791.386 492.823 790.723 492.823Z" fill="#3F3D56"/>
<path d="M693.594 461.785C697.842 461.785 701.285 458.342 701.285 454.094C701.285 449.847 697.842 446.404 693.594 446.404C689.347 446.404 685.904 449.847 685.904 454.094C685.904 458.342 689.347 461.785 693.594 461.785Z" fill="#3F3D56"/>
<path d="M121.996 325.34C151.554 325.34 175.515 301.379 175.515 271.821C175.515 242.263 151.554 218.302 121.996 218.302C92.4379 218.302 68.4766 242.263 68.4766 271.821C68.4766 301.379 92.4379 325.34 121.996 325.34Z" fill="#3F3D56"/>
<path d="M111.562 473.153H96.8027C95.0793 473.155 93.427 473.84 92.2084 475.059C90.9897 476.278 90.3044 477.93 90.3027 479.653V602.663C90.3044 604.387 90.9897 606.039 92.2083 607.258C93.427 608.476 95.0793 609.162 96.8027 609.163H111.562C113.286 609.162 114.938 608.476 116.157 607.258C117.376 606.039 118.061 604.387 118.062 602.663V479.653C118.061 477.93 117.376 476.278 116.157 475.059C114.938 473.84 113.286 473.155 111.562 473.153Z" fill="#2F2E41"/>
<path d="M142.754 473.153H127.994C126.271 473.155 124.618 473.84 123.4 475.059C122.181 476.278 121.496 477.93 121.494 479.653V602.663C121.496 604.387 122.181 606.039 123.4 607.258C124.618 608.476 126.271 609.162 127.994 609.163H142.754C143.608 609.163 144.453 608.995 145.241 608.669C146.03 608.342 146.747 607.863 147.35 607.26C147.954 606.656 148.433 605.939 148.759 605.151C149.086 604.362 149.254 603.517 149.254 602.663V479.653C149.254 478.8 149.086 477.954 148.759 477.166C148.433 476.377 147.954 475.661 147.35 475.057C146.747 474.453 146.03 473.975 145.241 473.648C144.453 473.321 143.608 473.153 142.754 473.153Z" fill="#2F2E41"/>
<path d="M153.444 353.403C148.271 346.719 141.139 341.818 133.044 339.388C124.949 336.957 116.296 337.118 108.297 339.847C100.298 342.577 93.3518 347.739 88.4311 354.611C83.5105 361.483 80.8612 369.721 80.8539 378.173V487.113C80.8499 487.445 80.8767 487.777 80.934 488.103C81.1713 489.77 82.0017 491.295 83.2728 492.399C84.5439 493.503 86.1704 494.112 87.8539 494.113H154.924C156.78 494.11 158.558 493.371 159.87 492.059C161.182 490.747 161.92 488.969 161.924 487.113V378.173C161.937 369.202 158.952 360.484 153.444 353.403Z" fill="#2F2E41"/>
<path d="M167.192 295.479L167.137 293.479C170.857 293.376 174.138 293.142 176.603 291.342C177.301 290.802 177.876 290.118 178.287 289.337C178.698 288.555 178.935 287.695 178.984 286.813C179.027 286.275 178.946 285.733 178.746 285.231C178.546 284.729 178.233 284.28 177.831 283.919C176.195 282.537 173.562 282.984 171.643 283.864L169.988 284.623L173.162 261.432L175.143 261.704L172.444 281.43C175.051 280.664 177.467 280.994 179.122 282.391C179.757 282.946 180.256 283.64 180.579 284.419C180.901 285.199 181.04 286.042 180.982 286.884C180.924 288.068 180.607 289.225 180.055 290.274C179.502 291.323 178.726 292.239 177.782 292.957C174.615 295.271 170.5 295.386 167.192 295.479Z" fill="#2F2E41"/>
<path d="M161.713 263.405H150.941V265.405H161.713V263.405Z" fill="#2F2E41"/>
<path d="M106.303 354.943C105.726 354.313 105.029 353.803 104.253 353.445C103.477 353.086 102.637 352.885 101.783 352.853L90.1532 352.373L87.0429 352.243C85.321 352.173 83.6414 352.788 82.3724 353.954C81.1033 355.12 80.3483 356.742 80.2729 358.463L78.4331 402.783L75.1831 481.373C75.1167 483.013 75.6723 484.618 76.7385 485.866C77.8046 487.114 79.3028 487.913 80.9331 488.103C81.0932 488.123 81.2431 488.133 81.4033 488.143L90.3032 488.513L96.1533 488.753C96.6218 488.774 97.0912 488.744 97.5532 488.663C98.7749 488.445 99.9091 487.883 100.823 487.043C101.454 486.466 101.963 485.769 102.322 484.993C102.681 484.217 102.882 483.378 102.913 482.523L103.303 473.153L106.173 403.843L108.013 359.613C108.085 357.892 107.47 356.212 106.303 354.943Z" fill="#3F3D56"/>
<path d="M97.7842 345.243C96.5413 344.981 95.2742 344.85 94.0039 344.853C89.0992 344.859 84.3971 346.81 80.929 350.278C77.4608 353.747 75.5098 358.449 75.5039 363.353V397.353C75.5067 398.43 75.7757 399.489 76.2869 400.436C76.7982 401.384 77.5358 402.19 78.4341 402.783C79.1665 403.266 79.9902 403.592 80.854 403.743C81.2331 403.816 81.618 403.852 82.0039 403.853H106.004C106.061 403.855 106.118 403.852 106.174 403.843C107.867 403.8 109.476 403.097 110.658 401.885C111.841 400.673 112.503 399.047 112.504 397.353V363.353C112.499 359.105 111.033 354.987 108.353 351.69C105.674 348.393 101.942 346.117 97.7842 345.243Z" fill="#2F2E41"/>
<path d="M225.964 442.073C224.396 441.263 223.164 439.925 222.487 438.294C221.81 436.664 221.731 434.846 222.264 433.163L227.954 415.053L226.294 413.673L182.624 377.543L153.444 353.403L149.894 350.463C148.566 349.364 146.857 348.837 145.141 348.999C143.425 349.16 141.843 349.996 140.744 351.323L131.334 362.703C130.788 363.36 130.377 364.118 130.125 364.934C129.873 365.749 129.785 366.607 129.864 367.457C129.944 368.307 130.191 369.133 130.591 369.887C130.991 370.642 131.535 371.31 132.194 371.853L161.924 396.453L165.304 399.243L226.974 450.263C228.114 451.211 229.545 451.74 231.028 451.761C232.51 451.783 233.956 451.297 235.124 450.383C235.446 450.131 235.741 449.846 236.004 449.533C236.046 449.493 236.087 449.449 236.124 449.403L237.314 447.963L225.964 442.073Z" fill="#3F3D56"/>
<path d="M180.523 370.603L154.213 349.073C152.333 347.534 150.169 346.38 147.843 345.678C145.517 344.975 143.076 344.738 140.658 344.979C138.241 345.22 135.894 345.934 133.753 347.082C131.612 348.23 129.717 349.788 128.178 351.668C126.639 353.548 125.485 355.713 124.783 358.038C124.08 360.364 123.842 362.806 124.083 365.223C124.57 370.106 126.976 374.595 130.773 377.703L157.083 399.233C158.242 400.183 159.693 400.702 161.191 400.704C162.689 400.706 164.142 400.19 165.303 399.243C165.649 398.976 165.961 398.667 166.233 398.323L181.433 379.753C181.971 379.102 182.375 378.351 182.623 377.543C182.997 376.308 182.997 374.99 182.624 373.755C182.25 372.52 181.519 371.424 180.523 370.603Z" fill="#2F2E41"/>
<path d="M108.579 280.883C105.793 276.227 103.611 271.097 104.647 265.58C105.571 260.654 109.116 256.818 114.213 256.315C117.283 256.012 120.338 256.831 123.336 257.365C125.794 257.796 128.292 257.958 130.784 257.847C135.8 257.619 140.717 256.372 145.235 254.183C149.822 252.037 153.895 248.933 157.182 245.081C160.469 241.23 162.894 236.719 164.292 231.852C167.334 220.778 165.075 208.203 157.852 199.189L160.359 198.527L157.094 209.251C157.031 209.471 156.918 209.674 156.765 209.844C156.612 210.014 156.422 210.147 156.21 210.234C155.998 210.32 155.769 210.357 155.54 210.342C155.312 210.327 155.09 210.261 154.891 210.148C148.975 206.41 142.361 203.913 135.45 202.808C128.54 201.703 121.477 202.013 114.69 203.721C110.855 204.684 107.151 206.109 103.659 207.963C101.955 208.869 100.438 206.281 102.145 205.373C108.704 201.951 115.889 199.896 123.265 199.331C130.642 198.766 138.056 199.703 145.06 202.086C149.048 203.445 152.858 205.282 156.405 207.558L154.201 208.454L157.466 197.73C157.539 197.479 157.675 197.251 157.862 197.069C158.049 196.887 158.279 196.756 158.532 196.689C158.784 196.622 159.05 196.622 159.302 196.689C159.555 196.755 159.786 196.886 159.973 197.068C163.333 201.33 165.795 206.227 167.211 211.466C168.628 216.705 168.969 222.176 168.214 227.551C167.485 232.847 165.644 237.93 162.813 242.466C159.982 247.002 156.224 250.888 151.785 253.869C147.352 256.862 142.368 258.946 137.124 260C131.879 261.055 126.478 261.058 121.232 260.011C118.296 259.447 114.966 258.639 112.086 259.868C111.041 260.372 110.12 261.1 109.388 262C108.656 262.9 108.132 263.95 107.852 265.076C106.219 270.607 108.997 275.86 111.834 280.459L108.579 280.883Z" fill="#2F2E41"/>
<path d="M303.824 391.683L254.354 363.053C253.122 362.341 251.746 361.915 250.327 361.806C248.908 361.696 247.482 361.907 246.156 362.423C244.829 362.938 243.635 363.745 242.663 364.784C241.69 365.822 240.962 367.066 240.534 368.423L226.294 413.673L220.354 432.563C219.681 434.695 219.783 436.995 220.641 439.059C221.499 441.123 223.058 442.817 225.044 443.843L236.004 449.533L271.764 468.083C273.117 468.787 274.619 469.154 276.144 469.153C277.27 469.151 278.387 468.951 279.444 468.563L279.514 468.533C280.764 468.056 281.899 467.322 282.846 466.378C283.794 465.434 284.532 464.301 285.014 463.053L307.934 403.303C308.751 401.195 308.786 398.864 308.032 396.732C307.278 394.6 305.785 392.809 303.824 391.683ZM306.064 402.593L283.144 462.343C282.763 463.328 282.178 464.222 281.429 464.966C280.679 465.711 279.782 466.289 278.794 466.663L278.744 466.683C277.764 467.046 276.719 467.2 275.675 467.136C274.632 467.072 273.613 466.792 272.684 466.313L237.314 447.963L225.964 442.073C224.396 441.263 223.164 439.925 222.487 438.294C221.81 436.664 221.731 434.846 222.264 433.163L227.954 415.053L242.434 369.023C242.774 367.953 243.35 366.973 244.118 366.155C244.887 365.337 245.829 364.701 246.875 364.294C247.922 363.887 249.046 363.72 250.165 363.805C251.285 363.89 252.371 364.224 253.344 364.783L302.814 393.413C304.364 394.302 305.544 395.717 306.141 397.401C306.737 399.085 306.71 400.927 306.064 402.593Z" fill="#3F3D56"/>
<path d="M287.225 410.827C286.724 410.827 286.231 410.701 285.791 410.461L252.791 392.461C252.095 392.078 251.58 391.436 251.357 390.673C251.134 389.911 251.222 389.092 251.603 388.395C251.983 387.698 252.624 387.18 253.385 386.955C254.146 386.73 254.966 386.815 255.664 387.193L288.664 405.193C289.25 405.512 289.712 406.018 289.978 406.629C290.244 407.241 290.299 407.923 290.134 408.57C289.969 409.216 289.594 409.788 289.067 410.197C288.54 410.606 287.892 410.828 287.225 410.827H287.225Z" fill="#3F3D56"/>
<path d="M281.225 423.827C280.724 423.827 280.231 423.701 279.791 423.461L246.791 405.461C246.095 405.078 245.58 404.436 245.357 403.673C245.134 402.911 245.222 402.092 245.603 401.395C245.983 400.698 246.624 400.18 247.385 399.955C248.146 399.73 248.966 399.815 249.664 400.193L282.664 418.193C283.25 418.512 283.712 419.018 283.978 419.629C284.244 420.241 284.299 420.923 284.134 421.57C283.969 422.216 283.594 422.788 283.067 423.197C282.54 423.606 281.892 423.828 281.225 423.827H281.225Z" fill="#3F3D56"/>
<path d="M276.225 437.827C275.724 437.827 275.231 437.701 274.791 437.461L241.791 419.461C241.095 419.078 240.58 418.436 240.357 417.673C240.134 416.911 240.222 416.092 240.603 415.395C240.983 414.698 241.624 414.18 242.385 413.955C243.146 413.73 243.966 413.815 244.664 414.193L277.664 432.193C278.25 432.512 278.712 433.018 278.978 433.629C279.244 434.241 279.299 434.923 279.134 435.57C278.969 436.216 278.594 436.788 278.067 437.197C277.54 437.606 276.892 437.828 276.225 437.827H276.225Z" fill="#3F3D56"/>
<path d="M625.199 154.543H486.471C484.477 154.541 482.565 153.747 481.155 152.337C479.745 150.927 478.951 149.016 478.949 147.021V-28.4786C478.951 -30.4727 479.745 -32.3845 481.155 -33.7945C482.565 -35.2046 484.477 -35.9977 486.471 -36H625.199C627.193 -35.9977 629.105 -35.2046 630.515 -33.7945C631.925 -32.3845 632.718 -30.4727 632.721 -28.4786V147.021C632.718 149.016 631.925 150.927 630.515 152.337C629.105 153.747 627.193 154.541 625.199 154.543ZM486.471 -34.3286C484.92 -34.3268 483.433 -33.7099 482.336 -32.6132C481.239 -31.5165 480.622 -30.0296 480.621 -28.4786V147.021C480.622 148.572 481.239 150.059 482.336 151.156C483.433 152.253 484.92 152.87 486.471 152.871H625.199C626.75 152.87 628.237 152.253 629.334 151.156C630.431 150.059 631.048 148.572 631.049 147.021V-28.4786C631.048 -30.0296 630.431 -31.5165 629.334 -32.6132C628.237 -33.7099 626.75 -34.3268 625.199 -34.3286H486.471Z" fill="#3F3D56"/>
<path d="M544.294 48.3584H513.757C512.76 48.3573 511.804 47.9607 511.099 47.2557C510.394 46.5506 509.997 45.5947 509.996 44.5977V8.56198C509.997 7.56492 510.394 6.60901 511.099 5.90398C511.804 5.19895 512.76 4.80237 513.757 4.80127H544.294C545.291 4.80237 546.247 5.19895 546.952 5.90398C547.657 6.60901 548.053 7.56492 548.055 8.56198V44.5977C548.053 45.5947 547.657 46.5506 546.952 47.2557C546.247 47.9607 545.291 48.3573 544.294 48.3584Z" fill="#3F3D56"/>
<path d="M603.63 65.0727H573.093C572.096 65.0716 571.14 64.6751 570.435 63.97C569.73 63.265 569.333 62.3091 569.332 61.312V25.2763C569.333 24.2793 569.73 23.3234 570.435 22.6183C571.14 21.9133 572.096 21.5167 573.093 21.5156H603.63C604.627 21.5167 605.583 21.9133 606.288 22.6183C606.993 23.3234 607.389 24.2793 607.39 25.2763V61.312C607.389 62.3091 606.993 63.265 606.288 63.97C605.583 64.6751 604.627 65.0716 603.63 65.0727Z" fill="#CCCCCC"/>
<path d="M555.995 116.051H525.458C524.461 116.05 523.505 115.654 522.8 114.949C522.095 114.244 521.698 113.288 521.697 112.291V76.2549C521.698 75.2578 522.095 74.3019 522.8 73.5968C523.505 72.8918 524.461 72.4952 525.458 72.4941H555.995C556.992 72.4952 557.948 72.8918 558.653 73.5968C559.358 74.3019 559.755 75.2578 559.756 76.2549V112.291C559.755 113.288 559.358 114.244 558.653 114.949C557.948 115.654 556.992 116.05 555.995 116.051Z" fill="#FF6584"/>
<path d="M444.239 107.107C443.662 105.737 442.696 104.567 441.461 103.741C440.226 102.914 438.775 102.468 437.289 102.457H298.559C296.565 102.458 294.653 103.251 293.243 104.661C291.833 106.071 291.04 107.983 291.039 109.977V285.477C291.04 287.471 291.833 289.383 293.243 290.793C294.653 292.203 296.565 292.996 298.559 292.997H437.289C439.283 292.994 441.194 292.201 442.603 290.791C444.013 289.382 444.806 287.471 444.809 285.477V109.977C444.812 108.992 444.618 108.016 444.239 107.107ZM443.139 285.477C443.137 287.028 442.52 288.515 441.423 289.611C440.327 290.708 438.84 291.325 437.289 291.327H298.559C297.008 291.327 295.52 290.71 294.423 289.613C293.326 288.516 292.709 287.028 292.709 285.477V109.977C292.711 108.426 293.328 106.939 294.425 105.843C295.521 104.746 297.008 104.129 298.559 104.127H437.289C438.457 104.131 439.598 104.484 440.565 105.139C441.532 105.795 442.282 106.724 442.719 107.807C442.804 108.023 442.878 108.243 442.939 108.467C443.072 108.959 443.139 109.467 443.139 109.977V285.477Z" fill="#3F3D56"/>
<path d="M415.283 143.893H373.497C372.611 143.893 371.76 143.541 371.133 142.914C370.507 142.287 370.154 141.436 370.154 140.55C370.154 139.663 370.507 138.813 371.133 138.186C371.76 137.559 372.611 137.207 373.497 137.207H415.283C416.169 137.207 417.02 137.559 417.647 138.186C418.274 138.813 418.626 139.663 418.626 140.55C418.626 141.436 418.274 142.287 417.647 142.914C417.02 143.541 416.169 143.893 415.283 143.893Z" fill="#3F3D56"/>
<path d="M415.283 161.443H373.497C372.611 161.443 371.76 161.09 371.133 160.463C370.507 159.837 370.154 158.986 370.154 158.1C370.154 157.213 370.507 156.363 371.133 155.736C371.76 155.109 372.611 154.757 373.497 154.757H415.283C416.169 154.757 417.02 155.109 417.647 155.736C418.274 156.363 418.626 157.213 418.626 158.1C418.626 158.986 418.274 159.837 417.647 160.463C417.02 161.09 416.169 161.443 415.283 161.443Z" fill="#3F3D56"/>
<path d="M352.057 171.436H321.521C320.523 171.434 319.568 171.038 318.862 170.333C318.157 169.628 317.761 168.672 317.76 167.675V131.639C317.761 130.642 318.157 129.686 318.862 128.981C319.568 128.276 320.523 127.88 321.521 127.878H352.057C353.055 127.88 354.01 128.276 354.716 128.981C355.421 129.686 355.817 130.642 355.818 131.639V167.675C355.817 168.672 355.421 169.628 354.716 170.333C354.01 171.038 353.055 171.434 352.057 171.436Z" fill="#3F3D56"/>
<path d="M414.993 197.379H320.558C320.118 197.379 319.683 197.293 319.277 197.126C318.87 196.958 318.501 196.712 318.19 196.402C317.879 196.091 317.632 195.722 317.464 195.316C317.296 194.91 317.209 194.475 317.209 194.036C317.209 193.596 317.296 193.161 317.464 192.755C317.632 192.349 317.879 191.98 318.19 191.67C318.501 191.359 318.87 191.113 319.277 190.946C319.683 190.778 320.118 190.692 320.558 190.693H414.993C415.879 190.694 416.728 191.047 417.353 191.674C417.979 192.301 418.33 193.15 418.33 194.036C418.33 194.921 417.979 195.771 417.353 196.397C416.728 197.024 415.879 197.377 414.993 197.379Z" fill="#CCCCCC"/>
<path d="M414.993 214.928H320.558C320.118 214.929 319.683 214.843 319.277 214.676C318.87 214.508 318.501 214.262 318.19 213.951C317.879 213.641 317.632 213.272 317.464 212.866C317.296 212.46 317.209 212.025 317.209 211.586C317.209 211.146 317.296 210.711 317.464 210.305C317.632 209.899 317.879 209.53 318.19 209.22C318.501 208.909 318.87 208.663 319.277 208.495C319.683 208.328 320.118 208.242 320.558 208.243H414.993C415.88 208.243 416.73 208.595 417.357 209.222C417.984 209.849 418.336 210.699 418.336 211.586C418.336 212.472 417.984 213.322 417.357 213.949C416.73 214.576 415.88 214.928 414.993 214.928Z" fill="#CCCCCC"/>
<path d="M414.993 232.478H320.558C320.118 232.479 319.683 232.393 319.277 232.226C318.87 232.058 318.501 231.812 318.19 231.501C317.879 231.191 317.632 230.822 317.464 230.416C317.296 230.01 317.209 229.575 317.209 229.136C317.209 228.696 317.296 228.261 317.464 227.855C317.632 227.449 317.879 227.08 318.19 226.77C318.501 226.459 318.87 226.213 319.277 226.046C319.683 225.878 320.118 225.792 320.558 225.793H414.993C415.88 225.793 416.73 226.145 417.357 226.772C417.984 227.399 418.336 228.249 418.336 229.136C418.336 230.022 417.984 230.872 417.357 231.499C416.73 232.126 415.88 232.478 414.993 232.478Z" fill="#CCCCCC"/>
<path d="M414.993 250.029H320.558C320.118 250.029 319.683 249.943 319.277 249.776C318.87 249.608 318.501 249.362 318.19 249.051C317.879 248.741 317.632 248.372 317.464 247.966C317.296 247.56 317.209 247.125 317.209 246.686C317.209 246.246 317.296 245.811 317.464 245.405C317.632 244.999 317.879 244.63 318.19 244.32C318.501 244.009 318.87 243.763 319.277 243.596C319.683 243.428 320.118 243.342 320.558 243.343H414.993C415.88 243.343 416.73 243.695 417.357 244.322C417.984 244.949 418.336 245.799 418.336 246.686C418.336 247.572 417.984 248.423 417.357 249.049C416.73 249.676 415.88 250.029 414.993 250.029Z" fill="#CCCCCC"/>
<path d="M414.993 267.579H320.558C320.118 267.579 319.683 267.493 319.277 267.326C318.87 267.158 318.501 266.912 318.19 266.601C317.879 266.291 317.632 265.922 317.464 265.516C317.296 265.11 317.209 264.675 317.209 264.236C317.209 263.796 317.296 263.361 317.464 262.955C317.632 262.549 317.879 262.18 318.19 261.87C318.501 261.559 318.87 261.313 319.277 261.146C319.683 260.978 320.118 260.892 320.558 260.893H414.993C415.879 260.894 416.728 261.247 417.353 261.874C417.979 262.501 418.33 263.35 418.33 264.236C418.33 265.121 417.979 265.971 417.353 266.597C416.728 267.224 415.879 267.577 414.993 267.579Z" fill="#CCCCCC"/>
<path d="M549.392 173.709L470.307 249.004L471.459 250.215L550.545 174.92L549.392 173.709Z" fill="#E6E6E6"/>
<path d="M469.568 250.858L479.606 250.74L479.588 249.067L471.346 249.166L471.85 240.94L470.18 240.839L469.568 250.858Z" fill="#E6E6E6"/>
<path d="M551.28 173.063L550.67 183.083L549 182.983L549.503 174.756L541.262 174.855L541.244 173.183L551.28 173.063Z" fill="#E6E6E6"/>
<path d="M510.427 221.155C515.504 221.155 519.62 217.039 519.62 211.962C519.62 206.885 515.504 202.769 510.427 202.769C505.35 202.769 501.234 206.885 501.234 211.962C501.234 217.039 505.35 221.155 510.427 221.155Z" fill="#E6E6E6"/>
<path d="M443.392 -4.29065L364.307 71.0039L365.459 72.2146L444.545 -3.07997L443.392 -4.29065Z" fill="#E6E6E6"/>
<path d="M363.568 72.8579L373.606 72.7399L373.588 71.0669L365.346 71.1659L365.85 62.9399L364.18 62.8389L363.568 72.8579Z" fill="#E6E6E6"/>
<path d="M445.28 -4.93701L444.67 5.08299L443 4.98299L443.503 -3.24401L435.262 -3.14501L435.244 -4.81701L445.28 -4.93701Z" fill="#E6E6E6"/>
<path d="M404.427 43.1548C409.504 43.1548 413.62 39.039 413.62 33.9619C413.62 28.8848 409.504 24.769 404.427 24.769C399.35 24.769 395.234 28.8848 395.234 33.9619C395.234 39.039 399.35 43.1548 404.427 43.1548Z" fill="#E6E6E6"/>
<path d="M759.934 484.913H757.934V493.913H759.934V484.913Z" fill="#3F3D56"/>
</g>
<defs>
<clipPath id="clip0_368_264">
<rect width="893.867" height="645.616" fill="white" transform="translate(0 -36)"/>
</clipPath>
</defs>
</svg>
