<svg width="596" height="605" viewBox="0 0 596 605" fill="none" xmlns="http://www.w3.org/2000/svg">
<g clip-path="url(#clip0_418_262)">
<path d="M107.191 587.002H116.318L120.661 552.115H107.191V587.002Z" fill="#A0616A"/>
<path d="M104.214 580.807L118.795 579.944V586.136L132.657 595.624C133.342 596.092 133.858 596.765 134.129 597.545C134.4 598.325 134.413 599.17 134.165 599.957C133.918 600.744 133.423 601.433 132.752 601.921C132.082 602.41 131.272 602.673 130.44 602.673H113.08L110.088 596.549L108.92 602.673H102.375L104.214 580.807Z" fill="#2F2E41"/>
<path d="M180.186 587.002H189.312L193.656 552.115H180.186V587.002Z" fill="#A0616A"/>
<path d="M177.208 580.807L191.789 579.944V586.136L205.651 595.624C206.336 596.092 206.852 596.765 207.123 597.545C207.394 598.325 207.407 599.17 207.16 599.957C206.912 600.744 206.417 601.433 205.747 601.921C205.076 602.41 204.266 602.673 203.434 602.673H186.075L183.083 596.549L181.914 602.673H175.369L177.208 580.807Z" fill="#2F2E41"/>
<path d="M114.416 373.918L162.94 375.123V323.15L123.081 323.346L114.416 373.918Z" fill="#A0616A"/>
<path d="M163.186 336.499L169.673 357.916L183.138 386.01L211.582 548.28L207.234 570.726L165.066 568.97L146.286 429.84L145.984 449.048L145.838 458.344C145.838 458.344 152.688 518.812 144.703 530.547C136.719 542.281 144.541 540.901 144.541 540.901L144.16 565.108L94.1973 565.459L105.22 495.767C105.22 495.767 110.817 491.387 107.822 486.985C104.828 482.582 110.725 477.19 110.725 477.19L108.08 422.784C108.08 422.784 111.008 413.386 107.564 412.165C104.119 410.943 107.111 402.862 107.111 402.862L106.599 392.331L117.934 349.857L163.186 336.499Z" fill="#2F2E41"/>
<path d="M116.168 323.15L111.207 308.401L107.663 303.485L106.246 289.438C106.246 251.511 114.782 257.827 114.782 257.827L125.917 244.488L138.585 244.096L148.595 243.786L156.918 257.481L168.965 261.695L173.683 285.99L165.068 311.913L165.448 309.987C169.503 317.407 168.472 318.523 165.113 324.094L164.946 326.106C164.552 330.862 167.896 331.682 163.188 332.682C122.749 341.27 118.898 358.445 114.083 351.766C113.011 350.278 117.56 332.528 116.009 332.682C111.758 333.103 116.168 323.15 116.168 323.15Z" fill="#E6E6E6"/>
<path d="M140.949 239.071C152.56 239.071 161.973 229.743 161.973 218.236C161.973 206.729 152.56 197.401 140.949 197.401C129.338 197.401 119.926 206.729 119.926 218.236C119.926 229.743 129.338 239.071 140.949 239.071Z" fill="#A0616A"/>
<path d="M96.602 366.888L98.7549 293.491L112.777 299.571L105.786 366.62C106.885 367.516 107.682 368.722 108.071 370.078C108.459 371.434 108.421 372.875 107.961 374.209C107.501 375.543 106.641 376.706 105.496 377.543C104.351 378.38 102.976 378.85 101.554 378.892C100.132 378.933 98.7316 378.543 97.5391 377.775C96.3467 377.006 95.4194 375.895 94.881 374.59C94.3427 373.286 94.2191 371.849 94.5266 370.473C94.8341 369.096 95.5582 367.846 96.602 366.888Z" fill="#A0616A"/>
<path d="M114.531 257.448L112.9 257.958C108.543 259.321 104.738 262.026 102.037 265.678C99.336 269.33 97.8798 273.741 97.8798 278.269L94.8125 292.188C99.256 299.744 105.824 303.487 114.969 302.61L114.531 257.448Z" fill="#E6E6E6"/>
<path d="M210.379 282.781C210.38 281.753 210.149 280.737 209.704 279.808C209.258 278.88 208.61 278.061 207.805 277.412C207 276.762 206.059 276.299 205.051 276.056C204.043 275.812 202.993 275.794 201.977 276.004C200.961 276.213 200.004 276.644 199.178 277.266C198.351 277.888 197.675 278.684 197.198 279.598C196.721 280.511 196.455 281.518 196.421 282.546C196.386 283.574 196.583 284.597 196.997 285.539L183.248 307.011V294.132L167.738 295.794L169.909 318.745C170.083 320.582 170.844 322.316 172.082 323.695C173.319 325.073 174.969 326.024 176.789 326.409C178.61 326.794 180.508 326.593 182.205 325.835C183.902 325.077 185.311 323.801 186.226 322.194L204.811 289.558C206.384 289.235 207.797 288.385 208.811 287.151C209.825 285.916 210.379 284.373 210.379 282.781Z" fill="#A0616A"/>
<path d="M166.482 260.898L168.042 261.387C172.21 262.691 175.85 265.278 178.434 268.772C181.017 272.266 182.41 276.485 182.41 280.817L185.345 294.132C181.094 301.36 174.81 304.941 166.062 304.103L166.482 260.898Z" fill="#E6E6E6"/>
<path d="M113.965 222.889C115.139 218.46 115.58 213.825 117.277 209.565C118.961 205.336 121.814 201.663 125.508 198.967C129.203 196.271 133.589 194.663 138.165 194.325C142.74 193.988 147.318 194.935 151.375 197.059C155.431 199.183 158.802 202.397 161.099 206.332C163.112 209.526 163.961 213.306 163.504 217.045C162.835 221.111 160.117 224.977 160.968 229.01C161.537 231.708 163.593 233.804 165.226 236.035C166.858 238.266 168.147 241.218 166.971 243.715C165.694 246.427 162.145 247.229 159.136 246.975C156.126 246.72 153.112 245.757 150.141 246.297L151.556 240.803C148.034 244.162 144.513 247.521 140.991 250.88C141.381 247.384 139.742 244.03 138.612 240.696C137.481 237.362 136.954 233.344 139.194 230.615C140.533 228.983 142.597 228.159 144.439 227.114C146.281 226.069 148.109 224.504 148.296 222.408C148.529 219.818 146.186 217.739 143.886 216.486C141.586 215.234 138.937 214.183 137.646 211.919C138.573 213.89 139.499 215.862 140.426 217.833C137.344 217.617 134.375 216.599 131.817 214.883C129.259 213.166 127.203 210.811 125.856 208.056L124.586 208.879C114.029 220.613 127.549 238.192 119.623 244.344C123.104 238.193 112.157 229.71 113.965 222.889Z" fill="#2F2E41"/>
<path d="M388.797 2.22201L195.915 57.5231C165.917 66.1241 148.633 97.1976 157.312 126.928L284.823 563.734C293.502 593.464 324.856 610.593 354.855 601.992L547.737 546.691C577.735 538.09 595.019 507.016 586.34 477.286L458.829 40.4798C450.15 10.7496 418.796 -6.37898 388.797 2.22201Z" fill="#3F3D56"/>
<path d="M390.269 7.26332L365.046 14.4951L367.567 23.1308C368.708 27.0395 368.235 31.2374 366.253 34.8009C364.271 38.3644 360.942 41.0017 356.998 42.1325L244.306 74.4425C240.362 75.5733 236.126 75.105 232.53 73.1407C228.934 71.1764 226.273 67.877 225.132 63.9682L222.611 55.3325L197.388 62.5643C184.34 66.3212 173.328 75.0541 166.769 86.8469C160.21 98.6398 158.638 112.53 162.4 125.469L289.911 562.276C293.701 575.207 302.513 586.12 314.413 592.62C326.312 599.121 340.328 600.678 353.384 596.951L546.266 541.65C559.314 537.893 570.325 529.16 576.885 517.367C583.444 505.574 585.015 491.684 581.254 478.745L453.743 41.9383C449.952 29.0072 441.14 18.0943 429.241 11.5937C417.341 5.09314 403.326 3.53579 390.269 7.26332Z" fill="white"/>
<path d="M172.453 183.946C171.472 184.226 170.418 184.109 169.524 183.621C168.63 183.132 167.968 182.312 167.683 181.341L165.542 174.008C165.402 173.526 165.358 173.022 165.414 172.524C165.47 172.026 165.625 171.543 165.869 171.104C166.113 170.665 166.442 170.278 166.837 169.965C167.232 169.653 167.686 169.42 168.172 169.28C168.657 169.141 169.166 169.098 169.669 169.154C170.172 169.209 170.658 169.362 171.101 169.604C171.544 169.846 171.935 170.172 172.25 170.564C172.566 170.955 172.801 171.405 172.942 171.886L175.082 179.219C175.365 180.192 175.247 181.235 174.754 182.122C174.261 183.008 173.433 183.664 172.453 183.946Z" fill="#3F3D56"/>
<path d="M183.429 221.547C182.448 221.827 181.395 221.71 180.501 221.222C179.606 220.733 178.944 219.913 178.659 218.941L172.767 198.756C172.626 198.275 172.583 197.77 172.639 197.272C172.695 196.774 172.85 196.292 173.094 195.853C173.338 195.414 173.667 195.027 174.062 194.714C174.457 194.401 174.91 194.168 175.396 194.029C175.882 193.89 176.391 193.847 176.894 193.902C177.396 193.958 177.883 194.111 178.326 194.353C178.769 194.595 179.159 194.921 179.475 195.312C179.791 195.704 180.026 196.153 180.166 196.635L186.059 216.82C186.341 217.792 186.223 218.836 185.73 219.722C185.237 220.609 184.41 221.265 183.429 221.547Z" fill="#3F3D56"/>
<path d="M192.253 251.776C191.272 252.056 190.219 251.939 189.325 251.45C188.431 250.962 187.768 250.142 187.484 249.17L181.591 228.985C181.307 228.013 181.425 226.968 181.918 226.082C182.411 225.195 183.239 224.539 184.22 224.258C185.202 223.976 186.255 224.093 187.15 224.582C188.044 225.07 188.707 225.891 188.99 226.864L194.883 247.049C195.165 248.021 195.047 249.065 194.554 249.951C194.061 250.837 193.234 251.494 192.253 251.776Z" fill="#3F3D56"/>
<path d="M490.805 148.298C489.824 148.578 488.771 148.461 487.877 147.973C486.982 147.484 486.32 146.664 486.035 145.693L471.658 96.4398C471.374 95.4674 471.491 94.423 471.984 93.5365C472.477 92.65 473.306 91.9939 474.287 91.7126C475.268 91.4313 476.322 91.5478 477.216 92.0365C478.111 92.5251 478.773 93.3459 479.057 94.3184L493.434 143.571C493.717 144.544 493.599 145.587 493.106 146.474C492.613 147.36 491.786 148.016 490.805 148.298Z" fill="#3F3D56"/>
<path d="M245.512 175.125C245.171 175.223 244.805 175.193 244.485 175.039L225.802 166.12C225.631 166.038 225.478 165.924 225.352 165.784C225.225 165.644 225.128 165.48 225.065 165.303C225.003 165.125 224.976 164.937 224.987 164.75C224.997 164.562 225.045 164.378 225.128 164.209L234.128 145.694C234.21 145.524 234.325 145.373 234.467 145.247C234.608 145.122 234.773 145.026 234.952 144.964C235.131 144.902 235.321 144.875 235.51 144.886C235.7 144.896 235.885 144.944 236.056 145.025C236.227 145.107 236.38 145.221 236.506 145.361C236.632 145.501 236.73 145.665 236.792 145.842C236.855 146.02 236.882 146.208 236.871 146.395C236.86 146.583 236.812 146.767 236.73 146.936L228.357 164.162L245.738 172.461C246.002 172.586 246.221 172.788 246.366 173.04C246.511 173.292 246.575 173.581 246.551 173.87C246.526 174.159 246.414 174.433 246.229 174.657C246.043 174.882 245.793 175.045 245.512 175.125V175.125Z" fill="#3F3D56"/>
<path d="M256.132 172.041C255.847 172.123 255.543 172.116 255.262 172.02C254.982 171.925 254.737 171.746 254.562 171.509C254.388 171.271 254.291 170.985 254.286 170.691C254.281 170.397 254.367 170.108 254.534 169.865L265.34 154.024L249.357 143.315C249.199 143.21 249.064 143.075 248.959 142.918C248.854 142.761 248.781 142.585 248.745 142.4C248.709 142.216 248.71 142.026 248.748 141.841C248.786 141.657 248.86 141.481 248.967 141.326C249.073 141.17 249.209 141.036 249.368 140.932C249.526 140.829 249.704 140.757 249.891 140.722C250.077 140.686 250.269 140.688 250.455 140.726C250.641 140.764 250.817 140.838 250.974 140.944L268.154 152.455C268.311 152.56 268.446 152.695 268.551 152.852C268.655 153.009 268.727 153.185 268.763 153.369C268.799 153.554 268.798 153.743 268.76 153.927C268.722 154.112 268.648 154.286 268.542 154.442L256.926 171.468C256.738 171.746 256.457 171.948 256.132 172.041Z" fill="#3F3D56"/>
<path d="M445.34 137.99L224.952 201.178C221.552 202.148 217.903 201.743 214.805 200.05C211.707 198.358 209.413 195.517 208.426 192.15L196.042 149.726C195.062 146.357 195.471 142.741 197.179 139.671C198.887 136.6 201.754 134.326 205.151 133.348L425.539 70.1609C428.938 69.1904 432.587 69.5959 435.686 71.2883C438.784 72.9808 441.078 75.8221 442.065 79.1888L454.449 121.613C455.428 124.982 455.019 128.598 453.312 131.668C451.604 134.739 448.737 137.012 445.34 137.99ZM205.686 135.182C202.779 136.019 200.326 137.964 198.865 140.591C197.404 143.219 197.054 146.313 197.891 149.196L210.276 191.62C211.12 194.5 213.083 196.932 215.734 198.38C218.385 199.828 221.508 200.175 224.417 199.345L444.805 136.157C447.711 135.32 450.165 133.375 451.626 130.747C453.087 128.12 453.437 125.026 452.599 122.143L440.215 79.7191C439.371 76.8383 437.407 74.4071 434.756 72.9589C432.105 71.5107 428.983 71.1638 426.074 71.9941L205.686 135.182Z" fill="#3F3D56"/>
<path d="M330.644 127.168L293.648 137.775C292.667 138.057 291.613 137.94 290.719 137.452C289.824 136.963 289.162 136.142 288.878 135.17C288.594 134.197 288.712 133.153 289.205 132.266C289.698 131.38 290.526 130.724 291.508 130.443L328.504 119.835C329.485 119.554 330.539 119.671 331.433 120.159C332.328 120.648 332.99 121.469 333.273 122.441C333.557 123.414 333.44 124.458 332.947 125.344C332.454 126.231 331.625 126.887 330.644 127.168Z" fill="#E6E6E6"/>
<path d="M416.071 124.528L298.609 158.206C297.628 158.487 296.574 158.371 295.68 157.882C294.785 157.394 294.123 156.573 293.839 155.6C293.555 154.628 293.673 153.584 294.166 152.697C294.659 151.811 295.487 151.154 296.469 150.873L413.931 117.196C414.912 116.914 415.966 117.031 416.86 117.519C417.755 118.008 418.417 118.829 418.701 119.801C418.985 120.774 418.867 121.818 418.374 122.705C417.881 123.591 417.053 124.247 416.071 124.528Z" fill="#E6E6E6"/>
<path d="M329.05 465.189C328.708 465.287 328.342 465.256 328.022 465.103L309.339 456.183C309.168 456.102 309.015 455.988 308.889 455.847C308.762 455.707 308.665 455.544 308.602 455.366C308.54 455.189 308.513 455.001 308.524 454.813C308.534 454.626 308.582 454.442 308.665 454.273L317.665 435.757C317.831 435.415 318.128 435.153 318.489 435.027C318.851 434.902 319.248 434.924 319.593 435.089C319.938 435.254 320.203 435.547 320.329 435.906C320.456 436.264 320.433 436.658 320.267 437L311.894 454.226L329.275 462.524C329.539 462.65 329.758 462.852 329.903 463.104C330.048 463.355 330.112 463.645 330.088 463.933C330.063 464.222 329.951 464.497 329.766 464.721C329.58 464.945 329.33 465.108 329.05 465.189Z" fill="#3F3D56"/>
<path d="M339.667 462.105C339.382 462.187 339.079 462.18 338.798 462.084C338.517 461.989 338.272 461.81 338.098 461.573C337.923 461.335 337.826 461.049 337.821 460.755C337.816 460.461 337.902 460.173 338.068 459.929L348.875 444.088L332.892 433.378C332.575 433.165 332.356 432.836 332.284 432.464C332.212 432.091 332.291 431.706 332.506 431.391C332.72 431.077 333.052 430.86 333.427 430.788C333.803 430.716 334.192 430.795 334.509 431.007L351.689 442.518C352.007 442.731 352.226 443.06 352.298 443.432C352.371 443.805 352.291 444.191 352.077 444.506L340.462 461.532C340.273 461.809 339.992 462.012 339.667 462.105Z" fill="#3F3D56"/>
<path d="M546.482 484.471L326.094 547.658C322.695 548.629 319.046 548.223 315.947 546.531C312.849 544.838 310.555 541.997 309.568 538.63L277.651 429.294C276.672 425.925 277.081 422.308 278.789 419.238C280.496 416.168 283.363 413.894 286.76 412.916L507.149 349.728C510.548 348.758 514.197 349.163 517.295 350.856C520.393 352.548 522.687 355.389 523.674 358.756L555.591 468.093C556.571 471.462 556.162 475.078 554.454 478.149C552.746 481.219 549.879 483.493 546.482 484.471ZM287.296 414.749C284.389 415.586 281.935 417.531 280.474 420.159C279.013 422.786 278.663 425.88 279.501 428.763L311.418 538.1C312.262 540.981 314.226 543.412 316.877 544.86C319.528 546.308 322.65 546.655 325.559 545.825L545.947 482.637C548.854 481.8 551.307 479.855 552.768 477.228C554.23 474.6 554.58 471.506 553.742 468.623L521.824 359.287C520.98 356.406 519.017 353.974 516.366 352.526C513.715 351.078 510.592 350.731 507.684 351.562L287.296 414.749Z" fill="#3F3D56"/>
<path d="M414.179 417.232L377.183 427.839C376.697 427.979 376.187 428.023 375.684 427.968C375.181 427.913 374.694 427.76 374.25 427.518C373.807 427.276 373.416 426.95 373.1 426.558C372.783 426.166 372.548 425.717 372.408 425.235C372.267 424.753 372.223 424.248 372.28 423.749C372.336 423.251 372.491 422.768 372.736 422.329C372.98 421.89 373.31 421.503 373.706 421.19C374.102 420.877 374.556 420.645 375.042 420.506L412.038 409.899C413.019 409.619 414.071 409.737 414.965 410.226C415.858 410.714 416.519 411.535 416.803 412.506C417.086 413.478 416.969 414.521 416.477 415.407C415.985 416.293 415.159 416.949 414.179 417.232Z" fill="#E6E6E6"/>
<path d="M499.607 414.592L382.145 448.27C381.659 448.41 381.149 448.453 380.646 448.398C380.143 448.343 379.656 448.19 379.213 447.948C378.769 447.706 378.378 447.38 378.062 446.988C377.746 446.597 377.511 446.147 377.37 445.665C377.23 445.183 377.186 444.679 377.243 444.18C377.299 443.682 377.454 443.199 377.698 442.76C377.943 442.321 378.272 441.934 378.668 441.621C379.064 441.308 379.518 441.076 380.004 440.937L497.466 407.259C498.447 406.978 499.501 407.094 500.396 407.583C501.29 408.072 501.952 408.893 502.236 409.865C502.52 410.837 502.403 411.882 501.909 412.768C501.416 413.655 500.588 414.311 499.607 414.592Z" fill="#E6E6E6"/>
<path d="M242.607 255.851L231.812 258.946C230.341 259.368 229.493 260.892 229.919 262.35L230.819 265.432C231.244 266.89 232.782 267.73 234.253 267.308L245.048 264.213C246.519 263.791 247.367 262.267 246.941 260.809L246.042 257.727C245.616 256.269 244.078 255.429 242.607 255.851Z" fill="#E6E6E6"/>
<path d="M330.5 230.651L319.705 233.746C318.234 234.168 317.386 235.692 317.812 237.15L318.711 240.232C319.137 241.69 320.675 242.53 322.146 242.108L332.941 239.013C334.412 238.591 335.26 237.068 334.834 235.61L333.934 232.527C333.509 231.069 331.971 230.229 330.5 230.651Z" fill="#3F3D56"/>
<path d="M355.404 223.511L344.609 226.606C343.138 227.028 342.29 228.552 342.716 230.01L343.616 233.092C344.041 234.55 345.579 235.39 347.05 234.968L357.845 231.873C359.316 231.452 360.164 229.928 359.738 228.47L358.838 225.387C358.413 223.93 356.875 223.09 355.404 223.511Z" fill="#E6E6E6"/>
<path d="M306.391 236.809L255.517 251.394C254.046 251.816 253.199 253.34 253.624 254.798L254.524 257.88C254.949 259.338 256.487 260.178 257.958 259.756L308.832 245.171C310.303 244.749 311.15 243.225 310.725 241.767L309.825 238.685C309.399 237.227 307.862 236.387 306.391 236.809Z" fill="#E6E6E6"/>
<path d="M423.58 203.209L372.707 217.795C371.236 218.217 370.388 219.74 370.814 221.198L371.713 224.281C372.139 225.739 373.677 226.579 375.148 226.157L426.021 211.571C427.492 211.149 428.34 209.625 427.914 208.167L427.014 205.085C426.589 203.627 425.051 202.787 423.58 203.209Z" fill="#F2F2F2"/>
<path d="M248.433 274.633L237.638 277.728C236.167 278.15 235.32 279.674 235.745 281.132L236.645 284.214C237.071 285.672 238.608 286.512 240.079 286.09L250.874 282.995C252.346 282.573 253.193 281.05 252.768 279.592L251.868 276.509C251.442 275.051 249.905 274.211 248.433 274.633Z" fill="#E6E6E6"/>
<path d="M336.326 249.433L325.531 252.529C324.06 252.95 323.212 254.474 323.638 255.932L324.538 259.014C324.963 260.472 326.501 261.312 327.972 260.891L338.767 257.795C340.238 257.374 341.086 255.85 340.66 254.392L339.76 251.31C339.335 249.852 337.797 249.012 336.326 249.433Z" fill="#3F3D56"/>
<path d="M361.228 242.294L350.433 245.389C348.962 245.81 348.115 247.334 348.54 248.792L349.44 251.874C349.866 253.332 351.403 254.172 352.874 253.751L363.669 250.656C365.14 250.234 365.988 248.71 365.562 247.252L364.663 244.17C364.237 242.712 362.699 241.872 361.228 242.294Z" fill="#E6E6E6"/>
<path d="M312.215 255.591L261.341 270.177C259.87 270.598 259.023 272.122 259.448 273.58L260.348 276.663C260.774 278.12 262.311 278.96 263.782 278.539L314.656 263.953C316.127 263.531 316.975 262.007 316.549 260.549L315.649 257.467C315.224 256.009 313.686 255.169 312.215 255.591Z" fill="#E6E6E6"/>
<path d="M429.406 221.989L378.533 236.575C377.062 236.997 376.214 238.52 376.64 239.978L377.54 243.061C377.965 244.519 379.503 245.359 380.974 244.937L431.847 230.351C433.319 229.929 434.166 228.405 433.74 226.947L432.841 223.865C432.415 222.407 430.877 221.567 429.406 221.989Z" fill="#F2F2F2"/>
<path d="M300.502 280.157L289.707 283.252C288.236 283.673 287.388 285.197 287.814 286.655L288.713 289.738C289.139 291.195 290.677 292.035 292.148 291.614L302.943 288.519C304.414 288.097 305.261 286.573 304.836 285.115L303.936 282.033C303.511 280.575 301.973 279.735 300.502 280.157Z" fill="#E6E6E6"/>
<path d="M388.394 254.957L377.599 258.052C376.128 258.474 375.281 259.998 375.706 261.455L376.606 264.538C377.032 265.996 378.569 266.836 380.04 266.414L390.835 263.319C392.306 262.897 393.154 261.373 392.728 259.915L391.829 256.833C391.403 255.375 389.865 254.535 388.394 254.957Z" fill="#3F3D56"/>
<path d="M413.299 247.817L402.504 250.912C401.032 251.334 400.185 252.858 400.61 254.316L401.51 257.398C401.936 258.856 403.473 259.696 404.944 259.274L415.74 256.179C417.211 255.757 418.058 254.233 417.633 252.775L416.733 249.693C416.307 248.235 414.77 247.395 413.299 247.817Z" fill="#E6E6E6"/>
<path d="M364.285 261.114L313.412 275.7C311.941 276.122 311.093 277.646 311.519 279.104L312.418 282.186C312.844 283.644 314.382 284.484 315.853 284.062L366.726 269.476C368.197 269.054 369.045 267.531 368.619 266.073L367.719 262.99C367.294 261.532 365.756 260.692 364.285 261.114Z" fill="#E6E6E6"/>
<path d="M481.477 227.512L430.603 242.098C429.132 242.52 428.284 244.044 428.71 245.502L429.61 248.584C430.035 250.042 431.573 250.882 433.044 250.46L483.918 235.874C485.389 235.452 486.236 233.928 485.811 232.47L484.911 229.388C484.485 227.93 482.948 227.09 481.477 227.512Z" fill="#F2F2F2"/>
<path d="M269.801 348.903L259.006 351.998C257.534 352.42 256.687 353.944 257.112 355.402L258.012 358.484C258.438 359.942 259.975 360.782 261.447 360.36L272.242 357.265C273.713 356.843 274.56 355.319 274.135 353.861L273.235 350.779C272.809 349.321 271.272 348.481 269.801 348.903Z" fill="#3F3D56"/>
<path d="M294.703 341.763L283.908 344.858C282.437 345.28 281.589 346.804 282.015 348.262L282.915 351.344C283.34 352.802 284.878 353.642 286.349 353.22L297.144 350.125C298.615 349.703 299.463 348.179 299.037 346.721L298.137 343.639C297.712 342.181 296.174 341.341 294.703 341.763Z" fill="#E6E6E6"/>
<path d="M363.287 322.855L312.414 337.441C310.943 337.863 310.095 339.386 310.521 340.844L311.42 343.927C311.846 345.385 313.384 346.225 314.855 345.803L365.728 331.217C367.199 330.795 368.047 329.271 367.621 327.813L366.721 324.731C366.296 323.273 364.758 322.433 363.287 322.855Z" fill="#F2F2F2"/>
<path d="M328.426 311.642L317.63 314.738C316.159 315.159 315.312 316.683 315.737 318.141L316.637 321.223C317.063 322.681 318.6 323.521 320.071 323.099L330.867 320.004C332.338 319.583 333.185 318.059 332.76 316.601L331.86 313.519C331.434 312.061 329.897 311.221 328.426 311.642Z" fill="#3F3D56"/>
<path d="M353.33 304.501L342.535 307.596C341.064 308.017 340.216 309.541 340.642 310.999L341.542 314.082C341.967 315.539 343.505 316.379 344.976 315.958L355.771 312.862C357.242 312.441 358.09 310.917 357.664 309.459L356.764 306.377C356.339 304.919 354.801 304.079 353.33 304.501Z" fill="#3F3D56"/>
<path d="M304.721 319.194L253.847 333.78C252.376 334.202 251.529 335.726 251.954 337.183L252.854 340.266C253.28 341.724 254.817 342.564 256.288 342.142L307.162 327.556C308.633 327.134 309.48 325.61 309.055 324.152L308.155 321.07C307.729 319.612 306.192 318.772 304.721 319.194Z" fill="#E6E6E6"/>
<path d="M421.914 285.592L371.041 300.178C369.57 300.6 368.722 302.124 369.148 303.582L370.047 306.664C370.473 308.122 372.011 308.962 373.482 308.54L424.355 293.954C425.826 293.532 426.674 292.008 426.248 290.55L425.349 287.468C424.923 286.01 423.385 285.17 421.914 285.592Z" fill="#F2F2F2"/>
<path d="M305.631 297.725L294.836 300.821C293.364 301.242 292.517 302.766 292.942 304.224L293.842 307.306C294.268 308.764 295.805 309.604 297.277 309.182L308.072 306.087C309.543 305.666 310.39 304.142 309.965 302.684L309.065 299.602C308.639 298.144 307.102 297.304 305.631 297.725Z" fill="#E6E6E6"/>
<path d="M393.523 272.526L382.728 275.621C381.257 276.043 380.409 277.566 380.835 279.024L381.735 282.107C382.16 283.565 383.698 284.405 385.169 283.983L395.964 280.888C397.435 280.466 398.283 278.942 397.857 277.484L396.958 274.402C396.532 272.944 394.994 272.104 393.523 272.526Z" fill="#3F3D56"/>
<path d="M418.426 265.386L407.63 268.481C406.159 268.903 405.312 270.426 405.737 271.884L406.637 274.967C407.063 276.425 408.6 277.265 410.071 276.843L420.867 273.748C422.338 273.326 423.185 271.802 422.76 270.344L421.86 267.262C421.434 265.804 419.897 264.964 418.426 265.386Z" fill="#E6E6E6"/>
<path d="M369.82 280.077L318.947 294.663C317.476 295.085 316.628 296.609 317.054 298.067L317.954 301.149C318.379 302.607 319.917 303.447 321.388 303.025L372.261 288.439C373.732 288.017 374.58 286.493 374.154 285.036L373.255 281.953C372.829 280.495 371.291 279.655 369.82 280.077Z" fill="#E6E6E6"/>
<path d="M487.01 246.478L436.136 261.064C434.665 261.485 433.818 263.009 434.243 264.467L435.143 267.55C435.569 269.007 437.106 269.847 438.577 269.426L489.451 254.84C490.922 254.418 491.77 252.894 491.344 251.436L490.444 248.354C490.019 246.896 488.481 246.056 487.01 246.478Z" fill="#F2F2F2"/>
<path d="M279.206 313.586C281.599 313.586 283.538 311.664 283.538 309.292C283.538 306.921 281.599 304.999 279.206 304.999C276.813 304.999 274.873 306.921 274.873 309.292C274.873 311.664 276.813 313.586 279.206 313.586Z" fill="#3F3D56"/>
<path d="M274.122 296.171C276.515 296.171 278.455 294.248 278.455 291.877C278.455 289.505 276.515 287.583 274.122 287.583C271.729 287.583 269.789 289.505 269.789 291.877C269.789 294.248 271.729 296.171 274.122 296.171Z" fill="#3F3D56"/>
<path d="M305.211 44.41L276.539 52.6305C275.927 52.8035 275.271 52.7289 274.714 52.4232C274.157 52.1175 273.744 51.6055 273.567 50.9993C273.391 50.3932 273.463 49.7422 273.769 49.189C274.076 48.6357 274.591 48.2253 275.202 48.0475L303.873 39.827C304.178 39.7385 304.496 39.7104 304.811 39.7443C305.126 39.7782 305.432 39.8734 305.709 40.0244C305.987 40.1755 306.232 40.3794 306.43 40.6246C306.628 40.8697 306.776 41.1512 306.864 41.4529C306.952 41.7546 306.979 42.0706 306.944 42.3827C306.908 42.6948 306.811 42.9968 306.657 43.2716C306.504 43.5463 306.297 43.7883 306.049 43.9837C305.801 44.1791 305.516 44.3239 305.211 44.41Z" fill="white"/>
<path d="M319.342 39.784C320.405 39.784 321.267 38.9295 321.267 37.8756C321.267 36.8216 320.405 35.9672 319.342 35.9672C318.278 35.9672 317.416 36.8216 317.416 37.8756C317.416 38.9295 318.278 39.784 319.342 39.784Z" fill="white"/>
<path d="M33.0976 602.921C32.8352 602.201 32.6532 601.455 32.5551 600.697C32.5443 600.641 32.54 600.585 32.5424 600.529C32.0521 595.909 34.4587 591.625 37.1854 587.278L40.9239 581.326C41.2721 580.771 41.7793 580.332 42.3807 580.065C42.982 579.797 43.6502 579.714 44.2996 579.825C44.9491 579.937 45.5502 580.237 46.0262 580.689C46.5021 581.141 46.8311 581.723 46.9712 582.362C47.1743 583.286 47.3774 584.224 47.5715 585.158C49.5842 583.499 51.6857 581.963 53.5257 580.636C58.385 577.142 63.2429 573.643 68.0993 570.141C68.6317 569.756 69.2678 569.538 69.926 569.514C70.5842 569.49 71.2346 569.662 71.7941 570.006C72.3535 570.351 72.7964 570.853 73.0662 571.449C73.336 572.044 73.4203 572.706 73.3084 573.349L72.384 578.66C71.1565 585.707 69.7654 593.694 66.474 600.677C66.1054 601.477 65.711 602.255 65.3025 602.989L65.1652 603.236H33.2124L33.0976 602.921Z" fill="#F0F0F0"/>
<path d="M1.14065 603.921L594.586 604.214C594.889 604.212 595.179 604.092 595.393 603.879C595.606 603.666 595.726 603.378 595.726 603.078C595.726 602.778 595.606 602.49 595.393 602.277C595.179 602.064 594.889 601.943 594.586 601.942L1.14065 601.648C0.837603 601.65 0.547487 601.77 0.333734 601.983C0.11998 602.196 0 602.484 0 602.785C0 603.085 0.11998 603.373 0.333734 603.586C0.547487 603.799 0.837603 603.919 1.14065 603.921Z" fill="#CACACA"/>
<path d="M410.531 496.612C407.407 497.508 404.085 497.466 400.985 496.49C397.885 495.515 395.147 493.651 393.117 491.133C391.086 488.615 389.854 485.557 389.577 482.346C389.3 479.134 389.991 475.914 391.561 473.091C393.131 470.268 395.51 467.97 398.398 466.488C401.286 465.005 404.552 464.405 407.784 464.762C411.016 465.119 414.069 466.419 416.556 468.495C419.044 470.572 420.853 473.333 421.757 476.429C422.969 480.581 422.467 485.04 420.362 488.825C418.257 492.61 414.72 495.411 410.531 496.612Z" fill="#E6E6E6"/>
<path d="M411.744 477.627L407.069 478.967L405.717 474.334C405.657 474.132 405.559 473.942 405.426 473.777C405.293 473.613 405.128 473.475 404.942 473.373C404.565 473.167 404.121 473.118 403.708 473.237C403.295 473.355 402.946 473.632 402.738 474.005C402.53 474.378 402.481 474.818 402.6 475.228L403.953 479.861L399.278 481.201C398.866 481.32 398.517 481.596 398.31 481.969C398.103 482.343 398.054 482.782 398.173 483.191C398.293 483.6 398.571 483.946 398.947 484.151C399.323 484.357 399.767 484.407 400.18 484.289L404.854 482.949L406.207 487.582C406.266 487.784 406.365 487.974 406.498 488.139C406.631 488.303 406.795 488.441 406.982 488.543C407.168 488.645 407.373 488.709 407.585 488.733C407.797 488.756 408.011 488.738 408.216 488.679C408.42 488.62 408.611 488.522 408.778 488.391C408.944 488.259 409.083 488.096 409.185 487.911C409.288 487.726 409.353 487.523 409.377 487.313C409.401 487.103 409.382 486.891 409.323 486.688L407.971 482.055L412.645 480.715C413.058 480.596 413.406 480.32 413.613 479.947C413.82 479.574 413.869 479.134 413.75 478.725C413.631 478.316 413.352 477.97 412.976 477.765C412.6 477.559 412.157 477.509 411.744 477.627Z" fill="white"/>
<path d="M456.746 483.362C453.622 484.258 450.3 484.216 447.2 483.24C444.1 482.265 441.362 480.4 439.331 477.883C437.301 475.365 436.069 472.307 435.792 469.096C435.515 465.884 436.205 462.664 437.775 459.841C439.345 457.018 441.725 454.72 444.613 453.238C447.5 451.755 450.767 451.155 453.999 451.512C457.231 451.869 460.284 453.169 462.771 455.245C465.258 457.322 467.068 460.083 467.972 463.179C469.184 467.331 468.682 471.79 466.577 475.575C464.472 479.36 460.935 482.161 456.746 483.362Z" fill="#E6E6E6"/>
<path d="M457.957 464.377L453.283 465.717L450.166 466.611L445.492 467.951C445.078 468.069 444.73 468.346 444.522 468.719C444.314 469.092 444.265 469.532 444.384 469.942C444.504 470.351 444.783 470.697 445.159 470.903C445.536 471.109 445.98 471.158 446.393 471.039L451.068 469.699L454.184 468.805L458.859 467.465C459.063 467.407 459.255 467.309 459.422 467.177C459.588 467.045 459.727 466.882 459.83 466.697C459.933 466.512 459.999 466.309 460.022 466.099C460.046 465.889 460.028 465.677 459.968 465.474C459.909 465.271 459.81 465.081 459.677 464.916C459.544 464.751 459.379 464.614 459.192 464.512C459.005 464.41 458.8 464.346 458.588 464.322C458.376 464.299 458.162 464.318 457.957 464.377Z" fill="white"/>
<path d="M502.959 470.112C499.835 471.008 496.513 470.966 493.413 469.99C490.313 469.015 487.575 467.151 485.544 464.633C483.514 462.115 482.282 459.057 482.005 455.846C481.728 452.634 482.418 449.414 483.988 446.591C485.558 443.768 487.938 441.47 490.825 439.988C493.713 438.505 496.98 437.905 500.212 438.262C503.444 438.619 506.497 439.919 508.984 441.995C511.471 444.072 513.281 446.833 514.185 449.929C515.397 454.081 514.895 458.54 512.79 462.325C510.684 466.11 507.148 468.911 502.959 470.112Z" fill="#E6E6E6"/>
<path d="M507.059 451.166L500.69 445.973C500.55 445.858 500.389 445.773 500.215 445.72C500.041 445.668 499.859 445.65 499.678 445.667C499.497 445.684 499.322 445.737 499.162 445.822C499.001 445.906 498.86 446.021 498.744 446.16C498.629 446.299 498.542 446.459 498.489 446.631C498.437 446.804 498.418 446.984 498.436 447.163C498.453 447.342 498.506 447.516 498.592 447.675C498.677 447.834 498.793 447.974 498.933 448.089L503.053 451.448L499.497 452.467L496.381 453.361L491.706 454.701C491.293 454.819 490.944 455.096 490.737 455.469C490.529 455.842 490.479 456.282 490.599 456.692C490.719 457.101 490.997 457.447 491.374 457.653C491.751 457.859 492.195 457.908 492.608 457.789L497.283 456.449L500.399 455.555L504.097 454.495L502.341 459.762C502.227 460.107 502.255 460.482 502.42 460.806C502.585 461.13 502.873 461.376 503.221 461.49C503.569 461.604 503.948 461.576 504.275 461.414C504.602 461.251 504.851 460.966 504.967 460.622L507.554 452.86C507.624 452.559 507.615 452.246 507.529 451.95C507.442 451.653 507.281 451.384 507.059 451.167V451.166Z" fill="white"/>
</g>
<defs>
<clipPath id="clip0_418_262">
<rect width="595.726" height="604.214" fill="white"/>
</clipPath>
</defs>
</svg>
